<svg width="86" height="86" viewBox="0 0 86 86" fill="none" xmlns="http://www.w3.org/2000/svg">
<circle cx="42.7014" cy="42.9106" r="42.6135" fill="#123498"/>
<path d="M50.0406 50.2109C54.7799 42.7742 54.1841 43.702 54.3207 43.5081C56.0461 41.0743 56.9581 38.2099 56.9581 35.2244C56.9581 27.3068 50.5332 20.7845 42.6053 20.7845C34.7032 20.7845 28.2524 27.294 28.2524 35.2244C28.2524 38.208 29.1835 41.1474 30.9655 43.6139L35.1698 50.211C30.6747 50.9018 23.0332 52.9603 23.0332 57.493C23.0332 59.1454 24.1117 61.5001 29.2495 63.335C32.837 64.6162 37.5801 65.3219 42.6053 65.3219C52.002 65.3219 62.1773 62.6712 62.1773 57.493C62.1773 52.9595 54.5448 50.9032 50.0406 50.2109ZM33.1454 42.1786C33.131 42.1561 33.116 42.1342 33.1004 42.1126C31.6175 40.0726 30.862 37.6549 30.862 35.2244C30.862 28.6988 36.1166 23.3942 42.6053 23.3942C49.0805 23.3942 54.3485 28.7011 54.3485 35.2244C54.3485 37.6588 53.6073 39.9945 52.2046 41.9807C52.0789 42.1465 52.7347 41.1277 42.6053 57.0224L33.1454 42.1786ZM42.6053 62.7123C32.3413 62.7123 25.6428 59.6953 25.6428 57.493C25.6428 56.0129 29.0847 53.5791 36.7117 52.6304L41.5049 60.1515C41.7444 60.5275 42.1594 60.7551 42.6052 60.7551C43.051 60.7551 43.466 60.5274 43.7055 60.1515L48.4986 52.6304C56.1257 53.5791 59.5677 56.0129 59.5677 57.493C59.5677 59.6766 52.9295 62.7123 42.6053 62.7123Z" fill="white"/>
<path d="M42.6051 28.6998C39.0077 28.6998 36.0811 31.6265 36.0811 35.2239C36.0811 38.8212 39.0077 41.7479 42.6051 41.7479C46.2024 41.7479 49.1291 38.8212 49.1291 35.2239C49.1291 31.6265 46.2024 28.6998 42.6051 28.6998ZM42.6051 39.1383C40.4467 39.1383 38.6907 37.3823 38.6907 35.2239C38.6907 33.0654 40.4467 31.3094 42.6051 31.3094C44.7635 31.3094 46.5195 33.0654 46.5195 35.2239C46.5195 37.3823 44.7635 39.1383 42.6051 39.1383Z" fill="white"/>
</svg>
