<svg width="157" height="143" viewBox="0 0 157 143" fill="none" xmlns="http://www.w3.org/2000/svg">
<g filter="url(#filter0_d_0_1082)">
<path d="M34.9189 75.0051C34.9189 51.675 53.8317 32.7622 77.1618 32.7622H85.8744C106.434 32.7622 123.101 49.4291 123.101 69.9887C123.101 90.5484 106.434 107.215 85.8744 107.215H34.9189V75.0051Z" fill="#123498"/>
</g>
<path d="M83.8361 58.1121H83.8887C83.8887 58.1121 83.8478 58.0093 83.8361 58.1121ZM71.1357 58.1121H71.1883C71.1766 58.0093 71.1357 58.1121 71.1357 58.1121Z" fill="white"/>
<path d="M96.5204 61.3501C96.3759 61.118 96.1868 60.9169 95.964 60.7583C95.7413 60.5998 95.4893 60.487 95.2227 60.4265L92.3692 59.7708L93.6867 59.402C94.7784 59.0965 95.436 57.9306 95.13 56.8369C94.8244 55.7453 93.6587 55.0878 92.5648 55.3936L86.4217 57.113C86.2618 56.8222 86.0351 56.5736 85.7604 56.3876C87.0071 54.0674 88.8033 50.1302 88.8033 48.4363C88.8033 48.0232 88.4128 47.7035 88.0076 47.7852C85.5696 48.2777 83.2966 48.505 81.0613 48.4806C78.7637 48.4554 75.9043 48.17 74.1077 47.7867C73.5522 47.6682 73.1065 48.2897 73.3994 48.778C73.8372 49.5077 74.1055 50.2793 74.2529 51.0569C71.998 51.126 69.6595 50.8527 67.8896 49.9677C67.4129 49.7293 66.8501 50.1464 66.9373 50.671C67.494 54.0106 68.617 55.9687 69.743 57.448H69.718C68.5704 57.448 67.6368 58.3817 67.6368 59.5292C67.6368 60.5847 68.4267 61.4584 69.4462 61.5922C68.703 62.8369 67.6417 64.0178 66.5266 65.2571C64.1552 67.8924 61.4674 70.8794 60.5631 75.7024C60.1304 78.01 60.1448 80.1693 60.6061 82.1203C61.0367 83.9418 61.8569 85.5904 63.0437 87.0205C64.619 88.9187 66.7834 90.3916 69.4766 91.3984C71.9026 92.3052 74.681 92.7845 77.5115 92.7845C80.342 92.7845 83.1205 92.3052 85.5464 91.3984C88.2396 90.3916 90.404 88.9186 91.9793 87.0205C93.1661 85.5904 93.9862 83.9418 94.4168 82.1203C94.8781 80.1693 94.8926 78.01 94.4598 75.7024C93.5555 70.8795 90.8678 67.8925 88.4965 65.2572C87.6914 64.3625 86.9255 63.5094 86.2834 62.6436L94.2906 64.4833C95.1389 64.6783 96.0428 64.3072 96.5114 63.5741C96.9403 62.903 96.9428 62.0243 96.5204 61.3501ZM81.0467 49.8089C83.0919 49.8312 85.1618 49.6524 87.3481 49.2628C86.9472 50.9018 85.6599 53.8169 84.4388 56.0375C83.5927 56.1013 82.8863 56.6729 82.6245 57.4479H80.7804C80.7388 57.3582 80.6926 57.2598 80.6412 57.1505C80.071 55.9383 78.8843 53.4161 78.8843 51.2702C78.8843 50.8577 78.4947 50.5379 78.0898 50.619C77.3168 50.7736 76.4664 50.8987 75.5816 50.9771C75.4888 50.4229 75.3449 49.8678 75.1357 49.3219C76.9203 49.5981 79.1684 49.7883 81.0467 49.8089ZM85.3493 58.1121V60.9461C85.3493 61.3611 85.0116 61.6989 84.5965 61.6989C84.1813 61.6989 83.8437 61.3612 83.8437 60.9461V58.1121C83.8437 57.6969 84.1813 57.3592 84.5965 57.3592C85.0116 57.3592 85.3493 57.697 85.3493 58.1121ZM68.4857 51.6496C70.1462 52.2164 72.1889 52.4677 74.395 52.3902L75.7114 52.307C76.3428 52.2488 76.9718 52.1666 77.597 52.0607C77.8042 54.1156 78.7429 56.2272 79.3133 57.4479H71.4381C71.4233 57.4243 71.4069 57.4016 71.3893 57.38C70.2783 56.0434 69.1509 54.4974 68.4857 51.6496ZM87.5089 66.1456C89.7635 68.651 92.3186 71.4906 93.1543 75.9469C93.9233 80.0484 93.184 83.4885 90.957 86.1717C88.2111 89.4804 83.1847 91.4559 77.5116 91.4559C71.8384 91.4559 66.812 89.4805 64.066 86.1718C61.839 83.4886 61.0998 80.0484 61.8688 75.947C62.7044 71.4906 65.2596 68.6509 67.5141 66.1456C68.8621 64.6474 70.1357 63.2304 70.9519 61.6104H72.5741C72.6613 61.6104 72.7477 61.5932 72.8283 61.5598C72.9089 61.5265 72.9821 61.4775 73.0438 61.4159C73.1054 61.3542 73.1544 61.2809 73.1877 61.2004C73.2211 61.1198 73.2383 61.0334 73.2383 60.9462C73.2383 60.8589 73.2211 60.7726 73.1877 60.692C73.1544 60.6114 73.1054 60.5382 73.0438 60.4765C72.9821 60.4148 72.9089 60.3659 72.8283 60.3325C72.7477 60.2991 72.6613 60.282 72.5741 60.282H69.7179C69.3028 60.282 68.9651 59.9443 68.9651 59.5292C68.9651 59.114 69.3028 58.7763 69.7179 58.7763H82.5152V60.2819H75.7401C75.5639 60.2819 75.395 60.3519 75.2704 60.4764C75.1459 60.601 75.0759 60.7699 75.0759 60.9461C75.0759 61.1222 75.1459 61.2912 75.2704 61.4157C75.395 61.5403 75.5639 61.6103 75.7401 61.6103H82.6244C82.9023 62.433 83.681 63.0273 84.5964 63.0273C84.7021 63.0273 84.8059 63.0192 84.9075 63.004C85.6488 64.0763 86.5524 65.0827 87.5089 66.1456ZM86.6778 58.4208L92.9228 56.673C93.3183 56.5621 93.7403 56.8004 93.8507 57.195C93.9613 57.5905 93.7235 58.0124 93.3286 58.1228L89.7596 59.1217C89.731 59.1299 89.703 59.1401 89.6758 59.1521L86.6778 58.4633V58.4208ZM95.4903 62.6233C95.3973 63.0279 94.9932 63.2815 94.588 63.1884L86.636 61.3614C86.6638 61.2247 86.6777 61.0855 86.6777 60.946V59.8261L94.9251 61.7211C95.3248 61.8129 95.5822 62.2232 95.4903 62.6233Z" fill="white"/>
<path d="M81.7625 75.0717C82.7147 75.0717 83.4895 74.297 83.4895 73.3447V72.282C83.4895 69.7968 81.6359 67.7366 79.2384 67.4115V66.2597C79.2384 65.3075 78.4637 64.5327 77.5114 64.5327C76.5592 64.5327 75.7844 65.3074 75.7844 66.2597V67.4994C73.3231 68.0484 71.5334 70.2366 71.5334 72.8133C71.5334 75.8166 73.9767 78.2599 76.98 78.2599H78.0427C79.1414 78.2599 80.0354 79.1538 80.0354 80.2526C80.0354 81.3515 79.1415 82.2453 78.0427 82.2453H76.4485C75.6427 82.2453 74.9872 81.5897 74.9872 80.784C74.9872 79.8318 74.2125 79.057 73.2602 79.057C72.308 79.057 71.5332 79.8317 71.5332 80.784C71.5332 83.2692 73.3868 85.3294 75.7842 85.6545V86.8063C75.7842 87.7585 76.559 88.5333 77.5113 88.5333C78.4635 88.5333 79.2383 87.7586 79.2383 86.8063V85.5666C81.6996 85.0175 83.4893 82.8294 83.4893 80.2526C83.4893 77.2494 81.046 74.806 78.0427 74.806H76.98C75.8813 74.806 74.9873 73.9122 74.9873 72.8133C74.9873 71.7145 75.8812 70.8207 76.98 70.8207H78.5741C79.38 70.8207 80.0355 71.4762 80.0355 72.282V73.3447C80.0355 74.2969 80.8103 75.0717 81.7625 75.0717ZM78.5742 69.4923H76.9801C75.1488 69.4923 73.659 70.9821 73.659 72.8133C73.659 74.6446 75.1488 76.1344 76.9801 76.1344H78.0428C80.3136 76.1344 82.161 77.9819 82.161 80.2526C82.161 82.3537 80.5874 84.1128 78.5009 84.3446C78.3384 84.3627 78.1883 84.44 78.0793 84.5618C77.9703 84.6836 77.91 84.8413 77.91 85.0048V86.8063C77.91 87.026 77.7312 87.2048 77.5115 87.2048C77.2918 87.2048 77.113 87.026 77.113 86.8063V85.035C77.113 84.9478 77.0958 84.8614 77.0625 84.7808C77.0291 84.7003 76.9802 84.627 76.9185 84.5654C76.8568 84.5037 76.7836 84.4547 76.703 84.4214C76.6224 84.388 76.536 84.3708 76.4488 84.3708C74.471 84.3708 72.862 82.7618 72.862 80.7841C72.862 80.5644 73.0409 80.3856 73.2606 80.3856C73.4803 80.3856 73.6591 80.5644 73.6591 80.7841C73.6591 82.3223 74.9105 83.5738 76.4488 83.5738H78.043C79.8742 83.5738 81.364 82.084 81.364 80.2527C81.364 78.4215 79.8742 76.9316 78.043 76.9316H76.9802C74.7094 76.9316 72.862 75.0842 72.862 72.8134C72.862 70.7124 74.4356 68.9533 76.5221 68.7214C76.6846 68.7034 76.8347 68.6261 76.9437 68.5043C77.0527 68.3825 77.113 68.2247 77.113 68.0613V66.2598C77.113 66.0401 77.2918 65.8613 77.5115 65.8613C77.7312 65.8613 77.91 66.0401 77.91 66.2598V68.031C77.91 68.1183 77.9272 68.2046 77.9606 68.2852C77.9939 68.3658 78.0429 68.439 78.1045 68.5007C78.1662 68.5624 78.2395 68.6113 78.32 68.6447C78.4006 68.6781 78.487 68.6952 78.5742 68.6952C80.5521 68.6952 82.161 70.3043 82.161 72.282V73.3447C82.161 73.5644 81.9822 73.7432 81.7625 73.7432C81.5428 73.7432 81.364 73.5644 81.364 73.3447V72.282C81.364 70.7437 80.1125 69.4923 78.5742 69.4923Z" fill="white"/>
<defs>
<filter id="filter0_d_0_1082" x="0.596627" y="0.0239954" width="155.771" height="142.042" filterUnits="userSpaceOnUse" color-interpolation-filters="sRGB">
<feFlood flood-opacity="0" result="BackgroundImageFix"/>
<feColorMatrix in="SourceAlpha" type="matrix" values="0 0 0 0 0 0 0 0 0 0 0 0 0 0 0 0 0 0 127 0" result="hardAlpha"/>
<feMorphology radius="2.11214" operator="dilate" in="SourceAlpha" result="effect1_dropShadow_0_1082"/>
<feOffset dx="-0.528036" dy="1.05607"/>
<feGaussianBlur stdDeviation="15.8411"/>
<feComposite in2="hardAlpha" operator="out"/>
<feColorMatrix type="matrix" values="0 0 0 0 0 0 0 0 0 0 0 0 0 0 0 0 0 0 0.05 0"/>
<feBlend mode="normal" in2="BackgroundImageFix" result="effect1_dropShadow_0_1082"/>
<feBlend mode="normal" in="SourceGraphic" in2="effect1_dropShadow_0_1082" result="shape"/>
</filter>
</defs>
</svg>
