<svg width="84" height="84" viewBox="0 0 84 84" fill="none" xmlns="http://www.w3.org/2000/svg">
<circle cx="42.0867" cy="42.0427" r="41.5251" fill="#123498"/>
<path d="M53.1391 46.5848C52.3556 45.769 51.4106 45.3328 50.409 45.3328C49.4155 45.3328 48.4623 45.7609 47.6465 46.5767L45.0941 49.1211C44.8841 49.008 44.6741 48.903 44.4721 48.798C44.1813 48.6526 43.9067 48.5153 43.6725 48.3699C41.2816 46.8514 39.1088 44.8724 37.0248 42.3119C36.0152 41.0357 35.3367 39.9614 34.844 38.871C35.5063 38.2652 36.1202 37.6351 36.7179 37.0294C36.9441 36.8032 37.1702 36.5689 37.3964 36.3428C39.0926 34.6465 39.0926 32.4495 37.3964 30.7533L35.1913 28.5482C34.9409 28.2978 34.6824 28.0393 34.4401 27.7808C33.9555 27.28 33.4466 26.7631 32.9216 26.2784C32.1381 25.503 31.2011 25.0911 30.2157 25.0911C29.2302 25.0911 28.2771 25.503 27.4694 26.2784C27.4613 26.2865 27.4613 26.2865 27.4532 26.2946L24.7069 29.0651C23.673 30.099 23.0834 31.3591 22.9541 32.8211C22.7603 35.1796 23.4549 37.3767 23.988 38.8144C25.2966 42.3442 27.2513 45.6155 30.1672 49.1211C33.7051 53.3456 37.9618 56.6815 42.8244 59.032C44.6821 59.9124 47.1619 60.9544 49.9324 61.1321C50.102 61.1402 50.2797 61.1482 50.4413 61.1482C52.3071 61.1482 53.8741 60.4778 55.1019 59.1451C55.11 59.1289 55.1261 59.1208 55.1342 59.1047C55.5542 58.5958 56.0389 58.1354 56.5477 57.6427C56.8951 57.3115 57.2505 56.9642 57.5978 56.6007C58.3974 55.7687 58.8175 54.7995 58.8175 53.806C58.8175 52.8044 58.3894 51.8432 57.5736 51.0354L53.1391 46.5848ZM56.0308 55.0903C56.0227 55.0903 56.0227 55.0983 56.0308 55.0903C55.7158 55.4295 55.3927 55.7364 55.0453 56.0757C54.5203 56.5765 53.9872 57.1015 53.4864 57.6912C52.6706 58.5635 51.7094 58.9754 50.4494 58.9754C50.3282 58.9754 50.199 58.9754 50.0778 58.9674C47.6788 58.8139 45.4495 57.8769 43.7775 57.0773C39.2057 54.8641 35.1913 51.722 31.8553 47.7399C29.101 44.4201 27.2594 41.3507 26.0397 38.0552C25.2885 36.0439 25.0139 34.4769 25.135 32.9988C25.2158 32.0537 25.5793 31.2702 26.2497 30.5998L29.0041 27.8454C29.3998 27.4739 29.8199 27.2719 30.2318 27.2719C30.7407 27.2719 31.1526 27.5789 31.4111 27.8374C31.4192 27.8454 31.4272 27.8535 31.4353 27.8616C31.928 28.322 32.3965 28.7986 32.8892 29.3074C33.1396 29.5659 33.3981 29.8244 33.6566 30.0909L35.8617 32.296C36.7179 33.1522 36.7179 33.9438 35.8617 34.8C35.6275 35.0343 35.4013 35.2685 35.1671 35.4947C34.4886 36.1893 33.8424 36.8355 33.1396 37.4655C33.1235 37.4817 33.1073 37.4898 33.0993 37.5059C32.4046 38.2006 32.5338 38.8791 32.6792 39.3395C32.6873 39.3637 32.6954 39.3879 32.7035 39.4122C33.277 40.8015 34.0847 42.11 35.3124 43.6689L35.3205 43.677C37.5499 46.4233 39.9004 48.5638 42.4932 50.2035C42.8244 50.4135 43.1636 50.5831 43.4867 50.7447C43.7775 50.89 44.0521 51.0274 44.2864 51.1727C44.3187 51.1889 44.351 51.2131 44.3833 51.2293C44.6579 51.3666 44.9164 51.4312 45.1829 51.4312C45.8534 51.4312 46.2734 51.0112 46.4107 50.8739L49.1731 48.1114C49.4478 47.8368 49.8839 47.5056 50.3928 47.5056C50.8936 47.5056 51.3055 47.8207 51.5559 48.0953C51.564 48.1034 51.564 48.1034 51.5721 48.1114L56.0227 52.562C56.8547 53.3859 56.8547 54.2341 56.0308 55.0903Z" fill="white"/>
<path d="M43.5753 31.9812C45.6916 32.3366 47.614 33.3382 49.1487 34.8728C50.6834 36.4075 51.6769 38.3299 52.0403 40.4462C52.1292 40.9793 52.5896 41.3509 53.1146 41.3509C53.1792 41.3509 53.2358 41.3428 53.3004 41.3347C53.8981 41.2378 54.2939 40.6724 54.197 40.0746C53.7608 37.5141 52.5492 35.1798 50.6995 33.3301C48.8498 31.4804 46.5155 30.2688 43.9549 29.8326C43.3572 29.7357 42.7999 30.1315 42.6949 30.7211C42.5899 31.3107 42.9776 31.8842 43.5753 31.9812Z" fill="white"/>
<path d="M61.1203 39.7598C60.4014 35.5434 58.4144 31.7067 55.3612 28.6534C52.308 25.6002 48.4712 23.6132 44.2549 22.8943C43.6652 22.7893 43.1079 23.1932 43.0029 23.7828C42.9059 24.3805 43.3017 24.9379 43.8995 25.0429C47.6635 25.681 51.0964 27.4661 53.8265 30.1881C56.5566 32.9183 58.3336 36.3511 58.9717 40.1152C59.0606 40.6483 59.521 41.0198 60.046 41.0198C60.1106 41.0198 60.1672 41.0118 60.2318 41.0037C60.8215 40.9148 61.2253 40.3494 61.1203 39.7598Z" fill="white"/>
</svg>
