<svg width="32" height="32" viewBox="0 0 32 32" fill="none" xmlns="http://www.w3.org/2000/svg">
<path d="M16 0C7.164 0 0 7.164 0 16C0 24.836 7.164 32 16 32C24.836 32 32 24.836 32 16C32 7.164 24.836 0 16 0ZM24 25C14.626 25 7 17.374 7 8C7 7.448 7.448 7 8 7H11.692C12.244 7 12.692 7.448 12.692 8C12.692 9.728 13.068 11.374 13.81 12.89C13.928 13.13 13.944 13.404 13.856 13.656C13.77 13.908 13.586 14.114 13.346 14.23L11.854 14.95C13.096 17.112 14.888 18.906 17.048 20.144L17.768 18.654C17.884 18.414 18.09 18.232 18.342 18.144C18.594 18.058 18.87 18.074 19.108 18.19C20.628 18.932 22.272 19.308 23.998 19.308C24.55 19.308 24.998 19.756 24.998 20.308V24H25C25 24.552 24.552 25 24 25Z" fill="#123498"/>
</svg>
