<svg width="21" height="21" viewBox="0 0 21 21" fill="none" xmlns="http://www.w3.org/2000/svg">
<path d="M10.5 0C4.71028 0 0 4.71028 0 10.5C0 16.2897 4.71028 21 10.5 21C16.2897 21 21 16.2897 21 10.5C21 4.71028 16.2897 0 10.5 0ZM10.5 20.0156C5.25308 20.0156 0.984375 15.7469 0.984375 10.5C0.984375 5.25308 5.25308 0.984375 10.5 0.984375C15.7469 0.984375 20.0156 5.25308 20.0156 10.5C20.0156 15.7469 15.7469 20.0156 10.5 20.0156ZM15.4347 6.17285H5.56529C4.90518 6.17285 4.36812 6.70991 4.36812 7.37002V13.63C4.36812 14.2901 4.90514 14.8272 5.56529 14.8272H15.4347C16.0948 14.8272 16.6318 14.2901 16.6318 13.63V7.37002C16.6318 6.70991 16.0948 6.17285 15.4347 6.17285ZM14.6927 7.15723L10.5 10.4868L6.30722 7.15723H14.6927ZM15.4347 13.8428H5.56529C5.44798 13.8428 5.3525 13.7473 5.3525 13.63V7.65606L10.1939 11.5007C10.2835 11.5718 10.3918 11.6074 10.5 11.6074C10.6082 11.6074 10.7164 11.5719 10.806 11.5007L15.6475 7.65606V13.63C15.6475 13.7473 15.552 13.8428 15.4347 13.8428Z" fill="#23780E"/>
</svg>
