<svg width="32" height="32" viewBox="0 0 32 32" fill="none" xmlns="http://www.w3.org/2000/svg">
<path fill-rule="evenodd" clip-rule="evenodd" d="M16 0C24.8366 0 32 7.16344 32 16C32 24.8366 24.8366 32 16 32C7.16344 32 0 24.8366 0 16C0 7.16344 7.16344 0 16 0ZM24.8866 21.1413V11.3166L19.9741 16.2291L24.8866 21.1416V21.1413ZM8.46875 21.5812H23.5312L19.0766 17.1269L17.345 18.8581C17.2259 18.9772 17.0644 19.0441 16.8961 19.0441H15.1038C15.0204 19.0441 14.9379 19.0277 14.8608 18.9958C14.7838 18.9639 14.7138 18.9171 14.6548 18.8581L12.9236 17.1269L8.46875 21.5812ZM7.113 11.3162V21.1413L12.0255 16.2288L7.113 11.3162ZM23.9889 10.4187H8.01094L15.3666 17.7744H16.6332L23.9889 10.4187ZM25.2788 9.14919H6.72125C6.48859 9.1495 6.26554 9.24208 6.10104 9.40661C5.93654 9.57115 5.84401 9.79421 5.84375 10.0269V22.2161C5.84374 22.2994 5.86016 22.382 5.89205 22.459C5.92395 22.536 5.97071 22.6059 6.02965 22.6649C6.0886 22.7238 6.15858 22.7705 6.23559 22.8024C6.31261 22.8343 6.39515 22.8507 6.4785 22.8507H25.5216C25.6899 22.8506 25.8513 22.7837 25.9703 22.6647C26.0893 22.5457 26.1562 22.3844 26.1562 22.2161V10.0269C26.1559 9.79425 26.0634 9.57125 25.8989 9.40675C25.7344 9.24225 25.5114 9.14968 25.2788 9.14931V9.14919Z" fill="#123498"/>
</svg>
