<svg width="84" height="84" viewBox="0 0 84 84" fill="none" xmlns="http://www.w3.org/2000/svg">
<circle cx="42.1733" cy="41.8818" r="41.7046" fill="#123498"/>
<path d="M24.8737 33.311C24.2507 32.8959 23.877 32.1975 23.877 31.4494V31.4475C23.877 30.1249 24.9492 29.0528 26.2718 29.0528H57.4225C58.7451 29.0528 59.8173 30.1249 59.8173 31.4475V31.4487V31.4494C59.8173 32.1975 59.4436 32.8959 58.8206 33.311C55.7807 35.3381 46.6206 41.4443 43.1763 43.741C42.3713 44.2777 41.323 44.2777 40.518 43.741C37.0737 41.4443 27.9137 35.3381 24.8737 33.311Z" stroke="white" stroke-width="1.5568" stroke-miterlimit="10" stroke-linecap="round" stroke-linejoin="round"/>
<path d="M23.877 31.4486V53.0129C23.877 53.6484 24.1291 54.2576 24.579 54.7068C25.0282 55.1567 25.6374 55.4089 26.273 55.4089H57.4213C58.0568 55.4089 58.666 55.1567 59.1153 54.7068C59.5651 54.2576 59.8173 53.6484 59.8173 53.0129V31.4486" stroke="white" stroke-width="1.5568" stroke-miterlimit="10" stroke-linecap="round" stroke-linejoin="round"/>
</svg>
