<svg width="81" height="78" viewBox="0 0 81 78" fill="none" xmlns="http://www.w3.org/2000/svg">
<path d="M80.6736 33.1664C80.6736 56.4451 53.4803 70.7839 26.2868 77.5823C3.00816 77.5823 8.15791 69.3911 4.98535 37.2122C4.98535 13.9335 10.2597 5.51978 33.5384 5.51978C56.8171 5.51978 71.6092 10.5052 80.6736 33.1664Z" fill="white"/>
<path d="M57.2397 6.68068C64.8447 10.688 70.7363 17.4796 75.2349 28.6881C75.2011 40.0868 68.534 49.3425 58.4276 56.6213C48.3075 63.9098 34.794 69.1715 21.2457 72.5636C15.4665 72.5603 11.5225 72.0458 8.78367 70.8205C6.0768 69.6095 4.51687 67.6898 3.54101 64.7558C2.55321 61.786 2.17325 57.8046 1.84558 52.5021C1.77288 51.3256 1.70279 50.0858 1.62899 48.7803C1.37164 44.2281 1.06913 38.8769 0.453226 32.6245C0.454918 20.9956 1.78393 13.2356 5.89348 8.36327C9.98541 3.51183 16.9418 1.40757 28.5531 1.40757C40.1709 1.40757 49.5982 2.65405 57.2397 6.68068Z" stroke="white" stroke-width="0.906447"/>
<path d="M52.9746 53.0223C52.2527 53.0228 51.5468 52.8092 50.9462 52.4085C50.3457 52.0078 49.8775 51.438 49.6008 50.7711C49.3242 50.1043 49.2515 49.3704 49.3921 48.6622C49.5326 47.9541 49.88 47.3035 50.3903 46.7928C50.9006 46.2821 51.5509 45.9343 52.259 45.7932C52.967 45.6522 53.701 45.7243 54.368 46.0005C55.0351 46.2766 55.6052 46.7444 56.0064 47.3447C56.4075 47.9449 56.6217 48.6506 56.6217 49.3726C56.6212 50.3399 56.2369 51.2676 55.5531 51.9519C54.8693 52.6361 53.942 53.0211 52.9746 53.0223ZM52.9746 47.0543C52.516 47.0537 52.0675 47.1893 51.6859 47.4437C51.3043 47.6981 51.0067 48.06 50.8309 48.4836C50.655 48.9071 50.6087 49.3734 50.6978 49.8232C50.787 50.2731 51.0076 50.6865 51.3317 51.011C51.6558 51.3355 52.0689 51.5565 52.5187 51.6462C52.9685 51.7359 53.4348 51.6901 53.8585 51.5147C54.2823 51.3393 54.6445 51.0422 54.8994 50.6609C55.1543 50.2796 55.2903 49.8312 55.2903 49.3726C55.2901 48.7583 55.0461 48.1691 54.612 47.7345C54.1778 47.2998 53.5889 47.0552 52.9746 47.0543Z" fill="#363636"/>
<path d="M33.7402 53.0223C33.0182 53.023 32.3122 52.8095 31.7115 52.4089C31.1109 52.0083 30.6425 51.4386 30.3658 50.7717C30.089 50.1049 30.0162 49.371 30.1566 48.6628C30.297 47.9545 30.6444 47.3039 31.1546 46.7931C31.6649 46.2824 32.3152 45.9344 33.0233 45.7933C33.7313 45.6522 34.4654 45.7242 35.1325 46.0004C35.7996 46.2765 36.3698 46.7443 36.771 47.3446C37.1722 47.9448 37.3863 48.6506 37.3863 49.3726C37.3856 50.3397 37.0013 51.2671 36.3178 51.9513C35.6343 52.6355 34.7073 53.0206 33.7402 53.0223ZM33.7402 47.0543C33.2815 47.0536 32.8329 47.1889 32.4512 47.4432C32.0695 47.6976 31.7718 48.0594 31.5958 48.4829C31.4198 48.9065 31.3733 49.3728 31.4624 49.8227C31.5514 50.2726 31.772 50.6861 32.096 51.0106C32.4201 51.3352 32.8332 51.5564 33.283 51.6461C33.7328 51.7359 34.1991 51.6902 34.623 51.5148C35.0468 51.3394 35.4091 51.0423 35.664 50.661C35.9189 50.2796 36.0549 49.8313 36.0549 49.3726C36.0545 48.7585 35.8106 48.1696 35.3767 47.7351C34.9428 47.3005 34.3543 47.0557 33.7402 47.0543Z" fill="#363636"/>
<path d="M57.7759 50.0384H55.9555C55.779 50.0384 55.6097 49.9683 55.4848 49.8435C55.36 49.7186 55.2898 49.5493 55.2898 49.3728C55.2898 49.1962 55.36 49.0269 55.4848 48.9021C55.6097 48.7772 55.779 48.7071 55.9555 48.7071H57.5878V45.1772C57.5873 44.7 57.4651 44.2307 57.2327 43.8139L53.6292 37.3533C53.5984 37.2981 53.5535 37.2522 53.499 37.2202C53.4446 37.1882 53.3826 37.1714 53.3194 37.1713H48.4085V48.7098H49.9937C50.1703 48.7098 50.3396 48.7799 50.4644 48.9047C50.5893 49.0296 50.6594 49.1989 50.6594 49.3754C50.6594 49.552 50.5893 49.7213 50.4644 49.8461C50.3396 49.971 50.1703 50.0411 49.9937 50.0411H47.7428C47.5663 50.0411 47.397 49.971 47.2721 49.8461C47.1473 49.7213 47.0771 49.552 47.0771 49.3754V36.5056C47.0771 36.3291 47.1473 36.1598 47.2721 36.0349C47.397 35.9101 47.5663 35.84 47.7428 35.84H53.3194C53.6198 35.8398 53.9147 35.9199 54.1737 36.0719C54.4327 36.2238 54.6464 36.4422 54.7928 36.7045L58.3955 43.166C58.738 43.781 58.9179 44.4732 58.9182 45.1772V48.8961C58.9178 49.199 58.7973 49.4892 58.5831 49.7034C58.369 49.9175 58.0787 50.038 57.7759 50.0384Z" fill="#363636"/>
<path d="M30.7601 50.0383H24.3776C24.201 50.0383 24.0317 49.9681 23.9069 49.8433C23.782 49.7185 23.7119 49.5491 23.7119 49.3726V44.2531C23.7119 44.0765 23.782 43.9072 23.9069 43.7824C24.0317 43.6575 24.201 43.5874 24.3776 43.5874C24.5541 43.5874 24.7235 43.6575 24.8483 43.7824C24.9731 43.9072 25.0433 44.0765 25.0433 44.2531V48.7069H30.7601C30.9367 48.7069 31.106 48.777 31.2308 48.9019C31.3557 49.0267 31.4258 49.196 31.4258 49.3726C31.4258 49.5491 31.3557 49.7185 31.2308 49.8433C31.106 49.9681 30.9367 50.0383 30.7601 50.0383Z" fill="#363636"/>
<path d="M24.3776 41.8915C24.201 41.8915 24.0317 41.8214 23.9069 41.6965C23.782 41.5717 23.7119 41.4024 23.7119 41.2258V36.756C23.7119 36.5795 23.782 36.4101 23.9069 36.2853C24.0317 36.1605 24.201 36.0903 24.3776 36.0903C24.5541 36.0903 24.7235 36.1605 24.8483 36.2853C24.9731 36.4101 25.0433 36.5795 25.0433 36.756V41.2285C25.0426 41.4046 24.9721 41.5732 24.8474 41.6975C24.7226 41.8217 24.5537 41.8915 24.3776 41.8915Z" fill="#363636"/>
<path d="M47.7429 50.0384H36.7219C36.5454 50.0384 36.3761 49.9683 36.2512 49.8435C36.1264 49.7186 36.0563 49.5493 36.0563 49.3728C36.0563 49.1962 36.1264 49.0269 36.2512 48.9021C36.3761 48.7772 36.5454 48.7071 36.7219 48.7071H47.0772V31.2921H25.0433V34.0338C25.0433 34.2103 24.9731 34.3796 24.8483 34.5045C24.7235 34.6293 24.5541 34.6994 24.3776 34.6994C24.201 34.6994 24.0317 34.6293 23.9069 34.5045C23.782 34.3796 23.7119 34.2103 23.7119 34.0338V31.1696C23.7124 30.8489 23.84 30.5416 24.0668 30.315C24.2936 30.0883 24.6011 29.9609 24.9217 29.9607H47.1997C47.5202 29.9612 47.8274 30.0887 48.054 30.3153C48.2806 30.5419 48.4081 30.8491 48.4086 31.1696V49.3728C48.4086 49.5493 48.3385 49.7186 48.2136 49.8435C48.0888 49.9683 47.9195 50.0384 47.7429 50.0384Z" fill="#363636"/>
<path d="M27.009 44.9188H18.5602C18.3837 44.9188 18.2143 44.8487 18.0895 44.7238C17.9647 44.599 17.8945 44.4297 17.8945 44.2531C17.8945 44.0766 17.9647 43.9073 18.0895 43.7824C18.2143 43.6576 18.3837 43.5875 18.5602 43.5875H27.009C27.1856 43.5875 27.3549 43.6576 27.4797 43.7824C27.6045 43.9073 27.6747 44.0766 27.6747 44.2531C27.6747 44.4297 27.6045 44.599 27.4797 44.7238C27.3549 44.8487 27.1856 44.9188 27.009 44.9188Z" fill="#363636"/>
<path d="M33.7424 41.8914H21.9528C21.7762 41.8914 21.6069 41.8213 21.4821 41.6964C21.3572 41.5716 21.2871 41.4023 21.2871 41.2257C21.2871 41.0492 21.3572 40.8799 21.4821 40.755C21.6069 40.6302 21.7762 40.5601 21.9528 40.5601H33.7424C33.9189 40.5601 34.0883 40.6302 34.2131 40.755C34.3379 40.8799 34.4081 41.0492 34.4081 41.2257C34.4081 41.4023 34.3379 41.5716 34.2131 41.6964C34.0883 41.8213 33.9189 41.8914 33.7424 41.8914Z" fill="#363636"/>
<path d="M21.5849 38.3765H16.9811C16.8046 38.3765 16.6352 38.3064 16.5104 38.1815C16.3856 38.0567 16.3154 37.8874 16.3154 37.7108C16.3154 37.5343 16.3856 37.365 16.5104 37.2401C16.6352 37.1153 16.8046 37.0452 16.9811 37.0452H21.5849C21.7615 37.0452 21.9308 37.1153 22.0556 37.2401C22.1805 37.365 22.2506 37.5343 22.2506 37.7108C22.2506 37.8874 22.1805 38.0567 22.0556 38.1815C21.9308 38.3064 21.7615 38.3765 21.5849 38.3765Z" fill="#363636"/>
<path d="M28.9664 34.6992H20.8398C20.6632 34.6992 20.4939 34.6291 20.369 34.5042C20.2442 34.3794 20.1741 34.2101 20.1741 34.0335C20.1741 33.857 20.2442 33.6877 20.369 33.5628C20.4939 33.438 20.6632 33.3679 20.8398 33.3679H28.9664C29.1429 33.3679 29.3122 33.438 29.4371 33.5628C29.5619 33.6877 29.632 33.857 29.632 34.0335C29.632 34.2101 29.5619 34.3794 29.4371 34.5042C29.3122 34.6291 29.1429 34.6992 28.9664 34.6992Z" fill="#363636"/>
</svg>
