<svg width="157" height="143" viewBox="0 0 157 143" fill="none" xmlns="http://www.w3.org/2000/svg">
<g filter="url(#filter0_d_0_1089)">
<path d="M34.6338 75.0051C34.6338 51.675 53.5466 32.7622 76.8766 32.7622H85.5892C106.149 32.7622 122.816 49.4291 122.816 69.9887C122.816 90.5484 106.149 107.215 85.5892 107.215H34.6338V75.0051Z" fill="#123498"/>
</g>
<path d="M102.55 70.9296L101.129 65.2457C101.518 65.1632 101.809 64.8186 101.809 64.4056V63.4892C101.809 61.4995 100.19 59.8807 98.2006 59.8807H91.7283V57.9905C91.7283 57.0113 90.9318 56.2148 89.9527 56.2148H56.9608C55.9817 56.2148 55.1852 57.0113 55.1852 57.9905V73.57C55.1852 73.7978 55.2757 74.0164 55.4369 74.1775C55.598 74.3386 55.8165 74.4292 56.0444 74.4292C56.2723 74.4292 56.4908 74.3386 56.652 74.1775C56.8131 74.0164 56.9036 73.7978 56.9036 73.57V57.9905C56.9036 57.9588 56.9292 57.9332 56.9608 57.9332H89.9526C89.9842 57.9332 90.0098 57.9588 90.0098 57.9905V73.5702C90.0098 73.7981 90.1003 74.0166 90.2615 74.1777C90.4226 74.3389 90.6411 74.4294 90.869 74.4294C91.0969 74.4294 91.3154 74.3389 91.4765 74.1777C91.6377 74.0166 91.7282 73.7981 91.7282 73.5702V72.5962H101.863L101.866 72.5964L101.868 72.5963C103.115 72.5972 104.174 73.4157 104.538 74.5437H101.866C101.638 74.5437 101.42 74.6342 101.259 74.7954C101.098 74.9565 101.007 75.175 101.007 75.4029V77.2358C101.007 78.7202 102.215 79.9278 103.699 79.9278H104.673V83.7081H102.426C101.688 81.5772 99.6626 80.0423 97.284 80.0423C94.9053 80.0423 92.8795 81.5772 92.1417 83.7081H91.728V77.2357C91.728 77.0078 91.6375 76.7892 91.4763 76.6281C91.3152 76.467 91.0967 76.3765 90.8688 76.3765C90.6409 76.3765 90.4224 76.467 90.2613 76.6281C90.1001 76.7892 90.0096 77.0078 90.0096 77.2357V83.7078H72.184C71.446 81.577 69.4204 80.042 67.0417 80.042C64.663 80.042 62.6373 81.577 61.8994 83.7078H56.9608C56.9457 83.7078 56.9311 83.7018 56.9204 83.6911C56.9096 83.6803 56.9036 83.6658 56.9036 83.6506V81.7604H60.6266C60.8545 81.7604 61.073 81.6699 61.2342 81.5088C61.3953 81.3476 61.4858 81.1291 61.4858 80.9012C61.4858 80.6734 61.3953 80.4548 61.2342 80.2937C61.073 80.1326 60.8545 80.042 60.6266 80.042H52.3787C52.1509 80.042 51.9323 80.1326 51.7712 80.2937C51.6101 80.4548 51.5195 80.6734 51.5195 80.9012C51.5195 81.1291 51.6101 81.3476 51.7712 81.5088C51.9323 81.6699 52.1509 81.7604 52.3787 81.7604H55.1853V83.6506C55.1853 84.6297 55.9818 85.4262 56.9609 85.4262H61.6019C61.6017 85.4453 61.6004 85.4643 61.6004 85.4835C61.6004 88.4838 64.0414 90.9248 67.0417 90.9248C70.042 90.9248 72.483 88.4838 72.483 85.4835C72.483 85.4642 72.4817 85.4453 72.4815 85.4262H91.8442C91.8439 85.4453 91.8427 85.4643 91.8427 85.4835C91.8427 88.4838 94.2837 90.9248 97.284 90.9248C100.284 90.9248 102.725 88.4838 102.725 85.4835C102.725 85.4642 102.724 85.4453 102.724 85.4262H105.532C105.76 85.4262 105.978 85.3357 106.14 85.1746C106.301 85.0134 106.391 84.7949 106.391 84.567V75.4027C106.391 73.1401 104.722 71.2602 102.55 70.9296ZM91.7283 61.599H98.2006C99.2428 61.599 100.091 62.447 100.091 63.4892V63.5464H91.7283V61.599ZM91.7283 70.8779V65.2647H99.3627L100.766 70.8779H91.7283ZM67.0417 89.2067C64.9888 89.2067 63.3187 87.5367 63.3187 85.4837C63.3187 83.4307 64.9888 81.7606 67.0417 81.7606C69.0946 81.7606 70.7647 83.4307 70.7647 85.4837C70.7647 87.5367 69.0946 89.2067 67.0417 89.2067ZM97.2842 89.2067C95.2313 89.2067 93.5611 87.5367 93.5611 85.4837C93.5611 83.4307 95.2313 81.7606 97.2842 81.7606C99.337 81.7606 101.007 83.4307 101.007 85.4837C101.007 87.5367 99.337 89.2067 97.2842 89.2067ZM104.673 78.2094H103.699C103.162 78.2094 102.725 77.7726 102.725 77.2357V76.2619H104.673V78.2094H104.673Z" fill="white"/>
<path d="M67.0409 83.7081C66.0618 83.7081 65.2653 84.5046 65.2653 85.4837C65.2653 86.4628 66.0618 87.2593 67.0409 87.2593C68.02 87.2593 68.8165 86.4628 68.8165 85.4837C68.8165 84.5046 68.02 83.7081 67.0409 83.7081ZM97.2834 83.7081C96.3043 83.7081 95.5078 84.5046 95.5078 85.4837C95.5078 86.4628 96.3043 87.2593 97.2834 87.2593C98.2625 87.2593 99.059 86.4628 99.059 85.4837C99.059 84.5046 98.2625 83.7081 97.2834 83.7081ZM87.2025 80.0424H74.3724C74.1445 80.0424 73.926 80.1329 73.7648 80.2941C73.6037 80.4552 73.5132 80.6737 73.5132 80.9016C73.5132 81.1295 73.6037 81.348 73.7648 81.5092C73.926 81.6703 74.1445 81.7608 74.3724 81.7608H87.2025C87.4304 81.7608 87.6489 81.6703 87.8101 81.5092C87.9712 81.348 88.0617 81.1295 88.0617 80.9016C88.0617 80.6737 87.9712 80.4552 87.8101 80.2941C87.6489 80.1329 87.4304 80.0424 87.2025 80.0424ZM65.208 76.3766H54.2108C53.9829 76.3766 53.7643 76.4671 53.6032 76.6283C53.4421 76.7894 53.3516 77.0079 53.3516 77.2358C53.3516 77.4637 53.4421 77.6822 53.6032 77.8434C53.7643 78.0045 53.9829 78.095 54.2108 78.095H65.208C65.4359 78.095 65.6545 78.0045 65.8156 77.8434C65.9767 77.6822 66.0672 77.4637 66.0672 77.2358C66.0672 77.0079 65.9767 76.7894 65.8156 76.6283C65.6545 76.4671 65.4359 76.3766 65.208 76.3766ZM81.395 64.7144C81.2339 64.5534 81.0153 64.4629 80.7875 64.4629C80.5596 64.4629 80.3411 64.5534 80.18 64.7146L72.5395 72.3549L68.5649 68.3802C68.4851 68.3005 68.3904 68.2372 68.2861 68.194C68.1819 68.1508 68.0702 68.1286 67.9574 68.1286C67.8445 68.1286 67.7328 68.1508 67.6286 68.194C67.5243 68.2372 67.4296 68.3005 67.3499 68.3802C67.2701 68.46 67.2068 68.5547 67.1636 68.659C67.1204 68.7632 67.0982 68.8749 67.0982 68.9877C67.0982 69.1006 67.1204 69.2123 67.1636 69.3165C67.2068 69.4208 67.2701 69.5155 67.3499 69.5952L71.9321 74.1775C72.0998 74.3453 72.3197 74.4291 72.5395 74.4291C72.7593 74.4291 72.9794 74.3453 73.147 74.1775L81.3949 65.9296C81.556 65.7684 81.6465 65.5499 81.6466 65.322C81.6466 65.0942 81.5561 64.8756 81.395 64.7144Z" fill="white"/>
<defs>
<filter id="filter0_d_0_1089" x="0.311471" y="0.0239954" width="155.771" height="142.042" filterUnits="userSpaceOnUse" color-interpolation-filters="sRGB">
<feFlood flood-opacity="0" result="BackgroundImageFix"/>
<feColorMatrix in="SourceAlpha" type="matrix" values="0 0 0 0 0 0 0 0 0 0 0 0 0 0 0 0 0 0 127 0" result="hardAlpha"/>
<feMorphology radius="2.11214" operator="dilate" in="SourceAlpha" result="effect1_dropShadow_0_1089"/>
<feOffset dx="-0.528036" dy="1.05607"/>
<feGaussianBlur stdDeviation="15.8411"/>
<feComposite in2="hardAlpha" operator="out"/>
<feColorMatrix type="matrix" values="0 0 0 0 0 0 0 0 0 0 0 0 0 0 0 0 0 0 0.05 0"/>
<feBlend mode="normal" in2="BackgroundImageFix" result="effect1_dropShadow_0_1089"/>
<feBlend mode="normal" in="SourceGraphic" in2="effect1_dropShadow_0_1089" result="shape"/>
</filter>
</defs>
</svg>
