<svg width="121" height="121" viewBox="0 0 121 121" fill="none" xmlns="http://www.w3.org/2000/svg">
<circle cx="60.5" cy="60.5" r="60.5" fill="white"/>
<path d="M45.2504 55.9767C44.9807 55.9767 44.7221 55.8696 44.5315 55.6789C44.3408 55.4883 44.2337 55.2297 44.2337 54.96V51.2777C44.2337 50.9584 44.3821 50.6595 44.6363 50.4684C45.6733 49.6835 46.267 48.5042 46.267 47.2334V44.1834C46.267 41.9406 44.4431 40.1167 42.2004 40.1167C39.9576 40.1167 38.1337 41.9406 38.1337 44.1834V47.2334C38.1337 48.5042 38.7274 49.6835 39.7644 50.4684C39.8898 50.5632 39.9914 50.6858 40.0613 50.8266C40.1311 50.9674 40.1673 51.1225 40.167 51.2797V54.9621C40.1669 55.0956 40.1405 55.2278 40.0893 55.3511C40.038 55.4743 39.963 55.5863 39.8685 55.6807C39.774 55.775 39.6619 55.8497 39.5385 55.9007C39.4151 55.9517 39.2829 55.9778 39.1493 55.9777C39.0158 55.9776 38.8837 55.9512 38.7604 55.8999C38.6371 55.8487 38.5251 55.7737 38.4308 55.6792C38.3364 55.5847 38.2617 55.4726 38.2107 55.3492C38.1597 55.2258 38.1336 55.0935 38.1337 54.96V51.7575C37.4934 51.1907 36.981 50.4942 36.6304 49.7142C36.2798 48.9342 36.0992 48.0885 36.1004 47.2334V44.1834C36.1004 40.8202 38.8372 38.0834 42.2004 38.0834C45.5635 38.0834 48.3004 40.8202 48.3004 44.1834V47.2334C48.3004 48.9739 47.5663 50.5945 46.267 51.7575V54.96C46.267 55.2297 46.1599 55.4883 45.9693 55.6789C45.7786 55.8696 45.52 55.9767 45.2504 55.9767Z" fill="#23780E"/>
<path d="M43.2228 53.2317C42.9725 53.2291 42.732 53.1343 42.5472 52.9654C42.3625 52.7965 42.2466 52.5654 42.2217 52.3164C42.1967 52.0673 42.2646 51.8178 42.4121 51.6157C42.5597 51.4135 42.7767 51.2729 43.0215 51.2207C43.9371 51.028 44.7589 50.5269 45.3495 49.8012C45.9402 49.0755 46.2639 48.1691 46.2667 47.2334C46.2667 46.9637 46.3738 46.7051 46.5644 46.5145C46.7551 46.3238 47.0137 46.2167 47.2833 46.2167C47.553 46.2167 47.8116 46.3238 48.0022 46.5145C48.1929 46.7051 48.3 46.9637 48.3 47.2334C48.296 48.637 47.8099 49.9967 46.9229 51.0846C46.036 52.1725 44.8022 52.9226 43.4281 53.2093C43.3606 53.2238 43.2918 53.2313 43.2228 53.2317ZM49.0605 57.5708C48.9226 57.5711 48.7862 57.5427 48.6599 57.4875L44.8494 55.8506C44.6054 55.7419 44.414 55.5415 44.3166 55.2927C44.2192 55.044 44.2236 54.7669 44.3289 54.5214C44.4342 54.2759 44.6318 54.0817 44.8791 53.9807C45.1265 53.8798 45.4036 53.8802 45.6506 53.982L49.461 55.6188C49.6768 55.7107 49.8541 55.8744 49.963 56.0821C50.0719 56.2898 50.1056 56.5288 50.0585 56.7585C50.0114 56.9883 49.8862 57.1946 49.7043 57.3427C49.5225 57.4907 49.295 57.5713 49.0605 57.5708ZM36.1 69.8786C35.9547 69.879 35.8111 69.8477 35.6791 69.7871L31.7873 68.0181C31.2551 67.7744 30.8038 67.3832 30.4871 66.891C30.1703 66.3987 30.0013 65.8259 30 65.2406V62.4224C30 59.5716 31.6877 57.0096 34.2985 55.8954L38.7454 53.9657C38.8684 53.9084 39.0018 53.8763 39.1375 53.8713C39.2732 53.8663 39.4085 53.8885 39.5354 53.9367C39.6624 53.9849 39.7784 54.058 39.8766 54.1517C39.9749 54.2454 40.0533 54.3579 40.1074 54.4825C40.1615 54.607 40.19 54.7412 40.1914 54.8769C40.1928 55.0127 40.1669 55.1474 40.1154 55.273C40.0639 55.3987 39.9877 55.5127 39.8914 55.6084C39.7951 55.7041 39.6806 55.7796 39.5546 55.8303L35.1037 57.762C34.1912 58.152 33.4136 58.8018 32.8677 59.6305C32.3218 60.4591 32.0316 61.43 32.0333 62.4224V65.2406C32.0333 65.6371 32.2672 66.0031 32.6291 66.1678L36.5209 67.9368C36.7321 68.033 36.9041 68.1986 37.0081 68.4061C37.1122 68.6136 37.1421 68.8504 37.093 69.0773C37.0438 69.3041 36.9185 69.5073 36.7378 69.6531C36.5572 69.7989 36.3321 69.8785 36.1 69.8786ZM46.1426 46.0337C44.0998 46.0275 42.1221 45.3148 40.5449 44.0166C40.3354 43.8476 40.2015 43.6025 40.1726 43.3349C40.1436 43.0673 40.2219 42.7992 40.3903 42.5892C40.5597 42.3795 40.8054 42.2456 41.0735 42.217C41.3415 42.1884 41.61 42.2675 41.8198 42.4367C43.1252 43.488 44.6746 44.0553 46.2626 44.0004C46.214 42.9551 45.7649 41.9686 45.0085 41.2455C44.2521 40.5224 43.2464 40.1182 42.2 40.1167C39.9572 40.1167 38.1333 41.9406 38.1333 44.1834V44.9357C38.1333 45.2053 38.0262 45.4639 37.8356 45.6546C37.6449 45.8453 37.3863 45.9524 37.1167 45.9524C36.847 45.9524 36.5884 45.8453 36.3978 45.6546C36.2071 45.4639 36.1 45.2053 36.1 44.9357V44.1834C36.1 40.8202 38.8369 38.0834 42.2 38.0834C45.5631 38.0834 48.3 40.8202 48.3 44.1834V44.895C48.3001 45.1369 48.214 45.3709 48.0571 45.555C47.9002 45.7392 47.6828 45.8613 47.444 45.8995C47.0145 45.9791 46.5793 46.024 46.1426 46.0337ZM81.85 55.9767C81.5803 55.9767 81.3218 55.8696 81.1311 55.6789C80.9404 55.4883 80.8333 55.2297 80.8333 54.96V51.2777C80.8333 50.9584 80.9817 50.6595 81.2359 50.4684C82.2729 49.6835 82.8666 48.5042 82.8666 47.2334V44.1834C82.8666 41.9406 81.0427 40.1167 78.8 40.1167C76.5572 40.1167 74.7333 41.9406 74.7333 44.1834V47.2334C74.7333 48.5042 75.327 49.6835 76.364 50.4684C76.4894 50.5632 76.591 50.6858 76.6609 50.8266C76.7308 50.9674 76.767 51.1225 76.7667 51.2797V54.9621C76.7667 55.2317 76.6595 55.4903 76.4689 55.681C76.2782 55.8716 76.0196 55.9787 75.75 55.9787C75.4803 55.9787 75.2218 55.8716 75.0311 55.681C74.8404 55.4903 74.7333 55.2317 74.7333 54.9621V51.7596C74.093 51.1927 73.5806 50.4962 73.23 49.7162C72.8795 48.9362 72.6988 48.0906 72.7 47.2354V44.1854C72.7 40.8223 75.4369 38.0854 78.8 38.0854C82.1631 38.0854 84.9 40.8223 84.9 44.1854V47.2354C84.9 48.9759 84.1659 50.5965 82.8666 51.7596V54.9621C82.8661 55.2313 82.7588 55.4894 82.5682 55.6796C82.3776 55.8699 82.1193 55.9767 81.85 55.9767Z" fill="#23780E"/>
<path d="M79.8229 53.2318C79.5726 53.2292 79.3321 53.1343 79.1474 52.9654C78.9627 52.7966 78.8468 52.5655 78.8218 52.3164C78.7969 52.0674 78.8647 51.8179 79.0123 51.6157C79.1599 51.4136 79.3768 51.2729 79.6216 51.2208C80.5373 51.0281 81.359 50.527 81.9497 49.8013C82.5403 49.0755 82.8641 48.1691 82.8668 47.2334C82.8668 46.9638 82.9739 46.7052 83.1646 46.5145C83.3553 46.3239 83.6138 46.2168 83.8835 46.2168C84.1531 46.2168 84.4117 46.3239 84.6024 46.5145C84.793 46.7052 84.9001 46.9638 84.9001 47.2334C84.8962 48.6371 84.41 49.9967 83.5231 51.0846C82.6362 52.1726 81.4023 52.9227 80.0283 53.2094C79.9608 53.2239 79.892 53.2313 79.8229 53.2318ZM72.2386 57.4428C72.0028 57.4457 71.7734 57.3663 71.5897 57.2184C71.4061 57.0705 71.2797 56.8632 71.2323 56.6322C71.1849 56.4012 71.2194 56.1609 71.33 55.9526C71.4405 55.7443 71.6201 55.581 71.838 55.4908L75.3496 53.9821C75.5966 53.8803 75.8737 53.8799 76.121 53.9808C76.3683 54.0817 76.566 54.276 76.6712 54.5215C76.7765 54.767 76.7809 55.0441 76.6835 55.2928C76.5861 55.5415 76.3947 55.7419 76.1507 55.8507L72.6392 57.3594C72.5129 57.4148 72.3765 57.4432 72.2386 57.4428ZM84.9001 69.8787C84.6691 69.8764 84.4458 69.7958 84.2666 69.6499C84.0875 69.504 83.9633 69.3016 83.9143 69.0758C83.8654 68.85 83.8947 68.6143 83.9973 68.4074C84.1 68.2004 84.2699 68.0345 84.4792 67.9368L88.371 66.1678C88.5487 66.0865 88.6992 65.9559 88.8048 65.7915C88.9104 65.6272 88.9666 65.436 88.9668 65.2406V62.4224C88.9668 60.3891 87.7631 58.5611 85.9026 57.7661L81.4455 55.8304C81.1983 55.7227 81.0037 55.5215 80.9046 55.2707C80.8055 55.0199 80.8099 54.74 80.9169 54.4924C81.1405 53.976 81.7302 53.7401 82.2548 53.9658L86.7057 55.8975C87.9828 56.4437 89.0709 57.3536 89.8346 58.5139C90.5982 59.6741 91.0035 61.0334 91.0001 62.4224V65.2406C91.0001 66.4322 90.2986 67.522 89.2128 68.0181L85.3211 69.7872C85.1887 69.8469 85.0453 69.8781 84.9001 69.8787ZM63.1638 42.996C60.2724 42.996 57.2631 41.9773 55.6039 40.4848C55.5047 40.3956 55.424 40.2878 55.3665 40.1674C55.309 40.047 55.2758 39.9165 55.2687 39.7833C55.2616 39.6501 55.2808 39.5168 55.3253 39.391C55.3697 39.2653 55.4385 39.1495 55.5276 39.0503C55.6168 38.9511 55.7247 38.8704 55.845 38.8129C55.9654 38.7554 56.0959 38.7221 56.2291 38.7151C56.3623 38.708 56.4956 38.7272 56.6214 38.7716C56.7472 38.8161 56.863 38.8848 56.9622 38.974C58.967 40.7756 63.7698 41.717 66.5209 40.2408C66.6385 40.1776 66.7674 40.1383 66.9002 40.1249C67.0331 40.1116 67.1672 40.1246 67.295 40.1631C67.4229 40.2016 67.5419 40.2649 67.6452 40.3494C67.7486 40.4339 67.8343 40.538 67.8974 40.6556C67.9606 40.7732 67.9999 40.9021 68.0133 41.035C68.0266 41.1678 68.0136 41.302 67.9751 41.4298C67.9366 41.5576 67.8733 41.6766 67.7888 41.78C67.7043 41.8833 67.6002 41.969 67.4826 42.0322C66.2281 42.7011 64.7132 42.996 63.1638 42.996ZM60.4859 61.4668C57.1126 61.4668 55.3538 58.8356 54.8943 57.4428C54.8206 57.1903 54.8477 56.9192 54.9697 56.6863C55.0918 56.4534 55.2993 56.2768 55.5488 56.1936C55.7982 56.1105 56.0702 56.1272 56.3076 56.2403C56.545 56.3534 56.7293 56.5541 56.8219 56.8003C56.8646 56.9223 57.7653 59.4314 60.4859 59.4314C63.2289 59.4314 64.1947 56.845 64.2374 56.7352C64.3272 56.4809 64.5143 56.2727 64.7576 56.1564C64.8781 56.0988 65.0087 56.0655 65.142 56.0584C65.2754 56.0513 65.4088 56.0706 65.5347 56.115C65.6606 56.1595 65.7765 56.2283 65.8758 56.3176C65.9751 56.4068 66.0559 56.5148 66.1134 56.6352C66.171 56.7557 66.2043 56.8863 66.2114 57.0196C66.2185 57.153 66.1993 57.2864 66.1549 57.4123C66.0959 57.579 64.6909 61.4668 60.4859 61.4668Z" fill="#23780E"/>
<path d="M79.8163 69.6001C79.5467 69.6001 79.2881 69.493 79.0974 69.3024C78.9068 69.1117 78.7997 68.8531 78.7997 68.5835V68.0162C78.8012 66.5466 78.3472 65.1128 77.5002 63.9119C76.6533 62.711 75.4549 61.8021 74.0701 61.3103L65.5891 58.3009C64.9935 58.0927 64.4774 57.7046 64.112 57.1903C63.7467 56.6759 63.5502 56.0608 63.5497 55.4299V52.9289C63.5497 52.6592 63.6568 52.4006 63.8475 52.21C64.0381 52.0193 64.2967 51.9122 64.5663 51.9122C64.836 51.9122 65.0946 52.0193 65.2852 52.21C65.4759 52.4006 65.583 52.6592 65.583 52.9289V55.4299C65.583 55.8569 65.8575 56.2391 66.2642 56.3815L74.7472 59.3928C76.5287 60.0247 78.0704 61.1932 79.1603 62.7375C80.2502 64.2818 80.8345 66.126 80.833 68.0162V68.5855C80.8325 68.8548 80.7251 69.1129 80.5345 69.3031C80.3439 69.4933 80.0856 69.6001 79.8163 69.6001ZM41.183 69.6001C40.9134 69.6001 40.6548 69.493 40.4641 69.3024C40.2735 69.1117 40.1664 68.8531 40.1664 68.5835V68.0345C40.1664 67.4001 40.2335 66.7637 40.3656 66.1354C40.6969 64.6026 41.4127 63.1793 42.4457 61.9994C43.4787 60.8195 44.7949 59.9218 46.2704 59.3908L54.7331 56.4221C54.9318 56.3535 55.1042 56.2249 55.2265 56.054C55.3489 55.8832 55.4152 55.6786 55.4163 55.4685V52.9268C55.4163 52.6572 55.5235 52.3986 55.7141 52.2079C55.9048 52.0173 56.1634 51.9102 56.433 51.9102C56.7026 51.9102 56.9612 52.0173 57.1519 52.2079C57.3426 52.3986 57.4497 52.6572 57.4497 52.9268V55.4685C57.4484 56.1 57.2512 56.7156 56.8851 57.2302C56.5191 57.7449 56.0023 58.1332 55.4062 58.3416L46.9495 61.3082C45.8012 61.7211 44.7767 62.4195 43.9728 63.3376C43.1689 64.2557 42.6118 65.3634 42.3542 66.5562C42.2505 67.0442 42.1997 67.5424 42.1997 68.0345V68.5835C42.1997 68.8531 42.0926 69.1117 41.9019 69.3024C41.7112 69.493 41.4527 69.6001 41.183 69.6001Z" fill="#23780E"/>
<path d="M60.5002 55.3667C60.2306 55.3667 59.972 55.2595 59.7813 55.0689C59.5907 54.8782 59.4836 54.6196 59.4836 54.35C59.4836 54.0804 59.5907 53.8218 59.7813 53.6311C59.972 53.4404 60.2306 53.3333 60.5002 53.3333C62.6108 53.3333 66.6002 51.422 66.6002 44.1833V41.1333C66.6002 37.7702 63.8634 35.0333 60.5002 35.0333C57.1371 35.0333 54.4002 37.7702 54.4002 41.1333V44.1833C54.4002 47.6888 55.3376 50.3708 57.1086 51.9385C57.2129 52.0256 57.2986 52.1328 57.3607 52.2536C57.4228 52.3744 57.4601 52.5065 57.4703 52.6419C57.4805 52.7774 57.4635 52.9136 57.4202 53.0423C57.3769 53.1711 57.3083 53.2899 57.2183 53.3917C57.1283 53.4935 57.0189 53.5763 56.8964 53.635C56.7739 53.6938 56.6409 53.7274 56.5051 53.7339C56.3694 53.7404 56.2338 53.7197 56.1063 53.6729C55.9787 53.6261 55.8618 53.5542 55.7626 53.4614C54.2132 52.091 52.3669 49.3704 52.3669 44.1833V41.1333C52.3669 36.6478 56.0147 33 60.5002 33C64.9858 33 68.6336 36.6478 68.6336 41.1333V44.1833C68.6336 53.0304 63.3144 55.3667 60.5002 55.3667ZM75.9902 87.9C75.761 87.8995 75.5387 87.8216 75.3594 87.679C75.18 87.5364 75.0541 87.3373 75.0021 87.1141C74.9501 86.891 74.975 86.6568 75.0728 86.4495C75.1705 86.2423 75.3355 86.0741 75.5408 85.9724L80.5692 83.4816C80.7093 83.4123 80.8634 83.3763 81.0196 83.3763C81.1758 83.3763 81.3299 83.4123 81.47 83.4816L84.7559 85.1102L84.2211 81.4828C84.1986 81.3278 84.2122 81.1697 84.2609 81.0209C84.3096 80.8721 84.392 80.7365 84.5017 80.6247L87.0698 77.9997L83.4505 77.3836C83.2963 77.3569 83.1503 77.2951 83.0238 77.2031C82.8972 77.1111 82.7935 76.9913 82.7205 76.8529L81.0206 73.6036L79.3187 76.8529C79.2457 76.9913 79.142 77.1111 79.0154 77.2031C78.8889 77.2951 78.7429 77.3569 78.5888 77.3836L74.9715 77.9997L77.5375 80.6247C77.7219 80.8183 77.8225 81.0767 77.8177 81.344C77.8129 81.6113 77.7031 81.8659 77.5119 82.0528C77.3208 82.2396 77.0637 82.3437 76.7964 82.3424C76.5291 82.3412 76.2731 82.2347 76.0837 82.046L72.1614 78.0343C72.0312 77.9018 71.9399 77.7362 71.8974 77.5554C71.8549 77.3746 71.8628 77.1857 71.9202 77.0091C71.9777 76.8325 72.0825 76.6751 72.2233 76.554C72.364 76.4328 72.5353 76.3527 72.7185 76.3222L77.7531 75.4641L80.1219 70.942C80.2089 70.7787 80.3387 70.6421 80.4974 70.5469C80.656 70.4517 80.8376 70.4014 81.0227 70.4014C81.2077 70.4014 81.3893 70.4517 81.5479 70.5469C81.7066 70.6421 81.8364 70.7787 81.9234 70.942L84.2902 75.4641L89.3268 76.3222C89.5096 76.3533 89.6803 76.4338 89.8207 76.555C89.961 76.6762 90.0655 76.8335 90.1228 77.0098C90.1802 77.1861 90.1883 77.3748 90.1462 77.5553C90.1041 77.7359 90.0134 77.9015 89.8839 78.0343L86.3113 81.6841L87.0555 86.7349C87.0817 86.9184 87.0575 87.1056 86.9855 87.2764C86.9135 87.4473 86.7965 87.5953 86.6468 87.7048C86.497 87.8146 86.3197 87.8808 86.1346 87.8963C85.9494 87.9117 85.7636 87.8757 85.5976 87.7922L81.0227 85.525L76.4456 87.7922C76.3045 87.8638 76.1484 87.9007 75.9902 87.9ZM54.5548 93.4327C54.4086 93.4328 54.2642 93.4014 54.1313 93.3406C53.9984 93.2799 53.8802 93.1912 53.7847 93.0806C53.6892 92.9701 53.6186 92.8402 53.5778 92.6999C53.537 92.5596 53.5269 92.4121 53.5483 92.2676L54.4389 86.2021L50.1526 81.8183C50.0224 81.6858 49.9311 81.5202 49.8886 81.3394C49.8461 81.1587 49.854 80.9697 49.9114 80.7931C49.9689 80.6165 50.0737 80.4591 50.2145 80.338C50.3552 80.2169 50.5265 80.1367 50.7097 80.1062L56.7569 79.0774L59.5995 73.6463C59.9533 72.9753 61.0492 72.9753 61.403 73.6463L64.2456 79.0774L70.2928 80.1062C70.4755 80.1373 70.6463 80.2179 70.7866 80.3391C70.9269 80.4603 71.0314 80.6175 71.0888 80.7938C71.1462 80.9702 71.1543 81.1588 71.1121 81.3394C71.07 81.5199 70.9793 81.6855 70.8499 81.8183L66.5616 86.2021L67.4542 92.2676C67.4804 92.4511 67.4562 92.6383 67.3842 92.8091C67.3122 92.98 67.1952 93.128 67.0455 93.2375C66.8957 93.3473 66.7184 93.4135 66.5332 93.429C66.3481 93.4444 66.1623 93.4084 65.9963 93.3249L60.5002 90.6023L55.0062 93.3249C54.8661 93.3954 54.7115 93.4323 54.5548 93.4327ZM52.9627 81.7837L56.2445 85.1408C56.4661 85.3685 56.5698 85.6857 56.5251 85.9988L55.8419 90.6409L60.0488 88.5567C60.1886 88.4866 60.3428 88.4501 60.4992 88.4501C60.6556 88.4501 60.8098 88.4866 60.9496 88.5567L65.1545 90.6409L64.4713 85.9988C64.4489 85.8438 64.4625 85.6858 64.5112 85.5369C64.5598 85.3881 64.6422 85.2525 64.7519 85.1408L68.0358 81.7837L63.4059 80.9948C63.2517 80.9681 63.1057 80.9063 62.9792 80.8143C62.8526 80.7223 62.7489 80.6025 62.6759 80.4641L60.5002 76.3059L58.3246 80.4641C58.2516 80.6025 58.1478 80.7223 58.0213 80.8143C57.8947 80.9063 57.7488 80.9681 57.5946 80.9948L52.9627 81.7837ZM45.175 87.9C45.0184 87.8996 44.864 87.8634 44.7236 87.7942L40.1486 85.5271L35.5716 87.7963C35.4052 87.8789 35.2194 87.9143 35.0344 87.8988C34.8493 87.8833 34.672 87.8173 34.5218 87.7082C34.3715 87.599 34.254 87.4508 34.1821 87.2795C34.1102 87.1083 34.0865 86.9206 34.1137 86.7369L34.8579 81.6861L31.2853 78.0363C31.1551 77.9038 31.0638 77.7382 31.0213 77.5574C30.9788 77.3767 30.9867 77.1877 31.0441 77.0111C31.1016 76.8345 31.2064 76.6771 31.3472 76.556C31.4879 76.4349 31.6593 76.3547 31.8424 76.3242L36.879 75.4662L39.2478 70.944C39.3349 70.7807 39.4647 70.6442 39.6233 70.5489C39.782 70.4537 39.9636 70.4034 40.1486 70.4034C40.3336 70.4034 40.5152 70.4537 40.6739 70.5489C40.8325 70.6442 40.9623 70.7807 41.0494 70.944L43.4162 75.4662L48.4507 76.3242C48.6335 76.3554 48.8043 76.4359 48.9446 76.5571C49.0849 76.6783 49.1894 76.8355 49.2468 77.0118C49.3041 77.1882 49.3122 77.3768 49.2701 77.5574C49.228 77.7379 49.1373 77.9035 49.0078 78.0363L45.0855 82.046C44.8962 82.2347 44.6401 82.3412 44.3728 82.3424C44.1055 82.3437 43.8484 82.2396 43.6573 82.0528C43.4661 81.8659 43.3563 81.6113 43.3515 81.344C43.3467 81.0767 43.4474 80.8183 43.6317 80.6247L46.1978 77.9997L42.5805 77.3836C42.4262 77.3571 42.2801 77.2955 42.1535 77.2035C42.0269 77.1114 41.9232 76.9915 41.8505 76.8529L40.1506 73.6036L38.4487 76.8529C38.3758 76.9913 38.272 77.1111 38.1455 77.2031C38.0189 77.2951 37.8729 77.3569 37.7188 77.3836L34.0994 77.9997L36.6675 80.6247C36.8892 80.8525 36.9929 81.1696 36.9481 81.4828L36.4134 85.1102L39.7013 83.4816C39.8413 83.4123 39.9954 83.3763 40.1516 83.3763C40.3079 83.3763 40.462 83.4123 40.602 83.4816L45.6284 85.9724C45.8341 86.0743 45.9992 86.2428 46.0969 86.4504C46.1946 86.6581 46.2192 86.8927 46.1666 87.1161C46.1141 87.3395 45.9875 87.5386 45.8074 87.6809C45.6274 87.8232 45.4045 87.9004 45.175 87.9Z" fill="#23780E"/>
</svg>
