<svg width="22" height="21" viewBox="0 0 22 21" fill="none" xmlns="http://www.w3.org/2000/svg">
<mask id="path-1-inside-1_10_1613" fill="white">
<path d="M10.8455 20.2527C10.5367 20.2527 10.239 20.1408 10.007 19.9376C9.13074 19.1714 8.28592 18.4513 7.54055 17.8162L7.53674 17.8129C5.35145 15.9506 3.46437 14.3424 2.15137 12.7582C0.683639 10.9871 0 9.30786 0 7.4734C0 5.69108 0.611154 4.04677 1.72076 2.84316C2.84361 1.62532 4.38433 0.95459 6.05958 0.95459C7.31168 0.95459 8.45836 1.35044 9.46768 2.13106C9.97706 2.52509 10.4388 3.00733 10.8455 3.56983C11.2525 3.00733 11.714 2.52509 12.2236 2.13106C13.2329 1.35044 14.3796 0.95459 15.6317 0.95459C17.3068 0.95459 18.8477 1.62532 19.9705 2.84316C21.0801 4.04677 21.6911 5.69108 21.6911 7.4734C21.6911 9.30786 21.0076 10.9871 19.5399 12.758C18.2269 14.3424 16.34 15.9505 14.155 17.8126C13.4083 18.4487 12.5622 19.1699 11.6839 19.9379C11.4521 20.1408 11.1542 20.2527 10.8455 20.2527ZM6.05958 2.22522C4.74344 2.22522 3.53437 2.75049 2.65479 3.70437C1.76214 4.67265 1.27047 6.01114 1.27047 7.4734C1.27047 9.01627 1.84389 10.3961 3.12958 11.9474C4.37224 13.4469 6.2206 15.0221 8.36072 16.8459L8.36469 16.8492C9.11287 17.4869 9.96101 18.2097 10.8437 18.9816C11.7317 18.2082 12.5812 17.4842 13.3309 16.8456C15.4708 15.0217 17.319 13.4469 18.5617 11.9474C19.8472 10.3961 20.4206 9.01627 20.4206 7.4734C20.4206 6.01114 19.929 4.67265 19.0363 3.70437C18.1569 2.75049 16.9477 2.22522 15.6317 2.22522C14.6675 2.22522 13.7823 2.53171 13.0007 3.13608C12.3042 3.67491 11.819 4.35607 11.5345 4.83268C11.3882 5.07777 11.1307 5.22406 10.8455 5.22406C10.5604 5.22406 10.3029 5.07777 10.1566 4.83268C9.8723 4.35607 9.38709 3.67491 8.69037 3.13608C7.90876 2.53171 7.02356 2.22522 6.05958 2.22522Z"/>
</mask>
<path d="M10.8455 20.2527C10.5367 20.2527 10.239 20.1408 10.007 19.9376C9.13074 19.1714 8.28592 18.4513 7.54055 17.8162L7.53674 17.8129C5.35145 15.9506 3.46437 14.3424 2.15137 12.7582C0.683639 10.9871 0 9.30786 0 7.4734C0 5.69108 0.611154 4.04677 1.72076 2.84316C2.84361 1.62532 4.38433 0.95459 6.05958 0.95459C7.31168 0.95459 8.45836 1.35044 9.46768 2.13106C9.97706 2.52509 10.4388 3.00733 10.8455 3.56983C11.2525 3.00733 11.714 2.52509 12.2236 2.13106C13.2329 1.35044 14.3796 0.95459 15.6317 0.95459C17.3068 0.95459 18.8477 1.62532 19.9705 2.84316C21.0801 4.04677 21.6911 5.69108 21.6911 7.4734C21.6911 9.30786 21.0076 10.9871 19.5399 12.758C18.2269 14.3424 16.34 15.9505 14.155 17.8126C13.4083 18.4487 12.5622 19.1699 11.6839 19.9379C11.4521 20.1408 11.1542 20.2527 10.8455 20.2527ZM6.05958 2.22522C4.74344 2.22522 3.53437 2.75049 2.65479 3.70437C1.76214 4.67265 1.27047 6.01114 1.27047 7.4734C1.27047 9.01627 1.84389 10.3961 3.12958 11.9474C4.37224 13.4469 6.2206 15.0221 8.36072 16.8459L8.36469 16.8492C9.11287 17.4869 9.96101 18.2097 10.8437 18.9816C11.7317 18.2082 12.5812 17.4842 13.3309 16.8456C15.4708 15.0217 17.319 13.4469 18.5617 11.9474C19.8472 10.3961 20.4206 9.01627 20.4206 7.4734C20.4206 6.01114 19.929 4.67265 19.0363 3.70437C18.1569 2.75049 16.9477 2.22522 15.6317 2.22522C14.6675 2.22522 13.7823 2.53171 13.0007 3.13608C12.3042 3.67491 11.819 4.35607 11.5345 4.83268C11.3882 5.07777 11.1307 5.22406 10.8455 5.22406C10.5604 5.22406 10.3029 5.07777 10.1566 4.83268C9.8723 4.35607 9.38709 3.67491 8.69037 3.13608C7.90876 2.53171 7.02356 2.22522 6.05958 2.22522Z" fill="#23780E"/>
<path d="M10.007 19.9376L11.8938 17.7835L11.892 17.7819L10.007 19.9376ZM7.54055 17.8162L5.66149 19.9771L5.67231 19.9865L5.68322 19.9958L7.54055 17.8162ZM7.53674 17.8129L9.4158 15.652L9.40501 15.6426L9.39413 15.6333L7.53674 17.8129ZM2.15137 12.7582L-0.0535273 14.5854L-0.0534562 14.5855L2.15137 12.7582ZM1.72076 2.84316L-0.384575 0.902038L-0.384677 0.902148L1.72076 2.84316ZM9.46768 2.13106L11.2198 -0.133988L11.2196 -0.134151L9.46768 2.13106ZM10.8455 3.56983L8.52509 5.24788L10.8451 8.45604L13.1657 5.24833L10.8455 3.56983ZM12.2236 2.13106L13.9754 4.39638L13.9755 4.39627L12.2236 2.13106ZM19.9705 2.84316L22.0759 0.902148L22.0758 0.902038L19.9705 2.84316ZM19.5399 12.758L17.3351 10.9306L17.335 10.9308L19.5399 12.758ZM14.155 17.8126L16.0121 19.9924L16.0125 19.9921L14.155 17.8126ZM11.6839 19.9379L9.79881 17.7823L9.7981 17.7829L11.6839 19.9379ZM2.65479 3.70437L0.549558 1.76313L0.549339 1.76337L2.65479 3.70437ZM3.12958 11.9474L5.33449 10.1202L5.33441 10.1201L3.12958 11.9474ZM8.36072 16.8459L6.50327 19.0254L6.51531 19.0357L6.52746 19.0458L8.36072 16.8459ZM8.36469 16.8492L10.2222 14.6697L10.2101 14.6595L10.1979 14.6493L8.36469 16.8492ZM10.8437 18.9816L8.95876 21.1373L10.8399 22.7822L12.7244 21.1411L10.8437 18.9816ZM13.3309 16.8456L15.1879 19.0255L15.1884 19.025L13.3309 16.8456ZM18.5617 11.9474L20.7666 13.7747L20.7666 13.7746L18.5617 11.9474ZM19.0363 3.70437L21.1418 1.76337L21.1417 1.76333L19.0363 3.70437ZM13.0007 3.13608L11.249 0.870685L11.2486 0.871061L13.0007 3.13608ZM11.5345 4.83268L13.9934 6.30039L13.9934 6.30036L11.5345 4.83268ZM10.1566 4.83268L7.69731 6.29973L7.6977 6.30039L10.1566 4.83268ZM8.69037 3.13608L10.4423 0.87086L10.4421 0.870685L8.69037 3.13608ZM10.8455 17.3891C11.23 17.3891 11.603 17.5287 11.8938 17.7835L8.12021 22.0918C8.87508 22.7529 9.84353 23.1163 10.8455 23.1163V17.3891ZM11.892 17.7819C11.0001 17.002 10.1421 16.2707 9.39787 15.6366L5.68322 19.9958C6.42977 20.632 7.2614 21.3408 8.12201 22.0933L11.892 17.7819ZM9.41961 15.6553L9.4158 15.652L5.65769 19.9738L5.66149 19.9771L9.41961 15.6553ZM9.39413 15.6333C7.14417 13.7159 5.4762 12.2822 4.35619 10.9308L-0.0534562 14.5855C1.45253 16.4026 3.55873 18.1853 5.67936 19.9925L9.39413 15.6333ZM4.35627 10.9309C3.20324 9.53958 2.86364 8.48516 2.86364 7.4734H-2.86364C-2.86364 10.1306 -1.83596 12.4346 -0.0535273 14.5854L4.35627 10.9309ZM2.86364 7.4734C2.86364 6.341 3.24917 5.41009 3.82621 4.78417L-0.384677 0.902148C-2.02686 2.68345 -2.86364 5.04115 -2.86364 7.4734H2.86364ZM3.8261 4.78428C4.39996 4.16188 5.174 3.81823 6.05958 3.81823V-1.90905C3.59465 -1.90905 1.28726 -0.911236 -0.384575 0.902038L3.8261 4.78428ZM6.05958 3.81823C6.66455 3.81823 7.19766 3.99557 7.71576 4.39627L11.2196 -0.134151C9.71906 -1.29468 7.9588 -1.90905 6.05958 -1.90905V3.81823ZM7.71554 4.3961C7.99196 4.60992 8.26607 4.8897 8.52509 5.24788L13.166 1.89177C12.6115 1.12495 11.9622 0.440256 11.2198 -0.133988L7.71554 4.3961ZM13.1657 5.24833C13.4253 4.88953 13.6993 4.60986 13.9754 4.39638L10.4718 -0.134264C9.72878 0.44032 9.07972 1.12513 8.52541 1.89133L13.1657 5.24833ZM13.9755 4.39627C14.4936 3.99557 15.0267 3.81823 15.6317 3.81823V-1.90905C13.7325 -1.90905 11.9722 -1.29468 10.4717 -0.134151L13.9755 4.39627ZM15.6317 3.81823C16.5171 3.81823 17.2913 4.16191 17.8652 4.78428L22.0758 0.902038C20.404 -0.911267 18.0964 -1.90905 15.6317 -1.90905V3.81823ZM17.8651 4.78417C18.442 5.40996 18.8275 6.3408 18.8275 7.4734H24.5547C24.5547 5.04135 23.7182 2.68358 22.0759 0.902148L17.8651 4.78417ZM18.8275 7.4734C18.8275 8.48531 18.4879 9.53969 17.3351 10.9306L21.7447 14.5853C23.5273 12.4345 24.5547 10.1304 24.5547 7.4734H18.8275ZM17.335 10.9308C16.215 12.2823 14.5473 13.7158 12.2976 15.633L16.0125 19.9921C18.1327 18.1851 20.2388 16.4025 21.7448 14.5852L17.335 10.9308ZM12.2979 15.6327C11.5522 16.2681 10.6928 17.0005 9.79881 17.7823L13.569 22.0936C14.4315 21.3393 15.2645 20.6293 16.0121 19.9924L12.2979 15.6327ZM9.7981 17.7829C10.0891 17.5283 10.4615 17.3891 10.8455 17.3891V23.1163C11.8468 23.1163 12.8151 22.7533 13.5697 22.093L9.7981 17.7829ZM6.05958 -0.638415C3.95672 -0.638415 1.98007 0.211774 0.549558 1.76313L4.76002 5.64561C5.08867 5.2892 5.53015 5.08886 6.05958 5.08886V-0.638415ZM0.549339 1.76337C-0.885995 3.32031 -1.59317 5.37762 -1.59317 7.4734H4.1341C4.1341 6.64465 4.41027 6.025 4.76024 5.64537L0.549339 1.76337ZM-1.59317 7.4734C-1.59317 9.86464 -0.654746 11.869 0.924747 13.7748L5.33441 10.1201C4.34252 8.92329 4.1341 8.16789 4.1341 7.4734H-1.59317ZM0.924676 13.7747C2.36134 15.5083 4.43243 17.2606 6.50327 19.0254L10.2182 14.6664C8.00877 12.7835 6.38315 11.3856 5.33449 10.1202L0.924676 13.7747ZM6.52746 19.0458L6.53143 19.0491L10.1979 14.6493L10.194 14.646L6.52746 19.0458ZM6.50722 19.0287C7.25669 19.6675 8.09164 20.3791 8.95876 21.1373L12.7287 16.8258C11.8304 16.0403 10.969 15.3063 10.2222 14.6697L6.50722 19.0287ZM12.7244 21.1411C13.5992 20.3793 14.4376 19.6646 15.1879 19.0255L11.4739 14.6657C10.7248 15.3038 9.86433 16.0372 8.96309 16.822L12.7244 21.1411ZM15.1884 19.025C17.2589 17.2604 19.3299 15.5083 20.7666 13.7747L16.3568 10.1202C15.3081 11.3856 13.6828 12.7831 11.4733 14.6661L15.1884 19.025ZM20.7666 13.7746C22.3459 11.8689 23.2843 9.8646 23.2843 7.4734H17.557C17.557 8.16793 17.3485 8.92338 16.3567 10.1202L20.7666 13.7746ZM23.2843 7.4734C23.2843 5.37762 22.5771 3.32031 21.1418 1.76337L16.9309 5.64537C17.2808 6.025 17.557 6.64465 17.557 7.4734H23.2843ZM21.1417 1.76333C19.7112 0.211708 17.7343 -0.638415 15.6317 -0.638415V5.08886C16.161 5.08886 16.6026 5.28927 16.9309 5.64541L21.1417 1.76333ZM15.6317 -0.638415C14.0167 -0.638415 12.5187 -0.111102 11.249 0.870685L14.7524 5.40147C15.0459 5.17452 15.3184 5.08886 15.6317 5.08886V-0.638415ZM11.2486 0.871061C10.1636 1.71039 9.4604 2.72024 9.07555 3.36501L13.9934 6.30036C14.1775 5.9919 14.4448 5.63943 14.7529 5.4011L11.2486 0.871061ZM9.07557 3.36497C9.44534 2.74549 10.1211 2.36043 10.8455 2.36043V8.0877C12.1403 8.0877 13.331 7.41006 13.9934 6.30039L9.07557 3.36497ZM10.8455 2.36043C11.57 2.36043 12.2458 2.74549 12.6155 3.36497L7.6977 6.30039C8.36006 7.41006 9.55084 8.0877 10.8455 8.0877V2.36043ZM12.6159 3.36564C12.2309 2.72025 11.5276 1.71024 10.4423 0.87086L6.93846 5.4013C7.24656 5.63958 7.51368 5.99189 7.69731 6.29973L12.6159 3.36564ZM10.4421 0.870685C9.1724 -0.111066 7.67446 -0.638415 6.05958 -0.638415V5.08886C6.37266 5.08886 6.64513 5.17448 6.93869 5.40147L10.4421 0.870685Z" fill="#23780E" mask="url(#path-1-inside-1_10_1613)"/>
</svg>
