<svg width="21" height="21" viewBox="0 0 21 21" fill="none" xmlns="http://www.w3.org/2000/svg">
<path d="M8.15723 15.4201C8.71898 18.2508 11.2159 20.3848 14.2115 20.3848C15.4502 20.3848 16.6034 20.0197 17.57 19.3917L20.0876 20.088L19.3913 17.5704C20.0193 16.6037 20.3844 15.4505 20.3844 14.2119C20.3844 11.2163 18.2504 8.71935 15.4197 8.1576" stroke="#23780E" stroke-width="1.23047" stroke-miterlimit="10"/>
<path d="M8.01855 0.615234C3.92983 0.615234 0.615234 3.92983 0.615234 8.01855C0.615234 9.48437 1.04135 10.8506 1.77626 12.0004L0.911982 15.1251L4.03672 14.2608C5.18651 14.9958 6.55274 15.4219 8.01855 15.4219C12.1073 15.4219 15.4219 12.1073 15.4219 8.01855C15.4219 3.92983 12.1073 0.615234 8.01855 0.615234Z" stroke="#23780E" stroke-width="1.23047" stroke-miterlimit="10"/>
<path d="M7.42383 11.1357V12.3252H8.61328V11.1357H7.42383Z" fill="#23780E" stroke="#23780E" stroke-width="0.0410156"/>
<path d="M6.17285 6.15234C6.17285 5.13298 6.99919 4.30664 8.01855 4.30664C9.03792 4.30664 9.86426 5.13298 9.86426 6.15234C9.86426 6.6917 9.63281 7.17696 9.26391 7.51439L8.01855 8.6543V9.88477" stroke="#23780E" stroke-width="1.23047" stroke-miterlimit="10"/>
</svg>
