<svg width="11" height="14" viewBox="0 0 11 14" fill="none" xmlns="http://www.w3.org/2000/svg">
<path d="M10.0512 12.994L9.74968 11.4796C9.72765 11.3688 9.61996 11.2968 9.50918 11.3189C9.39837 11.341 9.32647 11.4487 9.3485 11.5595L9.64886 13.0679C9.65944 13.1467 9.67121 13.3283 9.57764 13.436C9.41797 13.62 9.07476 13.5251 8.19823 13.5509V11.623C8.19823 11.51 8.10668 11.4185 7.99369 11.4185C7.8807 11.4185 7.78914 11.51 7.78914 11.623V13.5509H3.97554C3.86255 13.5509 3.771 13.6424 3.771 13.7554C3.771 13.8684 3.86255 13.96 3.97554 13.96H9.22393C9.51626 13.96 9.73916 13.8739 9.88647 13.7043C10.0546 13.5107 10.0947 13.211 10.0512 12.994Z" fill="#23780E"/>
<path d="M9.56312 10.5433C9.45401 10.1341 9.49226 9.60374 8.96285 9.18907C8.66045 8.95278 8.56723 8.96909 6.83239 8.45735L6.29466 8.09371V7.75472C7.27567 7.22244 7.74714 6.27871 7.74714 5.35319V5.31543C8.41681 5.19161 8.7438 4.51767 8.37059 4.01315C8.37081 4.0101 8.38155 3.25501 8.34766 2.93767C8.00485 0.0478456 4.37189 -1.01087 2.52739 1.13791C2.45295 1.22287 2.46143 1.35211 2.54639 1.42654C2.63138 1.50098 2.76059 1.49247 2.83505 1.40754C4.35534 -0.349247 7.24721 0.342311 7.85713 2.55596L7.86046 2.56823C7.99828 3.07738 7.95338 3.43166 7.96221 3.70066C7.84107 3.65074 7.70646 3.62184 7.56452 3.61911C7.41786 3.53882 7.29315 3.39985 7.22635 3.21662C7.19207 3.11582 7.17899 3.0644 7.16871 2.89497C7.16465 2.73501 7.09155 2.58423 6.96817 2.48128C6.54131 2.12511 6.17554 2.67096 3.86093 2.39973L3.55267 2.35686C3.21993 2.30506 2.91202 2.55484 2.90318 2.89683C2.89847 2.99561 2.8929 3.05589 2.86253 3.16572C2.79538 3.39049 2.66249 3.50392 2.67186 3.49416C2.61968 3.54675 2.56234 3.5892 2.50748 3.61911C2.36551 3.62184 2.23082 3.65071 2.10965 3.70069C2.11055 3.10336 2.11295 2.71347 2.35499 2.16164C2.40033 2.0582 2.35327 1.93755 2.2498 1.89218C2.14635 1.84684 2.02573 1.8939 1.98033 1.99737C1.81573 2.37276 1.72183 2.77381 1.70384 3.19162C1.70384 3.19437 1.69732 3.9581 1.70133 4.01321C1.32678 4.51952 1.65694 5.19205 2.32489 5.31548C2.33756 7.10188 3.74451 7.72756 3.76537 7.74828C3.76714 7.74927 3.76897 7.75022 3.77074 7.7512V8.0969L3.2413 8.45492C1.65195 8.92372 1.51352 8.96366 1.49471 8.97067C1.04955 9.13666 0.712033 9.49117 0.610306 10.0009C-0.0124344 13.1291 0.0139586 12.9946 0.012459 13.0051C-0.0657925 13.558 0.226219 13.9598 0.841734 13.9598H3.02083C3.13382 13.9598 3.22538 13.8683 3.22538 13.7553C3.22538 13.6423 3.13382 13.5508 3.02083 13.5508H2.28385V11.6229C2.28385 11.5099 2.19229 11.4184 2.07931 11.4184C1.96632 11.4184 1.87476 11.5099 1.87476 11.6229V13.5508H0.841707C0.510569 13.5508 0.371434 13.4057 0.416804 13.0678C1.06389 9.92149 0.974489 9.9053 1.24166 9.61533C1.348 9.49981 1.48462 9.41215 1.63137 9.35631C3.12908 8.91453 3.19391 8.89542 3.1947 8.89517C3.19514 8.89504 3.19607 8.89476 3.198 8.89419C3.59229 9.99056 3.56573 9.94402 3.60431 10.0116C3.71016 10.1972 3.95252 10.2866 4.18035 10.1549C4.23602 10.1329 4.71807 9.94175 4.78888 9.91367V11.6229C4.78888 11.7359 4.88044 11.8274 4.99343 11.8274C5.10641 11.8274 5.19797 11.7359 5.19797 11.6229V9.90445C6.08464 10.2266 5.83173 10.1311 5.93607 10.1801C6.15019 10.2804 6.41398 10.1782 6.49716 9.945L6.87171 8.89542C8.67558 9.4275 8.21084 9.29262 8.28893 9.31345C8.30543 9.32332 8.92261 9.42259 9.05389 10.0807L9.16189 10.6231C9.18394 10.7339 9.29164 10.8059 9.40242 10.7838C9.51325 10.7618 9.58515 10.6541 9.56312 10.5433ZM7.74714 4.05699C8.24084 4.20385 8.24054 4.74902 7.74714 4.89581V4.05699ZM2.32497 4.89584C1.83122 4.74904 1.8313 4.20374 2.32497 4.05697V4.89584ZM2.89473 6.19999C2.68672 5.67519 2.73406 5.39602 2.73406 3.96083C3.0592 3.7691 3.29935 3.40511 3.31233 2.90536C3.31465 2.8132 3.40034 2.74703 3.48961 2.76105L3.55243 2.77059C3.74707 2.77994 4.75393 3.0184 6.58237 2.76107C6.62657 2.75423 6.67177 2.76669 6.70615 2.79535C6.75607 2.83703 6.75828 2.88306 6.7606 2.92276C6.77363 3.285 6.90726 3.61159 7.17495 3.84321L7.17348 3.84195C7.2113 3.87606 7.2778 3.92547 7.33797 3.96077C7.33797 3.9677 7.33805 5.32791 7.33805 5.35322C7.33805 7.00323 5.60392 8.20588 3.97959 7.39896C3.97872 7.39852 3.97749 7.3979 3.97627 7.39732L3.97621 7.3973C3.49945 7.14959 3.10375 6.72938 2.89473 6.19999ZM3.96143 9.80935C3.9556 9.80881 3.97534 9.8497 3.57203 8.72512L3.92994 8.48311L4.67434 9.51908C3.97185 9.80033 4.00127 9.77982 3.96143 9.80935ZM4.99989 9.27105L4.17991 8.12992V7.92564C4.62676 8.0734 4.9913 8.06162 5.01622 8.06391V8.06213C5.01745 8.06213 5.01867 8.06222 5.01993 8.06222L5.01996 8.06393C5.39957 8.05742 5.61963 8.01521 5.88558 7.92788V8.1321L4.99989 9.27105ZM6.11147 9.80856C6.10686 9.81271 6.09939 9.79665 6.05582 9.7808C5.99982 9.76046 5.41361 9.5476 5.32745 9.5163L6.13413 8.47897L6.49812 8.72512L6.11147 9.80856Z" fill="#23780E"/>
</svg>
