<svg width="25" height="26" viewBox="0 0 25 26" fill="none" xmlns="http://www.w3.org/2000/svg">
<path d="M12.4894 6.81863C9.16428 6.81863 6.4822 9.65438 6.4822 13.17C6.4822 16.6857 9.16428 19.5215 12.4894 19.5215C15.8146 19.5215 18.4967 16.6857 18.4967 13.17C18.4967 9.65438 15.8146 6.81863 12.4894 6.81863ZM12.4894 17.2993C10.3406 17.2993 8.58395 15.4475 8.58395 13.17C8.58395 10.8926 10.3354 9.0408 12.4894 9.0408C14.6435 9.0408 16.3949 10.8926 16.3949 13.17C16.3949 15.4475 14.6382 17.2993 12.4894 17.2993ZM20.1436 6.55883C20.1436 7.38247 19.5162 8.04027 18.7424 8.04027C17.9634 8.04027 17.3412 7.37694 17.3412 6.55883C17.3412 5.74072 17.9686 5.07739 18.7424 5.07739C19.5162 5.07739 20.1436 5.74072 20.1436 6.55883ZM24.1223 8.06238C24.0334 6.07791 23.6047 4.32008 22.2296 2.87181C20.8598 1.42353 19.1973 0.970254 17.3203 0.870754C15.3859 0.754671 9.58777 0.754671 7.65332 0.870754C5.78161 0.964726 4.11904 1.418 2.74401 2.86628C1.36898 4.31456 0.945496 6.07239 0.851388 8.05686C0.741595 10.1021 0.741595 16.2324 0.851388 18.2777C0.940268 20.2622 1.36898 22.02 2.74401 23.4683C4.11904 24.9166 5.77639 25.3698 7.65332 25.4693C9.58777 25.5854 15.3859 25.5854 17.3203 25.4693C19.1973 25.3754 20.8598 24.9221 22.2296 23.4683C23.5994 22.02 24.0282 20.2622 24.1223 18.2777C24.2321 16.2324 24.2321 10.1077 24.1223 8.06238ZM21.6232 20.4722C21.2154 21.5557 20.4259 22.3904 19.3959 22.8271C17.8536 23.4738 14.1938 23.3246 12.4894 23.3246C10.785 23.3246 7.12004 23.4683 5.58294 22.8271C4.55821 22.3959 3.76874 21.5612 3.35571 20.4722C2.74401 18.8415 2.88517 14.9721 2.88517 13.17C2.88517 11.368 2.74924 7.49302 3.35571 5.86786C3.76352 4.78442 4.55298 3.94972 5.58294 3.51303C7.12527 2.86628 10.785 3.01553 12.4894 3.01553C14.1938 3.01553 17.8588 2.87181 19.3959 3.51303C20.4207 3.94419 21.2101 4.77889 21.6232 5.86786C22.2349 7.49855 22.0937 11.368 22.0937 13.17C22.0937 14.9721 22.2349 18.8471 21.6232 20.4722Z" fill="#123498"/>
</svg>
