<svg width="23" height="24" viewBox="0 0 23 24" fill="none" xmlns="http://www.w3.org/2000/svg">
<path d="M5.02543 23.0565H0.370769V7.66321H5.02543V23.0565ZM2.69559 5.56342C1.2075 5.56342 0 4.29737 0 2.76884C0 2.0345 0.283999 1.33023 0.789521 0.810975C1.29504 0.291716 1.98068 0 2.69559 0C3.41051 0 4.09614 0.291716 4.60166 0.810975C5.10718 1.33023 5.39118 2.0345 5.39118 2.76884C5.39118 4.29737 4.18368 5.56342 2.69559 5.56342ZM22.4416 23.0565H17.7969V15.5632C17.7969 13.7773 17.7618 11.4871 15.3769 11.4871C12.9569 11.4871 12.5861 13.4273 12.5861 15.4345V23.0565H7.93646V7.66321H12.4007V9.763H12.4659C13.0871 8.55356 14.6053 7.27722 16.87 7.27722C21.5798 7.27722 22.4466 10.4629 22.4466 14.6007V23.0565H22.4416Z" fill="#123498"/>
</svg>
