<svg width="32" height="32" viewBox="0 0 32 32" fill="none" xmlns="http://www.w3.org/2000/svg">
<path fill-rule="evenodd" clip-rule="evenodd" d="M16 32C7.16485 32 0 24.8351 0 16C0 7.16485 7.16485 0 16 0C24.8351 0 32 7.16485 32 16C32 24.8351 24.8351 32 16 32ZM16 5.59295C20.3769 5.59295 23.925 9.14104 23.925 13.518C23.925 17.8948 16 26.4069 16 26.4069C16 26.4069 8.07496 17.8948 8.07496 13.518C8.07496 9.14104 11.6231 5.59295 16 5.59295ZM16 10.3693C17.6595 10.3693 19.0052 11.715 19.0052 13.3746C19.0052 15.0341 17.6595 16.3798 16 16.3798C14.3405 16.3798 12.9948 15.0341 12.9948 13.3746C12.9948 11.715 14.3405 10.3693 16 10.3693Z" fill="#123498"/>
</svg>
