<svg width="157" height="143" viewBox="0 0 157 143" fill="none" xmlns="http://www.w3.org/2000/svg">
<g filter="url(#filter0_d_0_1066)">
<path d="M35.2051 75.0051C35.2051 51.675 54.1178 32.7622 77.4479 32.7622H86.1605C106.72 32.7622 123.387 49.4291 123.387 69.9887C123.387 90.5484 106.72 107.215 86.1605 107.215H35.2051V75.0051Z" fill="#123498"/>
</g>
<path d="M78.8293 69.7929C82.7862 69.7929 86.0063 66.5729 86.0063 62.616C86.0063 58.659 82.7862 55.439 78.8293 55.439C74.8724 55.439 71.6523 58.659 71.6523 62.616C71.6523 66.5729 74.8724 69.7929 78.8293 69.7929ZM78.8293 57.0339C81.9075 57.0339 84.4114 59.5378 84.4114 62.616C84.4114 65.6941 81.9075 68.1981 78.8293 68.1981C75.7512 68.1981 73.2472 65.6941 73.2472 62.616C73.2472 59.5378 75.7512 57.0339 78.8293 57.0339Z" fill="white"/>
<path d="M55.009 66.9968C55.0785 67.1195 55.1794 67.2216 55.3013 67.2926C55.4231 67.3637 55.5617 67.4011 55.7028 67.4011H68.9634L68.9985 69.1953C69.0016 69.3585 69.0547 69.5167 69.1507 69.6487C69.2467 69.7806 69.3809 69.8799 69.5352 69.933L72.7138 71.0335L74.7409 73.7176C74.8393 73.848 74.9754 73.9449 75.1307 73.9954C75.286 74.0459 75.4531 74.0475 75.6093 73.9999L78.8286 73.0191L82.0471 73.9991C82.2035 74.046 82.3705 74.0441 82.5258 73.9937C82.6811 73.9433 82.8173 73.8467 82.9163 73.7169L84.9442 71.0327L88.1228 69.9322C88.277 69.8789 88.4111 69.7796 88.507 69.6477C88.603 69.5158 88.6562 69.3576 88.6595 69.1946L88.6938 67.4011H101.954C102.095 67.401 102.234 67.3635 102.356 67.2924C102.478 67.2213 102.578 67.1192 102.648 66.9965C102.717 66.8738 102.753 66.7348 102.751 66.5938C102.749 66.4528 102.71 66.3147 102.638 66.1938L100.492 62.6164L102.638 59.0399C102.711 58.9189 102.75 58.7808 102.752 58.6397C102.754 58.4985 102.718 58.3594 102.648 58.2366C102.579 58.1137 102.478 58.0115 102.356 57.9404C102.234 57.8693 102.096 57.8318 101.954 57.8318H88.6938L88.6587 56.0375C88.6556 55.8744 88.6025 55.7161 88.5065 55.5842C88.4105 55.4523 88.2763 55.353 88.122 55.2999L84.9434 54.1994L82.9155 51.516C82.8171 51.3857 82.681 51.2888 82.5257 51.2383C82.3704 51.1878 82.2033 51.1862 82.0471 51.2337L78.8286 52.2138L75.6101 51.2337C75.4539 51.1864 75.2869 51.1881 75.1316 51.2386C74.9764 51.2891 74.8403 51.3859 74.7417 51.516L72.7138 54.2002L69.5352 55.3007C69.381 55.354 69.2469 55.4533 69.151 55.5852C69.055 55.7171 69.0018 55.8753 68.9985 56.0383L68.9634 57.8318H55.7028C55.5617 57.8319 55.4233 57.8694 55.3015 57.9405C55.1797 58.0116 55.0789 58.1137 55.0094 58.2364C54.9399 58.3591 54.9043 58.4981 54.906 58.6391C54.9078 58.7801 54.9469 58.9181 55.0193 59.0391L57.1653 62.6164L55.0193 66.193C54.9465 66.314 54.9072 66.4522 54.9053 66.5935C54.9035 66.7347 54.9393 66.8739 55.009 66.9968ZM100.546 59.4267L98.8787 62.2058C98.8044 62.3297 98.7651 62.4715 98.7651 62.616C98.7651 62.7606 98.8044 62.9024 98.8787 63.0263L100.546 65.8062H88.7424L90.6467 63.0718C90.7398 62.9381 90.7898 62.779 90.7898 62.616C90.7898 62.4531 90.7398 62.294 90.6467 62.1603L88.7424 59.4267H100.546ZM70.3797 60.1133C70.4697 59.9839 70.5194 59.8307 70.5224 59.6731L70.5822 56.6245L73.465 55.6269C73.6149 55.575 73.7449 55.4801 73.8406 55.3541L75.6787 52.9211L78.5966 53.8103C78.7481 53.8565 78.9099 53.8565 79.0615 53.8103L81.9793 52.9219L83.8174 55.3549C83.9131 55.4809 84.0431 55.5758 84.193 55.6277L87.0758 56.6253L87.1356 59.6739C87.1388 59.8318 87.1882 59.9849 87.2791 60.1141L89.0207 62.6164L87.2775 65.1196C87.1875 65.249 87.1378 65.4022 87.1348 65.5598L87.075 68.6084L84.1922 69.606C84.0428 69.6578 83.9121 69.7527 83.8166 69.8788L81.9785 72.3118L79.0607 71.4226C78.9089 71.3778 78.7475 71.3778 78.5958 71.4226L75.6779 72.311L73.8398 69.878C73.7444 69.7519 73.6136 69.657 73.4642 69.6052L70.5815 68.6076L70.5216 65.559C70.5187 65.4013 70.4687 65.248 70.3781 65.1188L68.6365 62.6164L70.3797 60.1133ZM58.7785 63.0271C58.8529 62.9032 58.8921 62.7614 58.8921 62.6168C58.8921 62.4723 58.8529 62.3305 58.7785 62.2066L57.111 59.4267H68.914L67.0097 62.1611C66.9166 62.2948 66.8666 62.4539 66.8666 62.6168C66.8666 62.7798 66.9166 62.9389 67.0097 63.0726L68.9148 65.8062H57.111L58.7785 63.0271Z" fill="white"/>
<path d="M78.0307 65.8061L78.0665 65.8053C78.1773 65.8002 78.2857 65.7722 78.385 65.7229C78.4843 65.6736 78.5722 65.6042 78.6431 65.519L82.6303 60.7343L81.4054 59.7136L77.9772 63.8276L76.2021 62.0525L75.0745 63.1801L77.4669 65.5724C77.6164 65.722 77.8192 65.806 78.0307 65.8061ZM82.7938 92.5443C82.8115 92.9424 82.8267 93.3406 82.8392 93.7389L84.4333 93.6942C84.4213 93.2885 84.4059 92.8828 84.3871 92.4773C84.2778 89.8944 84.1407 86.6807 85.5258 84.7318L88.4293 80.6305C88.4959 80.5369 88.5845 80.4611 88.6874 80.41C88.7903 80.3588 88.9042 80.334 89.0191 80.3375C89.1339 80.3411 89.2461 80.3729 89.3456 80.4303C89.4452 80.4877 89.529 80.5688 89.5896 80.6664C89.651 80.7661 89.777 81.0309 89.643 81.3012L87.9349 84.2557C87.7244 84.6198 87.6135 85.0329 87.6135 85.4535H89.2084C89.2084 85.3131 89.2451 85.1752 89.3153 85.0547L89.4843 84.7621L93.0856 83.5603L93.1111 83.5731L93.1239 83.5476L95.2977 82.8219C95.6753 82.68 96.011 82.4453 96.2738 82.1393L99.9229 77.8818C99.9884 77.8054 100.069 77.7439 100.161 77.7012C100.252 77.6585 100.351 77.6357 100.451 77.6343C100.552 77.6329 100.652 77.6528 100.744 77.6929C100.836 77.7329 100.919 77.7921 100.987 77.8666C101.208 78.0995 101.214 78.503 101.003 78.806L96.5656 85.1449C96.454 85.3036 96.3248 85.4479 96.1805 85.5747L93.1669 88.2118C92.1159 89.1321 89.6869 91.5029 89.84 93.6424L91.4309 93.5276C91.3472 92.3633 92.8791 90.5826 94.2172 89.412L97.2307 86.7748C97.4707 86.5643 97.686 86.3251 97.8719 86.0603L102.309 79.7207C102.957 78.7948 102.889 77.554 102.145 76.7701C101.92 76.5357 101.65 76.35 101.35 76.2245C101.051 76.0989 100.729 76.0363 100.405 76.0405C100.082 76.0489 99.7645 76.1247 99.473 76.2632C99.1814 76.4016 98.922 76.5996 98.7116 76.8443L98.4747 77.1202L98.5289 76.794C98.5774 76.505 98.5623 76.2089 98.4846 75.9263C98.4069 75.6437 98.2685 75.3815 98.0791 75.1578C97.8897 74.9342 97.6538 74.7546 97.3879 74.6314C97.122 74.5083 96.8324 74.4446 96.5393 74.4448C96.0893 74.4444 95.652 74.5946 95.2973 74.8715C94.9425 75.1484 94.6906 75.536 94.5816 75.9727L94.0369 78.1537L91.9915 82.2446L90.6861 82.68L91.0449 82.058C91.403 81.3427 91.3655 80.5093 90.9453 79.8291C90.525 79.1489 89.7961 78.7422 88.9963 78.7422C88.2539 78.7422 87.5545 79.1042 87.1263 79.7095L84.2372 83.7916C82.5243 86.2023 82.6734 89.719 82.7938 92.5443ZM95.5034 78.7876C95.5296 78.7356 95.5499 78.6807 95.564 78.6242L96.1302 76.3586C96.1565 76.2525 96.2229 76.1607 96.3155 76.1025C96.4081 76.0442 96.5196 76.0242 96.6267 76.0465C96.7337 76.0688 96.828 76.1317 96.8896 76.222C96.9512 76.3124 96.9755 76.4231 96.9572 76.5309L96.4692 79.4615L95.0633 81.101C94.9829 81.1966 94.8805 81.2713 94.765 81.3187L94.1326 81.5293L95.5034 78.7876ZM68.6854 80.3363C68.9111 80.3363 69.124 80.4463 69.254 80.6305L72.1447 84.715C73.5419 86.6815 73.4055 89.896 73.2954 92.4781C73.2779 92.8984 73.2604 93.3059 73.25 93.6942L74.8441 93.7389C74.8544 93.3577 74.872 92.9582 74.8895 92.5459C75.0092 89.7198 75.1583 86.2031 73.4446 83.7908L73.4422 83.7924C73.2875 83.5667 72.7285 82.778 70.5562 79.7079C70.3443 79.409 70.0638 79.1653 69.7383 78.997C69.4129 78.8287 69.0518 78.7408 68.6854 78.7406C68.2947 78.7391 67.9101 78.8382 67.5687 79.0284C67.2274 79.2187 66.9408 79.4936 66.7365 79.8267C66.3162 80.5077 66.2787 81.3403 66.6591 82.0986L66.9941 82.6776L65.691 82.243L63.6456 78.1521L63.1001 75.9711C63.0105 75.6107 62.8231 75.282 62.5586 75.0213C62.294 74.7607 61.9626 74.5782 61.6009 74.4939C61.2392 74.4097 60.8612 74.4271 60.5087 74.544C60.1562 74.661 59.8429 74.8731 59.6033 75.1569C59.4139 75.3802 59.2755 75.6422 59.1979 75.9246C59.1202 76.2069 59.1051 76.5028 59.1536 76.7916L59.2078 77.1178L58.971 76.8427C58.7605 76.598 58.5011 76.4 58.2096 76.2616C57.918 76.1231 57.6007 76.0473 57.278 76.0389C56.9536 76.0358 56.632 76.0989 56.3328 76.2244C56.0336 76.3498 55.7632 76.535 55.538 76.7685C54.7948 77.5532 54.7262 78.794 55.3737 79.7191L59.8115 86.0587C59.9957 86.3219 60.211 86.5619 60.4518 86.7732L63.4654 89.4104C64.8027 90.581 66.3354 92.3609 66.2516 93.526L67.8425 93.6408C67.9956 91.5013 65.5674 89.1305 64.5164 88.2102L61.5029 85.5731C61.3582 85.4461 61.2292 85.3024 61.1185 85.1449L56.6799 78.8044C56.4686 78.5022 56.475 78.0979 56.6959 77.8658C56.7655 77.7918 56.8497 77.733 56.9432 77.6931C57.0366 77.6531 57.1373 77.6329 57.2389 77.6337C57.3383 77.6361 57.4361 77.6594 57.526 77.7019C57.6158 77.7445 57.6957 77.8055 57.7605 77.881L61.4096 82.1377C61.6711 82.4431 62.0084 82.68 62.4135 82.8315L64.5595 83.5476L64.5722 83.5723L64.5969 83.5595L68.199 84.7613L68.368 85.0547C68.4103 85.1289 68.4749 85.4 68.4749 85.6082H70.0698C70.0698 85.3123 70.002 84.6951 69.7484 84.2565L68.0626 81.3434C68.0085 81.2375 67.9828 81.1194 67.9881 81.0005C67.9934 80.8817 68.0295 80.7663 68.0929 80.6656C68.1549 80.5643 68.242 80.4807 68.3458 80.4229C68.4496 80.3652 68.5666 80.3354 68.6854 80.3363ZM62.9454 81.3283C62.8195 81.2809 62.7076 81.2024 62.6201 81.1002L61.2142 79.4607L60.7261 76.5301C60.6982 76.3626 60.7732 76.2446 60.8202 76.1888C60.8673 76.133 60.9718 76.0389 61.1424 76.0389C61.337 76.0389 61.5052 76.1704 61.5523 76.3586L62.1185 78.625C62.1328 78.6816 62.1528 78.7358 62.1791 78.7884L63.5507 81.5308L62.9454 81.3283ZM77.671 77.7143C77.1671 77.6758 76.6655 77.6124 76.1678 77.5245L75.8903 79.0955C76.4374 79.1919 76.9956 79.2621 77.5498 79.3044L77.671 77.7143ZM80.6965 77.6457C80.1981 77.7071 79.6893 77.7438 79.187 77.755L79.2228 79.3498C79.7808 79.337 80.3379 79.2965 80.8919 79.2286L80.6965 77.6457ZM74.6926 77.1872C74.2066 77.0497 73.7278 76.8878 73.258 76.7023L72.6734 78.1864C73.1926 78.3913 73.7261 78.5715 74.2588 78.7223L74.6926 77.1872ZM82.1869 77.3865L82.5386 78.9416C83.0809 78.8187 83.6231 78.6672 84.151 78.4894L83.6431 76.9774C83.1678 77.1377 82.6774 77.2749 82.1869 77.3865ZM71.8808 76.0763C71.4323 75.8441 70.9956 75.59 70.5722 75.3148L69.7022 76.6513C70.1671 76.9543 70.6535 77.2374 71.1487 77.4926L71.8808 76.0763ZM86.4006 75.7326C85.9633 75.9852 85.5138 76.2159 85.0537 76.424L85.71 77.8778C86.2184 77.648 86.7151 77.393 87.1981 77.1138L86.4006 75.7326ZM69.3465 74.4264C68.955 74.1114 68.5738 73.7725 68.2149 73.4201L67.0969 74.558C67.4932 74.948 67.9143 75.322 68.3473 75.6696L69.3465 74.4264ZM88.856 73.9655C88.4788 74.2988 88.0808 74.6162 87.6726 74.9105L88.6048 76.2047C89.0576 75.8785 89.4941 75.5302 89.9126 75.1609L88.856 73.9655ZM64.9566 71.9902C65.2676 72.4504 65.6065 72.9001 65.963 73.3276L67.1878 72.306C66.8646 71.9179 66.5607 71.5142 66.2771 71.0963L64.9566 71.9902ZM89.9397 72.9081L91.1095 73.9926C91.4883 73.5835 91.8504 73.1529 92.1845 72.7111L90.9142 71.7478C90.6111 72.1473 90.2834 72.5381 89.9397 72.9081ZM63.3665 69.0501C63.5818 69.5652 63.8242 70.0724 64.0882 70.5604L65.4909 69.8021C65.2506 69.358 65.0329 68.9021 64.8386 68.436L63.3665 69.0501ZM93.9285 69.8579L92.4915 69.1665C92.273 69.621 92.0298 70.0684 91.7682 70.4966L93.1287 71.3284C93.4173 70.8547 93.6869 70.3595 93.9285 69.8579ZM64.1153 55.5972L65.5626 56.2671C65.7724 55.8125 66.01 55.362 66.2668 54.9273L64.8936 54.1156C64.6102 54.5965 64.3504 55.0909 64.1153 55.5972ZM94.6853 55.9672C94.4627 55.4555 94.2149 54.9552 93.9428 54.468L92.5505 55.2455C92.7961 55.6857 93.0226 56.1419 93.2228 56.6028L94.6853 55.9672ZM68.0586 52.4904L66.8752 51.4218C66.5012 51.8362 66.1483 52.2692 65.8178 52.7192L67.1025 53.6642C67.3999 53.2591 67.7213 52.8644 68.0586 52.4904ZM93.0529 53.0494C92.7332 52.5921 92.3912 52.1509 92.0282 51.7272L90.8177 52.7655C91.1462 53.1483 91.458 53.551 91.7459 53.9624L93.0529 53.0494ZM69.128 51.417C69.5004 51.0789 69.8944 50.7551 70.2987 50.4553L69.3489 49.1738C68.9023 49.5047 68.4677 49.862 68.0562 50.236L69.128 51.417ZM88.6295 50.6762C89.025 50.984 89.4102 51.3173 89.7754 51.6658L90.8767 50.5127C90.473 50.1274 90.0504 49.7625 89.6103 49.4194L88.6295 50.6762ZM72.8959 48.9035L72.2181 47.4601C71.7129 47.6969 71.22 47.9591 70.7412 48.2456L71.5594 49.6148C71.9927 49.3555 72.4388 49.1181 72.8959 48.9035ZM86.0721 49.063C86.5202 49.2862 86.9644 49.5358 87.3903 49.8046L88.2411 48.4561C87.7689 48.1583 87.2821 47.8841 86.7826 47.6347L86.0721 49.063ZM74.297 48.3301C74.7731 48.1632 75.2573 48.02 75.7476 47.9011L75.3728 46.3508C74.8305 46.4816 74.2907 46.6419 73.7675 46.8253L74.297 48.3301ZM85.2491 46.9649C84.7267 46.7674 84.1946 46.5963 83.655 46.4521L83.2443 47.9936C83.7284 48.122 84.2124 48.2783 84.6837 48.4569L85.2491 46.9649ZM77.2356 47.6204C77.7358 47.5516 78.2391 47.5079 78.7436 47.4896L78.6846 45.8955C78.128 45.9162 77.5666 45.9649 77.0171 46.0406L77.2356 47.6204ZM80.2571 47.5079C80.7627 47.5398 81.2699 47.5957 81.7635 47.6762L82.0179 46.102C81.4673 46.0131 80.9127 45.9511 80.356 45.9162L80.2571 47.5079Z" fill="white"/>
<defs>
<filter id="filter0_d_0_1066" x="0.88276" y="0.0239954" width="155.77" height="142.042" filterUnits="userSpaceOnUse" color-interpolation-filters="sRGB">
<feFlood flood-opacity="0" result="BackgroundImageFix"/>
<feColorMatrix in="SourceAlpha" type="matrix" values="0 0 0 0 0 0 0 0 0 0 0 0 0 0 0 0 0 0 127 0" result="hardAlpha"/>
<feMorphology radius="2.11214" operator="dilate" in="SourceAlpha" result="effect1_dropShadow_0_1066"/>
<feOffset dx="-0.528036" dy="1.05607"/>
<feGaussianBlur stdDeviation="15.8411"/>
<feComposite in2="hardAlpha" operator="out"/>
<feColorMatrix type="matrix" values="0 0 0 0 0 0 0 0 0 0 0 0 0 0 0 0 0 0 0.05 0"/>
<feBlend mode="normal" in2="BackgroundImageFix" result="effect1_dropShadow_0_1066"/>
<feBlend mode="normal" in="SourceGraphic" in2="effect1_dropShadow_0_1066" result="shape"/>
</filter>
</defs>
</svg>
