<svg width="81" height="78" viewBox="0 0 81 78" fill="none" xmlns="http://www.w3.org/2000/svg">
<path d="M80.7078 33.1664C80.7078 56.4451 53.5144 70.7839 26.321 77.5823C3.04234 77.5823 8.19209 69.3911 5.01953 37.2122C5.01953 13.9335 10.2939 5.51978 33.5726 5.51978C56.8513 5.51978 71.6434 10.5052 80.7078 33.1664Z" fill="white"/>
<path d="M57.2739 6.68068C64.8788 10.688 70.7705 17.4796 75.2691 28.6881C75.2353 40.0868 68.5682 49.3425 58.4617 56.6213C48.3417 63.9098 34.8281 69.1715 21.2799 72.5636C15.5007 72.5603 11.5566 72.0458 8.81785 70.8205C6.11098 69.6095 4.55105 67.6898 3.57519 64.7558C2.58739 61.786 2.20743 57.8046 1.87976 52.5021C1.80706 51.3256 1.73697 50.0858 1.66317 48.7803C1.40582 44.2281 1.10331 38.8769 0.487405 32.6245C0.489098 20.9956 1.81811 13.2356 5.92766 8.36327C10.0196 3.51183 16.976 1.40757 28.5873 1.40757C40.2051 1.40757 49.6324 2.65405 57.2739 6.68068Z" stroke="white" stroke-width="0.906447"/>
<path d="M42.458 26.335C41.8737 26.335 41.868 27.2123 42.4614 27.2122C45.7138 27.2117 48.6687 29.0944 50.0427 32.0402C51.4167 34.9859 50.9556 38.4569 48.8645 40.9474C46.9858 43.1849 44.0984 44.2579 41.2531 43.8442L41.946 43.3477C42.4351 42.9944 41.9237 42.2875 41.4366 42.6342L39.9231 43.7173C39.7231 43.8578 39.6765 44.1346 39.8193 44.333L40.905 45.8465C41.2446 46.3322 41.9697 45.8119 41.6184 45.3346L41.1794 44.7223C44.3056 45.1576 47.4755 43.9687 49.5385 41.5117C51.8476 38.7615 52.3533 34.922 50.8359 31.6688C49.2395 28.2828 45.9176 26.335 42.458 26.335ZM42.4808 29.4041C39.0903 29.4041 36.3358 32.1718 36.3358 35.5724C36.3358 38.9729 39.0903 41.7398 42.4808 41.7398C45.8712 41.7398 48.6292 38.9729 48.6292 35.5724C48.6292 32.1718 45.8712 29.4041 42.4808 29.4041ZM42.4808 30.2831C45.3948 30.2831 47.7511 32.6447 47.7511 35.5724C47.7511 38.5001 45.3948 40.8617 42.4808 40.8617C39.5667 40.8617 37.2147 38.5001 37.2147 35.5724C37.2147 32.6447 39.5667 30.2831 42.4808 30.2831ZM42.4824 31.6045C42.2673 31.6033 42.0514 31.7479 42.0417 32.0427V32.5024C41.1815 32.6961 40.5281 33.4455 40.5281 34.365C40.5281 35.0123 40.8549 35.3823 41.2476 35.5741C41.6403 35.7659 42.0584 35.7936 42.437 35.8331C42.8156 35.8726 43.1562 35.9233 43.3314 36.0089C43.4397 36.0691 43.5586 36.1273 43.5586 36.4265C43.5586 36.9871 43.097 37.4551 42.4987 37.4607C41.9965 37.4507 41.6025 37.1424 41.4354 36.592C41.2428 36.0389 40.4373 36.2953 40.5967 36.8578C40.8793 37.733 41.4671 38.1362 42.0417 38.2839V38.6287C42.073 39.222 42.9112 39.2006 42.9198 38.6287V38.2882C43.7817 38.0951 44.4367 37.3369 44.4367 36.4265C44.4367 35.7877 44.11 35.4126 43.7173 35.2208C43.3245 35.029 42.9065 35.0012 42.5279 34.9618C42.1493 34.9223 41.8086 34.8691 41.6335 34.7834C41.5032 34.7199 41.4062 34.6356 41.4062 34.365C41.4062 33.7941 41.8679 33.3467 42.4661 33.3411C43.0044 33.362 43.3538 33.6448 43.5295 34.2003C43.717 34.7428 44.5188 34.5122 44.369 33.937C44.1516 33.2495 43.6892 32.707 42.9198 32.5118V32.0427C42.9115 31.753 42.6976 31.6058 42.4824 31.6045ZM29.9352 44.8184C29.4317 45.0594 29.0151 45.2726 28.7004 45.4427C28.4726 45.0453 28.0418 44.7764 27.5556 44.7764H24.9213C24.1822 44.7764 23.6016 45.374 23.6016 46.0961V52.2404C23.6016 52.9625 24.187 53.5601 24.9213 53.5601H27.5556C28.2777 53.5601 28.8721 52.9787 28.871 52.2404L28.8719 52.1649C29.7283 52.0262 30.5448 51.8397 31.5062 51.803C32.049 51.803 33.0644 52.5722 33.7237 53.0379C34.6633 53.7011 35.6754 54.4348 36.7731 54.4348C37.1035 54.4348 37.4345 54.3261 37.8716 54.163C40.2735 53.265 45.34 50.3987 48.2913 48.6721C48.9448 48.3107 49.2148 47.5341 48.9893 46.8559C48.9571 46.7589 48.9151 46.6634 48.8624 46.572C48.4576 45.8709 47.6358 45.7001 46.8369 45.9726L40.6927 48.1001C40.5852 47.6452 40.296 47.2377 39.8618 46.987C38.1445 46.0662 36.3641 45.1201 34.6078 44.4041C34.0554 44.1943 33.4044 43.9039 32.7677 43.8977C32.1311 43.8914 30.898 44.3574 29.9352 44.8184ZM34.2812 45.2171C36.081 45.9814 37.6575 46.7893 39.4211 47.7486C39.9138 48.033 39.9447 48.6022 39.7453 48.9474C39.5112 49.3529 38.9709 49.5161 38.5431 49.269L35.8813 47.7323C35.3601 47.3795 34.8774 48.2171 35.444 48.4912L38.1049 50.0271C38.9409 50.5098 40.0215 50.2217 40.5042 49.3856C40.5674 49.2761 40.6204 49.1587 40.6577 49.0426L47.1243 46.8019C47.689 46.6097 48.0229 46.8068 48.1413 47.0909C48.2598 47.375 48.1627 47.7461 47.8669 47.9038C44.4328 49.8833 39.9633 52.4235 37.5646 53.3398C37.1651 53.4888 36.842 53.5601 36.7731 53.5601C36.1146 53.5601 35.1552 52.9758 34.2289 52.3219C33.6006 51.899 32.4662 50.9407 31.5063 50.9249C30.7959 50.9266 29.6403 51.1318 28.872 51.2731V46.3534C28.872 46.3534 29.6049 45.9456 30.31 45.6125C31.2206 45.1822 32.2198 44.7764 32.721 44.7797C33.2221 44.783 33.8461 45.0419 34.2812 45.2171ZM24.9214 45.6545H27.5557C27.8125 45.6545 27.9929 45.8624 27.9929 46.097C27.9929 48.366 27.9938 51.8044 27.9938 52.2404C27.9938 52.4792 27.8004 52.6819 27.5565 52.682L24.9213 52.6829C24.6859 52.683 24.4805 52.4912 24.4805 52.2404L24.4797 46.0961C24.4796 45.8264 24.6965 45.6545 24.9214 45.6545ZM25.3587 51.3631C25.3587 51.6056 25.5553 51.8022 25.7977 51.8022C26.0402 51.8022 26.2376 51.6176 26.2376 51.3631C26.2376 51.1086 26.0351 50.9241 25.7931 50.9241C25.5511 50.9241 25.3587 51.1206 25.3587 51.3631Z" fill="black"/>
</svg>
