<svg width="81" height="78" viewBox="0 0 81 78" fill="none" xmlns="http://www.w3.org/2000/svg">
<path d="M80.6736 33.1664C80.6736 56.4451 53.4803 70.7839 26.2868 77.5823C3.00816 77.5823 8.15791 69.3911 4.98535 37.2122C4.98535 13.9335 10.2597 5.51978 33.5384 5.51978C56.8171 5.51978 71.6092 10.5052 80.6736 33.1664Z" fill="white"/>
<path d="M57.2397 6.68068C64.8447 10.688 70.7363 17.4796 75.2349 28.6881C75.2011 40.0868 68.534 49.3425 58.4276 56.6213C48.3075 63.9098 34.794 69.1715 21.2457 72.5636C15.4665 72.5603 11.5225 72.0458 8.78367 70.8205C6.0768 69.6095 4.51687 67.6898 3.54101 64.7558C2.55321 61.786 2.17325 57.8046 1.84558 52.5021C1.77288 51.3256 1.70279 50.0858 1.62899 48.7803C1.37164 44.2281 1.06913 38.8769 0.453226 32.6245C0.454918 20.9956 1.78393 13.2356 5.89348 8.36327C9.98541 3.51183 16.9418 1.40757 28.5531 1.40757C40.1709 1.40757 49.5982 2.65405 57.2397 6.68068Z" stroke="white" stroke-width="0.906447"/>
<path d="M49.6818 41.6218V37.5459C49.6818 36.1638 48.6098 35.0398 47.2553 34.9308L43.4701 28.3193C43.1193 27.7078 42.5529 27.2708 41.8751 27.0893C41.2005 26.909 40.4951 27.0037 39.8914 27.3551L26.9154 34.9095H24.6364C23.1824 34.9095 22 36.0919 22 37.5459V53.364C22 54.818 23.1823 56.0004 24.6364 56.0004H47.0455C48.4994 56.0004 49.6818 54.8181 49.6818 53.364V49.2881C50.4474 49.0151 51 48.2904 51 47.4322V43.4777C51 42.6196 50.4474 41.8948 49.6818 41.6218ZM45.7236 34.9095H39.9789L44.2875 32.4011L45.7236 34.9095ZM43.6326 31.2572L37.3591 34.9095H34.757L42.9819 30.1208L43.6326 31.2572ZM40.5549 28.4943C40.853 28.3199 41.2011 28.2735 41.5339 28.3624C41.8706 28.4525 42.1512 28.67 42.3257 28.9745L42.327 28.9769L32.1373 34.9095H29.5353L40.5549 28.4943ZM48.3636 53.364C48.3636 54.0907 47.7721 54.6822 47.0455 54.6822H24.6364C23.9097 54.6822 23.3182 54.0907 23.3182 53.364V37.5459C23.3182 36.8192 23.9097 36.2277 24.6364 36.2277H47.0455C47.7721 36.2277 48.3636 36.8192 48.3636 37.5459V41.5004H44.4091C42.2284 41.5004 40.4545 43.2743 40.4545 45.455C40.4545 47.6356 42.2284 49.4095 44.4091 49.4095H48.3636V53.364ZM49.6818 47.4322C49.6818 47.7959 49.3864 48.0913 49.0227 48.0913H44.4091C42.9551 48.0913 41.7727 46.909 41.7727 45.455C41.7727 44.001 42.955 42.8186 44.4091 42.8186H49.0227C49.3864 42.8186 49.6818 43.114 49.6818 43.4777V47.4322Z" fill="#363636"/>
<path d="M44.409 44.137C43.6823 44.137 43.0908 44.7285 43.0908 45.4551C43.0908 46.1818 43.6823 46.7733 44.409 46.7733C45.1356 46.7733 45.7271 46.1818 45.7271 45.4551C45.7272 44.7285 45.1357 44.137 44.409 44.137Z" fill="#363636"/>
</svg>
