<svg width="82" height="78" viewBox="0 0 82 78" fill="none" xmlns="http://www.w3.org/2000/svg">
<path d="M81.3426 33.1664C81.3426 56.4451 54.1492 70.7839 26.9558 77.5823C3.67711 77.5823 8.82686 69.3911 5.6543 37.2122C5.6543 13.9335 10.9287 5.51978 34.2074 5.51978C57.4861 5.51978 72.2781 10.5052 81.3426 33.1664Z" fill="white"/>
<path d="M57.9087 6.68068C65.5136 10.688 71.4052 17.4796 75.9039 28.6881C75.8701 40.0868 69.203 49.3425 59.0965 56.6213C48.9764 63.9098 35.4629 69.1715 21.9147 72.5636C16.1355 72.5603 12.1914 72.0458 9.45261 70.8205C6.74575 69.6095 5.18581 67.6898 4.20996 64.7558C3.22216 61.786 2.84219 57.8046 2.51452 52.5021C2.44182 51.3256 2.37174 50.0858 2.29793 48.7803C2.04059 44.2281 1.73807 38.8769 1.12217 32.6245C1.12386 20.9956 2.45288 13.2356 6.56242 8.36327C10.6544 3.51183 17.6107 1.40757 29.222 1.40757C40.8399 1.40757 50.2672 2.65405 57.9087 6.68068Z" stroke="white" stroke-width="0.906447"/>
<path d="M48.8041 53.8082L47.5691 50.1026C47.1375 48.8089 46.0364 47.8539 44.6941 47.6096L41.1288 46.9608V46.6845C41.7492 46.3244 42.2891 45.8427 42.7191 45.2724H43.7962C44.6786 45.2724 45.3967 44.5543 45.3967 43.6719V37.27C45.3967 33.446 42.2854 30.3347 38.4613 30.3347C34.6373 30.3347 31.526 33.446 31.526 37.27V41.0044C31.526 42.033 32.2574 42.8935 33.2273 43.0941C33.5266 44.6274 34.4847 45.9248 35.7939 46.6845V46.9608L32.2281 47.6096C30.8863 47.8539 29.7847 48.8089 29.3536 50.1026L29.1402 50.7433L27.3232 48.9262C27.1151 48.7182 27.1151 48.3794 27.3232 48.1713L29.4304 46.0646L25.4751 42.1093L23.0937 44.4908C22.3884 45.1961 22 46.1339 22 47.1316C22 48.1292 22.3884 49.0665 23.0937 49.7718L30.3038 56.9819C31.009 57.6872 31.9469 58.0761 32.9445 58.0761C33.9422 58.0761 34.8795 57.6872 35.5682 56.9979L38.1669 54.6169L37.3565 53.8082H48.8041ZM44.3297 43.6719C44.3297 43.9664 44.0902 44.2054 43.7962 44.2054H43.3476C43.5023 43.8527 43.6196 43.4809 43.6954 43.0941C43.9237 43.0466 44.1339 42.9559 44.3297 42.8418V43.6719ZM43.7962 41.9231V40.0858C44.1137 40.2709 44.3297 40.6113 44.3297 41.0044C44.3297 41.3976 44.1137 41.738 43.7962 41.9231ZM33.1264 41.9231C32.809 41.738 32.593 41.3976 32.593 41.0044C32.593 40.6113 32.809 40.2709 33.1264 40.0858V41.9231ZM33.1264 38.337V38.9462C32.9365 38.9959 32.7583 39.0705 32.593 39.1671V37.27C32.593 34.0344 35.2257 31.4016 38.4613 31.4016C41.697 31.4016 44.3297 34.0344 44.3297 37.27V39.1671C44.1643 39.0705 43.9862 38.9953 43.7962 38.9462V38.337H43.2627C41.6852 38.337 40.2021 37.7224 39.0861 36.6069L38.4613 35.9822L37.8366 36.6069C36.7206 37.7224 35.2375 38.337 33.6599 38.337H33.1264ZM34.1934 42.0714V39.3837C35.7955 39.2631 37.2893 38.6021 38.4613 37.4877C39.6334 38.6021 41.1272 39.2637 42.7293 39.3837V42.0714C42.7293 42.8492 42.5169 43.5769 42.152 44.2054H38.4613V45.2724H41.275C40.5227 45.9344 39.5395 46.3393 38.4613 46.3393C36.1081 46.3393 34.1934 44.4246 34.1934 42.0714ZM40.0618 47.1604V47.1854L38.4613 48.7859L36.8609 47.1854V47.1604C37.3666 47.3193 37.9038 47.4063 38.4613 47.4063C39.0188 47.4063 39.5561 47.3193 40.0618 47.1604ZM30.3651 50.4397C30.6729 49.5157 31.4598 48.8334 32.4185 48.6584L36.1476 47.9809L38.4613 50.2946L40.7745 47.9814L44.5031 48.6589C45.4618 48.8339 46.2487 49.5157 46.5565 50.4403L47.3242 52.7412H36.2895L34.2116 50.6633L31.9026 52.7519C31.7015 52.9541 31.3499 52.9541 31.1483 52.7519L29.9831 51.5867L30.3651 50.4397ZM25.4746 43.618L27.9212 46.0646L27.3418 46.644L24.8952 44.1974L25.4746 43.618ZM34.8293 56.2286C34.3257 56.7312 33.6557 57.0091 32.9435 57.0091C32.2313 57.0091 31.5612 56.7312 31.057 56.2275L23.8469 49.018C23.3433 48.5144 23.0659 47.8443 23.0659 47.1321C23.0659 46.4194 23.3433 45.7493 23.8469 45.2457L24.1404 44.9523L26.5869 47.3988L26.5677 47.418C25.9441 48.0422 25.9441 49.0575 26.5677 49.6816L30.3934 53.5073C30.6959 53.8092 31.0976 53.9762 31.5254 53.9762C31.9533 53.9762 32.355 53.8098 32.6378 53.526L32.6778 53.4902L35.1356 55.948L34.8293 56.2286ZM35.923 55.2257L33.4705 52.7732L34.1753 52.1362L36.6235 54.5844L35.923 55.2257Z" fill="#363636"/>
<path d="M53.3994 25H45.9305C45.0482 25 44.3301 25.7181 44.3301 26.6005V30.8684C44.3301 31.7508 45.0482 32.4688 45.9305 32.4688H47.3555L46.8039 35.6863L51.952 32.4688H53.3994C54.2818 32.4688 54.9999 31.7508 54.9999 30.8684V26.6005C54.9999 25.7181 54.2818 25 53.3994 25ZM53.9329 30.8684C53.9329 31.1623 53.6933 31.4019 53.3994 31.4019H51.6458L48.2576 33.5193L48.6209 31.4019H45.9305C45.6366 31.4019 45.3971 31.1623 45.3971 30.8684V26.6005C45.3971 26.3065 45.6366 26.067 45.9305 26.067H53.3994C53.6933 26.067 53.9329 26.3065 53.9329 26.6005V30.8684Z" fill="#363636"/>
<path d="M52.8657 27.134H46.4639V28.201H52.8657V27.134Z" fill="#363636"/>
<path d="M50.7318 29.2678H46.4639V30.3348H50.7318V29.2678Z" fill="#363636"/>
<path d="M52.8658 29.2678H51.7988V30.3348H52.8658V29.2678Z" fill="#363636"/>
<path d="M38.4619 26.6003C31.4913 26.6003 25.4869 31.422 23.9259 38.1477L22.9149 36.4624L22 37.0114L23.8752 40.136L26.9999 38.2608L26.4509 37.3459L25.0051 38.2133C26.5171 32.0606 32.0499 27.6673 38.4619 27.6673C39.8633 27.6673 41.2462 27.8754 42.5719 28.2862L42.8877 27.2672C41.4595 26.8244 39.9706 26.6003 38.4619 26.6003Z" fill="#363636"/>
<path d="M54.7411 36.8125L51.6165 34.9373L49.7418 38.0624L50.6567 38.6114L51.5903 37.0552C52.0817 38.493 52.333 39.9969 52.333 41.5381C52.333 44.7108 51.234 47.8125 49.2393 50.2713L50.0678 50.9435C52.2167 48.2953 53.3999 44.9546 53.3999 41.5381C53.3999 39.9062 53.1369 38.3126 52.6242 36.7869L54.1922 37.7274L54.7411 36.8125Z" fill="#363636"/>
</svg>
