<svg width="121" height="121" viewBox="0 0 121 121" fill="none" xmlns="http://www.w3.org/2000/svg">
<circle cx="60.5" cy="60.5" r="60.5" fill="white"/>
<path d="M71.5049 78.0453C69.692 78.0453 68.2171 79.5202 68.2171 81.3331C68.2171 83.1459 69.692 84.621 71.5049 84.621C73.3178 84.621 74.7928 83.1459 74.7928 81.3331C74.7928 79.5202 73.3178 78.0453 71.5049 78.0453ZM71.5049 82.6351C70.787 82.6351 70.203 82.0511 70.203 81.3331C70.203 80.6152 70.787 80.0312 71.5049 80.0312C72.2229 80.0312 72.8069 80.6152 72.8069 81.3331C72.8068 82.0511 72.2229 82.6351 71.5049 82.6351Z" fill="#23780E"/>
<path d="M88.6153 90.9693H87.9823C88.1181 90.3973 88.0277 90.8162 88.0544 80.6993C88.0544 80.5689 88.0288 80.4398 87.9789 80.3193C87.929 80.1989 87.8558 80.0894 87.7636 79.9972C87.6714 79.905 87.5619 79.8318 87.4415 79.7819C87.321 79.732 87.1919 79.7064 87.0615 79.7064C86.9311 79.7064 86.8019 79.732 86.6815 79.7819C86.561 79.8318 86.4515 79.905 86.3593 79.9972C86.2671 80.0894 86.194 80.1989 86.1441 80.3193C86.0942 80.4398 86.0685 80.5689 86.0685 80.6993V90.3736C86.0685 90.6965 85.7957 90.9695 85.4727 90.9695H57.5369C57.2141 90.9695 56.9411 90.6966 56.9411 90.3736V72.2933C56.9411 71.9704 57.2139 71.6975 57.5369 71.6975H85.4727C85.7956 71.6975 86.0685 71.9703 86.0685 72.2933V76.0654C86.0685 76.1958 86.0942 76.325 86.1441 76.4454C86.194 76.5659 86.2671 76.6754 86.3593 76.7676C86.4515 76.8598 86.561 76.9329 86.6815 76.9828C86.8019 77.0327 86.9311 77.0584 87.0615 77.0584C87.1919 77.0584 87.321 77.0327 87.4415 76.9828C87.5619 76.9329 87.6714 76.8598 87.7636 76.7676C87.8558 76.6754 87.929 76.5659 87.9789 76.4454C88.0288 76.325 88.0544 76.1958 88.0544 76.0654V72.2933C88.0544 70.8697 86.8961 69.7116 85.4727 69.7116H64.4168L62.2025 68.9584C62.1209 68.9304 62.05 68.8775 61.9999 68.8073C61.9498 68.737 61.9229 68.6529 61.9229 68.5666V66.133C65.5271 63.9909 67.8431 60.3043 68.2658 56.2792C71.3045 56.42 73.3876 53.5185 72.1267 51.0023V42.9072C72.1267 37.0531 68.943 35.0167 67.9703 34.5311C62.3605 27.8343 50.7978 26.86 43.6931 33.5902C43.0378 34.2055 43.4781 35.3071 44.3731 35.3071C45.1045 35.3071 44.9929 34.7951 47.2533 33.3254C47.4208 33.2168 47.7453 33.0252 47.732 33.0332C53.5869 29.5187 62.2237 30.5954 66.5777 35.9642C66.6892 36.1015 66.8249 36.2027 66.9906 36.2647C67.1193 36.3163 70.1407 37.5879 70.1407 42.9074V49.1745C69.5898 48.9413 68.9859 48.8217 68.342 48.8397V45.5918C68.342 44.7679 67.7213 44.087 66.8983 44.0075C65.2296 43.8464 64.2945 42.7591 63.8038 41.8755C63.1897 40.7696 61.7237 40.5046 60.7625 41.326C56.335 45.111 51.2372 45.3032 47.7398 44.7986C45.0895 44.4159 42.6398 46.2248 42.2138 48.8409C41.576 48.8122 40.9399 48.9261 40.3517 49.1742C40.4139 46.082 39.8888 42.7346 42.3384 38.4633C42.4694 38.2349 42.5043 37.9637 42.4355 37.7095C42.3666 37.4554 42.1996 37.2389 41.9712 37.1079C41.7427 36.9769 41.4716 36.9419 41.2174 37.0108C40.9632 37.0797 40.7468 37.2467 40.6158 37.4751C39.1218 40.0802 38.3994 43.0898 38.3801 45.2288C38.3554 45.8692 38.3703 45.6348 38.3659 51.0019C37.1034 53.5215 39.1946 56.4193 42.2269 56.2788C42.662 60.4212 45.117 64.2382 48.9405 66.3464V68.5662C48.9405 68.7431 48.828 68.9004 48.6614 68.9577C44.7255 70.3338 49.3637 68.6605 39.0446 72.3199C38.1438 72.5869 38.3436 72.5174 37.988 72.6623C35.7747 73.592 34.4069 75.3695 33.9648 77.5558C30.8673 93.1137 30.985 92.2315 31.0061 93.0774C31.1027 95.5298 32.6716 96.7754 35.0877 96.7754H58.6856C58.816 96.7754 58.9451 96.7498 59.0656 96.6999C59.186 96.65 59.2955 96.5768 59.3877 96.4846C59.4799 96.3924 59.553 96.283 59.6029 96.1625C59.6528 96.042 59.6785 95.9129 59.6785 95.7825C59.6785 95.6521 59.6528 95.5229 59.6029 95.4025C59.553 95.282 59.4799 95.1725 59.3877 95.0803C59.2955 94.9881 59.186 94.915 59.0656 94.8651C58.9451 94.8152 58.816 94.7895 58.6856 94.7895H55.4317C54.0437 94.7893 53.5841 92.9551 54.395 92.9551H88.6157C89.4279 92.9551 88.963 94.7895 87.579 94.7895H63.3192C63.1888 94.7895 63.0597 94.8152 62.9392 94.8651C62.8187 94.915 62.7092 94.9881 62.617 95.0803C62.5248 95.1725 62.4517 95.282 62.4018 95.4025C62.3519 95.5229 62.3262 95.6521 62.3262 95.7825C62.3262 95.9129 62.3519 96.042 62.4018 96.1625C62.4517 96.283 62.5248 96.3924 62.617 96.4846C62.7092 96.5768 62.8187 96.65 62.9392 96.6999C63.0597 96.7498 63.1888 96.7754 63.3192 96.7754H87.5785C89.4651 96.7754 91 95.2404 91 93.3538C91.0001 92.0391 89.9304 90.9693 88.6153 90.9693ZM68.342 50.8263C69.4869 50.7658 70.5121 51.5371 70.5121 52.5604C70.5121 53.5937 69.4762 54.3546 68.342 54.2946V50.8263ZM42.1503 54.2945C41.0054 54.3552 39.9801 53.5836 39.9801 52.5604C39.9801 51.5271 41.0161 50.7662 42.1503 50.8261V54.2945ZM44.152 55.4342C44.1269 54.9747 44.1392 55.1409 44.1361 50.0231C44.1659 49.8564 43.9225 48.4916 45.1328 47.4433C45.4486 47.1701 45.8196 46.968 46.2205 46.8509C46.6213 46.7337 47.0427 46.7041 47.456 46.7642C51.3588 47.328 57.0599 47.1035 62.0528 42.8356L62.0675 42.8395C63.0265 44.5667 64.5399 45.657 66.356 45.9398C66.356 54.9152 66.4723 55.7902 66.0261 57.5669C65.7516 58.6649 65.2778 59.7735 64.7014 60.7038C58.8743 69.9137 44.695 66.293 44.152 55.4342ZM40.0846 94.7898H35.0873C33.3875 94.7898 33.0827 93.9854 33.0073 93.2844C32.9287 92.5537 33.0907 92.226 33.7744 88.6787H40.0846V94.7898ZM54.3946 90.9695V90.9693C52.7811 90.9693 51.5152 92.5323 52.2034 94.4878C52.2398 94.5903 52.2805 94.6911 52.3256 94.7899H42.0706V85.4309C42.0706 85.3005 42.0449 85.1714 41.995 85.0509C41.9451 84.9304 41.872 84.821 41.7798 84.7288C41.6876 84.6366 41.5781 84.5634 41.4576 84.5135C41.3372 84.4636 41.208 84.438 41.0776 84.438C40.9472 84.438 40.8181 84.4636 40.6976 84.5135C40.5772 84.5634 40.4677 84.6366 40.3755 84.7288C40.2833 84.821 40.2101 84.9304 40.1602 85.0509C40.1103 85.1714 40.0847 85.3005 40.0847 85.4309V86.693H34.1698C36.0429 77.2917 35.9354 77.6852 36.1397 77.1434C36.5484 76.0701 37.1574 75.4419 38.0312 74.8653C38.8081 74.4172 38.8961 74.442 39.6255 74.2195C39.678 74.2045 39.3272 74.3264 45.3491 72.1932L45.3496 72.1931L48.9461 70.9598C48.9702 72.683 50.0742 74.2016 51.7114 74.7498C52.7479 75.097 53.8377 75.2883 54.9554 75.3227C55.0184 90.4319 54.865 90.2956 55.0247 90.9695H54.3946ZM54.9552 72.293V73.3369C54.053 73.3036 53.1756 73.1458 52.3419 72.8663C51.9302 72.7286 51.5722 72.4648 51.3187 72.1123C51.0653 71.7598 50.9292 71.3365 50.9297 70.9023C50.9274 68.4928 50.9336 69.964 50.926 67.2309C55.1214 68.6901 58.4232 67.5324 58.6476 67.5154L58.6453 67.5073L58.6587 67.5036L58.6611 67.5117C59.007 67.3991 59.1232 67.4075 59.9369 67.0944V69.7109H57.5371C56.1135 69.7112 54.9552 70.8695 54.9552 72.293Z" fill="#23780E"/>
</svg>
