<svg width="441" height="166" viewBox="0 0 441 166" fill="none" xmlns="http://www.w3.org/2000/svg">
<path d="M425.859 122.466C419.533 122.466 414.367 127.623 414.367 133.958C414.367 127.607 409.252 122.466 402.901 122.466C409.252 122.466 414.367 117.394 414.367 111C414.367 117.241 419.406 122.466 425.859 122.466Z" fill="#F5BA30"/>
<path d="M419.77 153.706C413.435 153.706 408.278 158.863 408.278 165.198C408.278 158.846 403.163 153.706 396.812 153.706C403.155 153.706 408.278 148.633 408.278 142.24C408.278 148.481 413.308 153.706 419.77 153.706Z" fill="#F5BA30"/>
<path d="M441 137.608C434.665 137.608 429.508 142.765 429.508 149.099C429.508 142.748 424.393 137.608 418.042 137.608C424.385 137.608 429.508 132.535 429.508 126.142C429.508 132.383 434.538 137.608 441 137.608Z" fill="#F5BA30"/>
<path d="M404.036 132.56H400.792V129.309C400.792 128.843 400.411 128.462 399.946 128.462C399.48 128.462 399.099 128.843 399.099 129.309V132.56H395.847C395.381 132.56 395 132.941 395 133.407C395 133.873 395.381 134.254 395.847 134.254H399.099V137.497C399.099 137.963 399.48 138.344 399.946 138.344C400.411 138.344 400.792 137.963 400.792 137.497V134.254H404.036C404.501 134.254 404.883 133.873 404.883 133.407C404.883 132.941 404.51 132.56 404.036 132.56Z" fill="#86C1ED"/>
<path d="M436.038 156.966H432.786V153.714C432.786 153.249 432.405 152.868 431.939 152.868C431.473 152.868 431.092 153.249 431.092 153.714V156.966H427.84C427.374 156.966 426.993 157.347 426.993 157.813C426.993 158.279 427.374 158.66 427.84 158.66H431.092V161.903C431.092 162.369 431.473 162.75 431.939 162.75C432.405 162.75 432.786 162.369 432.786 161.903V158.66H436.038C436.503 158.66 436.884 158.279 436.884 157.813C436.884 157.347 436.512 156.966 436.038 156.966Z" fill="#86C1ED"/>
<path d="M32.5855 21.8187L22.5857 24.1277C22.1158 24.2362 21.749 24.6032 21.6408 25.0732L19.3453 35.0442C19.1382 35.944 17.8569 35.9447 17.6488 35.0451L15.3417 25.0718C15.2332 24.6026 14.8668 24.2362 14.3977 24.1277L4.42436 21.8206C3.52473 21.6125 3.5254 20.3313 4.42525 20.1241L14.3962 17.8286C14.8662 17.7204 15.2332 17.3536 15.3417 16.8837L17.6508 6.88392C17.8585 5.98432 19.1395 5.98432 19.3472 6.88392L21.6534 16.8713C21.7619 17.3409 22.1285 17.7076 22.5981 17.816L32.5855 20.1222C33.4851 20.3299 33.4851 21.6109 32.5855 21.8187ZM43.7692 8.03259L38.9071 6.90989C38.4375 6.80146 38.0709 6.4348 37.9624 5.96524L36.8397 1.10316C36.731 0.632279 36.0605 0.632279 35.9517 1.10316L34.8276 5.97147C34.7191 6.44133 34.3521 6.80812 33.8821 6.91631L29.029 8.03359C28.558 8.14203 28.5576 8.8127 29.0285 8.92163L33.8836 10.0447C34.3527 10.1532 34.7191 10.5196 34.8276 10.9888L35.9507 15.8438C36.0596 16.3147 36.7303 16.3144 36.8387 15.8434L37.956 10.9902C38.0642 10.5203 38.431 10.1532 38.9009 10.0447L43.7692 8.9206C44.2401 8.81187 44.2401 8.14133 43.7692 8.03259ZM48.3166 35.7305L42.1752 34.3124C41.7057 34.204 41.339 33.8373 41.2306 33.3678L39.8125 27.2264C39.679 26.6485 38.8561 26.6485 38.7227 27.2264L37.3028 33.3755C37.1943 33.8454 36.8273 34.2122 36.3573 34.3204L30.2268 35.7317C29.6487 35.8648 29.6483 36.6879 30.2262 36.8216L36.3587 38.2402C36.8279 38.3487 37.1943 38.7151 37.3028 39.1842L38.7214 45.3168C38.8551 45.8947 39.6782 45.8943 39.8113 45.3162L41.2226 39.1857C41.3308 38.7157 41.6976 38.3487 42.1675 38.2402L48.3166 36.8203C48.8945 36.6869 48.8945 35.864 48.3166 35.7305Z" fill="#F5BA30" fill-opacity="0.5"/>
<path d="M32.7539 22.5488L22.7549 24.8584C22.5654 24.9023 22.415 25.0527 22.3711 25.2422L20.0762 35.2119C19.9033 35.9639 19.2686 36.4697 18.4971 36.4697C17.7256 36.4697 17.0918 35.9648 16.918 35.2139L14.6113 25.2402C14.5664 25.0488 14.4199 24.9033 14.2285 24.8584L4.25586 22.5508C3.50391 22.377 3 21.7422 3 20.9717C3 20.2002 3.50488 19.5664 4.25684 19.3936L14.2285 17.0977C14.418 17.0537 14.5674 16.9043 14.6113 16.7148L15.0469 14.8291C15.1406 14.4248 15.5488 14.1699 15.9463 14.2676C16.3496 14.3604 16.6016 14.7637 16.5078 15.167L16.0723 17.0527C15.9004 17.7979 15.3086 18.3887 14.5635 18.5596L4.59277 20.8545C4.55859 20.8633 4.5 20.876 4.5 20.9717C4.5 21.0684 4.55859 21.0811 4.59375 21.0898L14.5664 23.3975C15.3096 23.5684 15.9004 24.1592 16.0723 24.9023L18.3789 34.876C18.3877 34.9111 18.4004 34.9697 18.4971 34.9697C18.5928 34.9697 18.6064 34.9102 18.6152 34.875L20.9102 24.9053C21.0811 24.1602 21.6729 23.5684 22.417 23.3975L32.417 21.0879C32.4521 21.0791 32.5107 21.0664 32.5107 20.9707C32.5107 20.874 32.4521 20.8613 32.417 20.8525L22.4287 18.5469C21.6855 18.375 21.0938 17.7832 20.9229 17.04L18.6172 7.05273C18.6084 7.01758 18.5957 6.95898 18.499 6.95898C18.4023 6.95898 18.3896 7.01758 18.3809 7.05273L17.7939 9.59668C17.7002 10 17.2979 10.2539 16.8945 10.1582C16.4912 10.0654 16.2393 9.66309 16.333 9.25879L16.9199 6.71484C17.0938 5.96387 17.7285 5.45898 18.499 5.45898C19.2695 5.45898 19.9043 5.96387 20.0781 6.71484L22.3838 16.7021C22.4277 16.8916 22.5781 17.042 22.7666 17.0859L32.7549 19.3916C33.5059 19.5654 34.0107 20.2002 34.0107 20.9717C34.0098 21.7422 33.5049 22.376 32.7539 22.5488ZM27.9258 8.47559C27.9258 7.91113 28.3105 7.42871 28.8613 7.30273L33.7139 6.18555C33.9062 6.1416 34.0518 5.99512 34.0967 5.80273L35.2217 0.93457C35.3477 0.384766 35.8311 0 36.3965 0C36.9609 0 37.4443 0.384766 37.5703 0.935547L38.6934 5.7959C38.7373 5.98535 38.8877 6.13574 39.0762 6.17969L43.9385 7.30176C44.4893 7.42969 44.8721 7.91211 44.8721 8.47656C44.8721 9.04102 44.4893 9.52344 43.9395 9.65137L39.0693 10.7754C38.8809 10.8193 38.7305 10.9697 38.6865 11.1592L37.5693 16.0117C37.4434 16.5625 36.96 16.9463 36.3945 16.9463C35.8301 16.9463 35.3467 16.5625 35.2207 16.0117L34.0967 11.1582C34.0518 10.9668 33.9062 10.8203 33.7148 10.7754L28.8594 9.65234C28.3086 9.52441 27.9248 9.04102 27.9258 8.47559ZM30.4385 8.47852L34.0527 9.31445C34.7959 9.48633 35.3867 10.0771 35.5576 10.8203L36.3945 14.4326L37.2256 10.8223C37.3975 10.0771 37.9883 9.48535 38.7314 9.31445L42.3594 8.47656L38.7383 7.64062C37.9951 7.46973 37.4043 6.87793 37.2324 6.13379L36.3955 2.51367L35.5576 6.14062C35.3857 6.88574 34.7939 7.47754 34.0488 7.64746L30.4385 8.47852ZM49.5 36.2754C49.5 36.8887 49.083 37.4131 48.4854 37.5508L42.3359 38.9707C42.1475 39.0146 41.9971 39.165 41.9531 39.3545L40.542 45.4844C40.4043 46.083 39.8799 46.5 39.2666 46.5C38.6533 46.5 38.1289 46.083 37.9912 45.4854L36.5723 39.3535C36.5273 39.1621 36.3809 39.0156 36.1895 38.9707L30.0576 37.5518C29.46 37.4141 29.043 36.8896 29.043 36.2764C29.043 35.6631 29.46 35.1387 30.0576 35.001L36.1895 33.5898C36.3779 33.5459 36.5283 33.3955 36.5723 33.207L37.9922 27.0576C38.1299 26.46 38.6543 26.043 39.2676 26.043C39.8809 26.043 40.4053 26.46 40.543 27.0576L41.9609 33.1992C42.0049 33.3877 42.1553 33.5381 42.3438 33.582L48.4854 35C49.083 35.1377 49.5 35.6621 49.5 36.2754ZM47.3428 36.2754L42.0059 35.043C41.2627 34.8711 40.6719 34.2803 40.5 33.5371L39.2676 28.2002L38.0332 33.5449C37.8623 34.2881 37.2705 34.8789 36.5264 35.0508L31.2002 36.2773L36.5273 37.5098C37.2705 37.6807 37.8623 38.2725 38.0332 39.0156L39.2656 44.3428L40.4922 39.0176C40.6641 38.2725 41.2549 37.6807 41.998 37.5098L47.3428 36.2754ZM16.4199 13.04C16.8301 13.04 17.1699 12.71 17.1699 12.29C17.1699 11.8799 16.8301 11.54 16.4199 11.54C16.0098 11.54 15.6699 11.8799 15.6699 12.29C15.6699 12.71 16.0098 13.04 16.4199 13.04Z" fill="#F5BA30"/>
<path d="M347.467 101.566H351.82L352.88 102.124C354.262 102.852 355.801 103.232 357.363 103.232H372.599H376.157C377.729 103.232 379.004 101.957 379.004 100.384C379.004 98.8115 377.729 97.5366 376.157 97.5366H377.301C378.874 97.5366 380.149 96.2616 380.149 94.6889C380.149 93.1161 378.874 91.8412 377.301 91.8412H378.336C379.909 91.8412 381.184 90.5662 381.184 88.9934C381.184 87.4206 379.909 86.1457 378.336 86.1457H379.435C381.007 86.1457 382.282 84.8707 382.282 83.298C382.282 81.7252 381.007 80.4502 379.435 80.4502H378.016H375.814H372.767H367.471C365.748 80.4502 364.353 79.0501 364.359 77.3272L364.395 67.8717C364.395 66.1134 362.97 64.6879 361.211 64.6879C359.453 64.6879 358.027 66.1133 358.027 67.8717C358.027 67.8717 357.944 69.0995 357.854 70.5312C357.679 73.3461 356.804 76.0725 355.31 78.4647C353.768 80.9334 352.099 83.6872 352.099 83.6872C351.952 83.8847 351.72 84.0011 351.473 84.0011H347.467V101.566Z" fill="#FFE6C6"/>
<path d="M378.909 99.6412C378.508 99.8559 378.051 99.978 377.565 99.978H374.007H358.771C357.209 99.978 355.67 99.5977 354.288 98.8701L353.977 98.7065C353.486 98.4477 352.938 98.3151 352.382 98.3207L350.738 98.3374C349.988 98.345 349.376 97.7392 349.376 96.989V84.7414C349.376 84.49 349.357 84.243 349.323 84.001H340.562V101.68L349.319 101.591L351.823 101.566L352.883 102.124C354.265 102.851 355.803 103.232 357.365 103.232H372.602H376.102C377.597 103.232 378.879 102.102 378.998 100.613C379.025 100.274 378.991 99.9477 378.909 99.6412Z" fill="#F8D3AA"/>
<path d="M336.302 104.111H344.183C345.997 104.111 347.467 102.64 347.467 100.826V84.7421C347.467 82.928 345.997 81.4575 344.183 81.4575H336.302C335.562 81.4575 334.963 82.0571 334.963 82.7968V102.772C334.963 103.511 335.562 104.111 336.302 104.111Z" fill="#C5E97D"/>
<path d="M344.726 81.5016C344.734 81.5931 344.739 81.6865 344.739 81.78V97.8643C344.739 99.6783 343.269 101.149 341.455 101.149H334.963V102.771C334.963 103.511 335.562 104.11 336.302 104.11H344.183C345.997 104.11 347.467 102.64 347.467 100.826V84.7414C347.467 83.1129 346.281 81.761 344.726 81.5016Z" fill="#B1E254"/>
<path d="M361.214 62.4216C360.819 62.4216 360.499 62.1016 360.499 61.7067V59.4651C360.499 59.0701 360.819 58.7501 361.214 58.7501C361.609 58.7501 361.929 59.0701 361.929 59.4651V61.7067C361.929 62.1015 361.609 62.4216 361.214 62.4216Z" fill="black"/>
<path d="M366.197 64.1271C366.032 64.1271 365.866 64.0704 365.731 63.9547C365.432 63.6975 365.397 63.2461 365.655 62.9465L367.114 61.2455C367.372 60.9458 367.823 60.9116 368.123 61.1686C368.422 61.4258 368.457 61.8772 368.199 62.1768L366.74 63.8778C366.598 64.0427 366.398 64.1271 366.197 64.1271Z" fill="black"/>
<path d="M370.157 68.995H367.916C367.521 68.995 367.201 68.6749 367.201 68.28C367.201 67.8851 367.521 67.5651 367.916 67.5651H370.157C370.552 67.5651 370.872 67.8851 370.872 68.28C370.872 68.6749 370.552 68.995 370.157 68.995Z" fill="black"/>
<path d="M356.232 64.1283C356.03 64.1283 355.83 64.0437 355.689 63.879L354.229 62.178C353.972 61.8783 354.006 61.427 354.306 61.1698C354.606 60.9127 355.057 60.9471 355.314 61.2467L356.774 62.9477C357.031 63.2474 356.996 63.6987 356.697 63.9559C356.562 64.0716 356.396 64.1283 356.232 64.1283Z" fill="black"/>
<path d="M354.508 68.995H352.267C351.872 68.995 351.552 68.6749 351.552 68.28C351.552 67.8851 351.872 67.5651 352.267 67.5651H354.508C354.903 67.5651 355.223 67.8851 355.223 68.28C355.223 68.6749 354.903 68.995 354.508 68.995Z" fill="black"/>
<path d="M383 83.2984C383 81.334 381.402 79.7357 379.437 79.7357H375.816C375.421 79.7357 375.101 80.0557 375.101 80.4507C375.101 80.8456 375.421 81.1656 375.816 81.1656H379.437C380.613 81.1656 381.57 82.1224 381.57 83.2984C381.57 84.4745 380.613 85.4312 379.437 85.4312H378.339C377.944 85.4312 377.624 85.7512 377.624 86.1461C377.624 86.541 377.944 86.861 378.339 86.861C379.515 86.861 380.472 87.8177 380.472 88.9938C380.472 90.1698 379.515 91.1265 378.339 91.1265H377.304C376.909 91.1265 376.589 91.4465 376.589 91.8414C376.589 92.2364 376.909 92.5564 377.304 92.5564C378.48 92.5564 379.437 93.5132 379.437 94.6892C379.437 95.8652 378.48 96.8219 377.304 96.8219H376.159C375.764 96.8219 375.444 97.1419 375.444 97.5369C375.444 97.9318 375.764 98.2518 376.159 98.2518C377.335 98.2518 378.292 99.2085 378.292 100.385C378.292 101.561 377.335 102.517 376.159 102.517H357.365C355.925 102.517 354.49 102.163 353.216 101.492L352.156 100.934C352.053 100.88 351.939 100.851 351.823 100.851H348.184C348.184 100.843 348.185 100.835 348.185 100.826V98.116C348.185 97.7211 347.865 97.401 347.47 97.401C347.075 97.401 346.755 97.7211 346.755 98.116V100.826C346.755 102.243 345.602 103.396 344.185 103.396H334.965C334.57 103.396 334.25 103.716 334.25 104.111C334.25 104.506 334.57 104.826 334.965 104.826H344.185C345.877 104.826 347.326 103.769 347.909 102.281H351.646L352.55 102.757C354.029 103.536 355.694 103.947 357.365 103.947H376.159C378.124 103.947 379.722 102.349 379.722 100.385C379.722 99.4411 379.353 98.582 378.753 97.944C379.997 97.3879 380.867 96.1382 380.867 94.6891C380.867 93.7281 380.484 92.8548 379.864 92.2132C381.067 91.6408 381.902 90.4127 381.902 88.9937C381.902 88.0428 381.527 87.178 380.918 86.5385C382.145 85.9754 383 84.7348 383 83.2984Z" fill="black"/>
<path d="M338.17 82.1721H334.965C334.57 82.1721 334.25 81.8521 334.25 81.4571C334.25 81.0622 334.57 80.7422 334.965 80.7422H338.17C338.565 80.7422 338.885 81.0622 338.885 81.4571C338.885 81.8521 338.565 82.1721 338.17 82.1721Z" fill="black"/>
<path d="M372.769 79.736H367.473C366.831 79.736 366.228 79.4855 365.775 79.0309C365.323 78.5762 365.074 77.9724 365.077 77.3307L365.112 67.8724C365.112 65.7226 363.363 63.9736 361.214 63.9736C359.072 63.9736 357.329 65.7089 357.315 67.847C357.303 68.0231 357.225 69.1768 357.143 70.4873C356.975 73.1747 356.133 75.8025 354.706 78.0867C353.287 80.3584 351.742 82.9015 351.518 83.2717C351.506 83.2815 351.491 83.287 351.476 83.287H347.909C347.326 81.7994 345.877 80.7427 344.185 80.7427H341.217C340.822 80.7427 340.502 81.0627 340.502 81.4576C340.502 81.8526 340.822 82.1726 341.217 82.1726H344.185C345.602 82.1726 346.755 83.3254 346.755 84.7423V95.0695C346.755 95.4645 347.075 95.7845 347.47 95.7845C347.864 95.7845 348.185 95.4645 348.185 95.0695V84.7422C348.185 84.7337 348.184 84.7253 348.184 84.7167H351.476C351.945 84.7167 352.394 84.492 352.674 84.1152C352.688 84.097 352.701 84.078 352.713 84.0584C352.729 84.031 354.397 81.2805 355.919 78.844C357.471 76.3589 358.388 73.5 358.57 70.5765C358.659 69.1633 358.742 67.9332 358.743 67.9209C358.744 67.9048 358.745 67.8886 358.745 67.8724C358.745 66.511 359.852 65.4035 361.214 65.4035C362.575 65.4035 363.682 66.511 363.682 67.8697L363.647 77.3253C363.643 78.35 364.039 79.3141 364.762 80.0401C365.486 80.766 366.448 81.1659 367.473 81.1659H372.769C373.164 81.1659 373.484 80.8458 373.484 80.4509C373.484 80.056 373.164 79.736 372.769 79.736Z" fill="black"/>
<path d="M84.5235 70.2501V74.9001H75.2735V105H69.5736V74.9001H60.2736V70.2501H84.5235ZM104.546 77.0001C106.646 77.0001 108.513 77.4501 110.146 78.3501C111.813 79.2501 113.113 80.5834 114.046 82.3501C115.013 84.1167 115.496 86.2501 115.496 88.75V105H109.846V89.6C109.846 87.1334 109.229 85.2501 107.996 83.9501C106.763 82.6167 105.079 81.9501 102.946 81.9501C100.813 81.9501 99.1128 82.6167 97.8461 83.9501C96.6128 85.2501 95.9961 87.1334 95.9961 89.6V105H90.2962V68.0001H95.9961V80.6501C96.9628 79.4834 98.1795 78.5834 99.6461 77.9501C101.146 77.3167 102.779 77.0001 104.546 77.0001ZM120.867 91.1C120.867 88.3334 121.433 85.8834 122.567 83.7501C123.733 81.6167 125.3 79.9667 127.267 78.8001C129.267 77.6001 131.467 77.0001 133.867 77.0001C136.033 77.0001 137.917 77.4334 139.517 78.3001C141.15 79.1334 142.45 80.1834 143.417 81.4501V77.4501H149.167V105H143.417V100.9C142.45 102.2 141.133 103.283 139.467 104.15C137.8 105.017 135.9 105.45 133.767 105.45C131.4 105.45 129.233 104.85 127.267 103.65C125.3 102.417 123.733 100.717 122.567 98.55C121.433 96.35 120.867 93.8667 120.867 91.1ZM143.417 91.2C143.417 89.3 143.017 87.65 142.217 86.2501C141.45 84.8501 140.433 83.7834 139.167 83.0501C137.9 82.3167 136.533 81.9501 135.067 81.9501C133.6 81.9501 132.233 82.3167 130.967 83.0501C129.7 83.7501 128.667 84.8001 127.867 86.2001C127.1 87.5667 126.717 89.2 126.717 91.1C126.717 93 127.1 94.6667 127.867 96.1C128.667 97.5334 129.7 98.6334 130.967 99.4C132.267 100.133 133.633 100.5 135.067 100.5C136.533 100.5 137.9 100.133 139.167 99.4C140.433 98.6667 141.45 97.6 142.217 96.2C143.017 94.7667 143.417 93.1 143.417 91.2ZM170.553 77.0001C172.72 77.0001 174.653 77.4501 176.353 78.3501C178.087 79.2501 179.437 80.5834 180.403 82.3501C181.37 84.1167 181.853 86.2501 181.853 88.75V105H176.203V89.6C176.203 87.1334 175.587 85.2501 174.353 83.9501C173.12 82.6167 171.437 81.9501 169.303 81.9501C167.17 81.9501 165.47 82.6167 164.203 83.9501C162.97 85.2501 162.353 87.1334 162.353 89.6V105H156.653V77.4501H162.353V80.6001C163.287 79.4667 164.47 78.5834 165.903 77.9501C167.37 77.3167 168.92 77.0001 170.553 77.0001ZM200.024 91.25L212.724 105H205.024L194.824 93.15V105H189.124V68.0001H194.824V89.5L204.824 77.4501H212.724L200.024 91.25ZM255.548 70.2501L244.048 92.4V105H238.348V92.4L226.798 70.2501H233.148L241.198 87.3L249.248 70.2501H255.548ZM272.021 105.45C269.421 105.45 267.071 104.867 264.971 103.7C262.871 102.5 261.221 100.833 260.021 98.7C258.821 96.5334 258.221 94.0334 258.221 91.2C258.221 88.4 258.838 85.9167 260.071 83.7501C261.304 81.5834 262.988 79.9167 265.121 78.7501C267.254 77.5834 269.638 77.0001 272.271 77.0001C274.904 77.0001 277.288 77.5834 279.421 78.7501C281.554 79.9167 283.238 81.5834 284.471 83.7501C285.704 85.9167 286.321 88.4 286.321 91.2C286.321 94 285.688 96.4834 284.421 98.65C283.154 100.817 281.421 102.5 279.221 103.7C277.054 104.867 274.654 105.45 272.021 105.45ZM272.021 100.5C273.488 100.5 274.854 100.15 276.121 99.45C277.421 98.75 278.471 97.7 279.271 96.3C280.071 94.9 280.471 93.2 280.471 91.2C280.471 89.2 280.088 87.5167 279.321 86.1501C278.554 84.7501 277.538 83.7001 276.271 83.0001C275.004 82.3001 273.638 81.9501 272.171 81.9501C270.704 81.9501 269.338 82.3001 268.071 83.0001C266.838 83.7001 265.854 84.7501 265.121 86.1501C264.388 87.5167 264.021 89.2 264.021 91.2C264.021 94.1667 264.771 96.4667 266.271 98.1C267.804 99.7 269.721 100.5 272.021 100.5ZM316.906 77.4501V105H311.206V101.75C310.306 102.883 309.122 103.783 307.656 104.45C306.222 105.083 304.689 105.4 303.056 105.4C300.889 105.4 298.939 104.95 297.206 104.05C295.506 103.15 294.156 101.817 293.156 100.05C292.189 98.2834 291.706 96.15 291.706 93.65V77.4501H297.356V92.8C297.356 95.2667 297.972 97.1667 299.206 98.5C300.439 99.8 302.122 100.45 304.256 100.45C306.389 100.45 308.072 99.8 309.306 98.5C310.572 97.1667 311.206 95.2667 311.206 92.8V77.4501H316.906Z" fill="url(#paint0_linear_421_1117)"/>
<defs>
<linearGradient id="paint0_linear_421_1117" x1="128.5" y1="98" x2="261" y2="102.5" gradientUnits="userSpaceOnUse">
<stop stop-color="#23780E"/>
<stop offset="1" stop-color="#123498"/>
</linearGradient>
</defs>
</svg>
