<svg width="121" height="121" viewBox="0 0 121 121" fill="none" xmlns="http://www.w3.org/2000/svg">
<circle cx="60.5" cy="60.5" r="60.5" fill="white"/>
<path d="M90.974 82.844H88.9409V80.811H86.9079V82.844H84.8749V80.811H82.8419V82.844H67.7144C67.1827 82.8412 66.6609 82.9877 66.2084 83.2668C65.7559 83.546 65.3909 83.9465 65.1548 84.4229C65.0872 84.5599 64.9825 84.6752 64.8525 84.7555C64.7225 84.8358 64.5725 84.8779 64.4197 84.877H58.5659C58.4131 84.878 58.2631 84.8359 58.133 84.7556C58.003 84.6753 57.8982 84.56 57.8307 84.4229C57.595 83.9472 57.2308 83.5471 56.7792 83.2681C56.3277 82.989 55.8069 82.8421 55.2761 82.844H40.1486V64.5468H38.1156V82.844H36.0825V64.5468H34.0495V82.844H32.0165C31.7469 82.844 31.4884 82.9511 31.2977 83.1417C31.1071 83.3323 31 83.5909 31 83.8605V86.91C31 89.1555 32.8206 90.976 35.066 90.976H87.9244C90.1699 90.976 91.9905 89.1555 91.9905 86.91V83.8605C91.9905 83.5909 91.8834 83.3323 91.6927 83.1417C91.5021 82.9511 91.2436 82.844 90.974 82.844ZM89.9575 86.91C89.9575 88.0327 89.0472 88.943 87.9244 88.943H35.066C33.9433 88.943 33.033 88.0327 33.033 86.91V84.877H55.2761C55.4289 84.876 55.5789 84.9181 55.7089 84.9984C55.8389 85.0787 55.9437 85.194 56.0112 85.3311C56.2468 85.8068 56.6111 86.2068 57.0627 86.4859C57.5142 86.765 58.035 86.9119 58.5658 86.91H64.4247C64.9564 86.9129 65.4782 86.7664 65.9307 86.4873C66.3832 86.2081 66.7482 85.8075 66.9842 85.3311C67.0514 85.1948 67.1554 85.08 67.2844 84.9998C67.4135 84.9195 67.5624 84.877 67.7144 84.877H89.9575V86.91ZM57.4292 46.2497V44.2167H39.1321C36.3262 44.2201 34.053 46.4934 34.0495 49.2992V50.3157H36.0825V49.2992C36.0825 47.6151 37.448 46.2497 39.1321 46.2497H57.4292Z" fill="#23780E"/>
<path d="M38.1149 50.3157H59.4615V48.2827H40.1479C39.0251 48.2827 38.1149 49.1929 38.1149 50.3157ZM88.6737 42.7802L89.8937 38.935C89.9367 38.8002 89.9511 38.6579 89.936 38.5173C89.921 38.3766 89.8768 38.2406 89.8063 38.118C89.7356 37.9955 89.6402 37.8891 89.5261 37.8056C89.4121 37.722 89.2819 37.6631 89.1438 37.6326L85.2003 36.7705L84.3426 32.8315C84.3127 32.6934 84.2544 32.5631 84.1714 32.4489C84.0883 32.3346 83.9824 32.239 83.8603 32.168C83.7382 32.0967 83.6026 32.0518 83.4622 32.0361C83.3217 32.0203 83.1796 32.0341 83.0448 32.0765L79.1991 33.296L76.4766 30.317C76.2796 30.1141 76.0086 30 75.7257 30C75.4427 30 75.1717 30.1142 74.9747 30.3172L72.2562 33.3016L68.4065 32.0767C68.2718 32.0337 68.1295 32.0193 67.9888 32.0344C67.8482 32.0495 67.7122 32.0938 67.5897 32.1645C67.4671 32.2352 67.3607 32.3307 67.2772 32.4449C67.1936 32.5591 67.1349 32.6895 67.1046 32.8277L66.2425 36.7706L62.3075 37.6327C62.1692 37.6629 62.0388 37.7217 61.9246 37.8052C61.8103 37.8888 61.7148 37.9953 61.6441 38.1179C61.5734 38.2405 61.5291 38.3765 61.514 38.5173C61.499 38.658 61.5134 38.8003 61.5565 38.9351L62.7766 42.7803L59.7921 45.4988C59.5807 45.6913 59.46 45.9639 59.46 46.2498C59.46 46.5357 59.5807 46.8081 59.7921 47.0007L62.7766 49.7191L61.5565 53.5643C61.5134 53.6991 61.499 53.8414 61.514 53.9822C61.5291 54.1229 61.5734 54.2589 61.6441 54.3815C61.7148 54.5041 61.8103 54.6106 61.9246 54.6942C62.0388 54.7777 62.1692 54.8365 62.3075 54.8667L66.251 55.7288L67.1125 59.6719C67.1428 59.8101 67.2016 59.9405 67.2852 60.0547C67.3688 60.1689 67.4754 60.2643 67.598 60.3349C67.7206 60.4057 67.8565 60.4501 67.9972 60.4652C68.138 60.4804 68.2803 60.4659 68.4151 60.4228L72.2602 59.1979L74.9786 62.1823C75.0738 62.2868 75.1898 62.3704 75.3192 62.4276C75.4485 62.4848 75.5884 62.5143 75.7298 62.5143C75.8713 62.5143 76.0111 62.4848 76.1405 62.4276C76.2699 62.3704 76.3858 62.2868 76.481 62.1823L79.1989 59.1978L83.0448 60.4227C83.1795 60.4657 83.3218 60.4801 83.4625 60.465C83.6031 60.4499 83.7391 60.4056 83.8616 60.3349C83.9842 60.2642 84.0906 60.1687 84.1742 60.0545C84.2577 59.9403 84.3164 59.8099 84.3467 59.6717L85.2088 55.729L89.1517 54.8667C89.29 54.8365 89.4204 54.7777 89.5346 54.6942C89.6489 54.6106 89.7444 54.5041 89.8151 54.3815C89.8858 54.2589 89.9301 54.1229 89.9452 53.9822C89.9602 53.8414 89.9457 53.6991 89.9026 53.5643L88.6832 49.7191L91.6677 47.0007C91.8786 46.8081 91.9993 46.5357 91.9993 46.2498C91.9993 45.9639 91.8786 45.6913 91.6677 45.4988L88.6737 42.7802ZM86.8229 48.6548C86.6791 48.7859 86.576 48.9554 86.5257 49.1434C86.4755 49.3313 86.4803 49.5297 86.5395 49.715L87.619 53.1191L84.1292 53.8823C83.9396 53.9241 83.7659 54.0193 83.6287 54.1566C83.4914 54.2939 83.3962 54.4676 83.3544 54.6572L82.5951 58.1429L79.1911 57.0591C79.0057 57.0007 78.8075 56.9964 78.6197 57.0466C78.4319 57.0969 78.2624 57.1996 78.131 57.3428L75.7257 59.9879L73.3203 57.3449C73.2252 57.2404 73.1092 57.157 72.9799 57.0998C72.8506 57.0427 72.7108 57.0133 72.5694 57.0133C72.466 57.0136 72.3632 57.0298 72.2647 57.0615L68.8563 58.1429L68.0929 54.6532C68.0512 54.4636 67.956 54.2899 67.8187 54.1526C67.6814 54.0154 67.5077 53.9202 67.3181 53.8784L63.8323 53.1189L64.9164 49.715C64.9755 49.5297 64.9801 49.3312 64.9298 49.1433C64.8795 48.9554 64.7762 48.7858 64.6324 48.6548L61.9874 46.2495L64.6303 43.8443C64.7742 43.7134 64.8775 43.5438 64.9277 43.3558C64.978 43.1679 64.9732 42.9694 64.9138 42.7841L63.8323 39.3802L67.3221 38.6168C67.5116 38.575 67.6853 38.4799 67.8226 38.3426C67.9599 38.2054 68.0551 38.0317 68.0969 37.8421L68.8562 34.3562L72.2602 35.4402C72.6389 35.5609 73.0529 35.4503 73.3203 35.1564L75.7257 32.5114L78.131 35.1543C78.2619 35.2982 78.4315 35.4014 78.6194 35.4516C78.8074 35.5018 79.0058 35.497 79.1911 35.4377L82.5951 34.3564L83.3584 37.846C83.4002 38.0356 83.4953 38.2093 83.6326 38.3466C83.7699 38.4839 83.9436 38.5791 84.1332 38.6209L87.623 39.3843L86.5394 42.7887C86.4803 42.974 86.4755 43.1723 86.5257 43.3602C86.576 43.5482 86.679 43.7177 86.8227 43.8488L89.4639 46.2496L86.8229 48.6548Z" fill="#23780E"/>
<path d="M69.9251 50.6137L80.0896 40.4486L81.5275 41.8859L71.3624 52.051L69.9251 50.6137ZM73.6933 43.2003C73.6933 41.5162 72.3278 40.1508 70.6437 40.1508C68.9596 40.1508 67.5942 41.5162 67.5942 43.2003C67.5942 44.8844 68.9596 46.2498 70.6437 46.2498C72.3278 46.2498 73.6933 44.8844 73.6933 43.2003ZM69.6272 43.2003C69.6272 42.9307 69.7343 42.6721 69.925 42.4815C70.1156 42.2909 70.3741 42.1838 70.6437 42.1838C70.9133 42.1838 71.1719 42.2909 71.3625 42.4815C71.5531 42.6721 71.6602 42.9307 71.6602 43.2003C71.6602 43.4699 71.5531 43.7284 71.3625 43.9191C71.1719 44.1097 70.9133 44.2168 70.6437 44.2168C70.3741 44.2168 70.1156 44.1097 69.925 43.9191C69.7343 43.7284 69.6272 43.4699 69.6272 43.2003ZM80.8088 46.2498C79.1247 46.2498 77.7593 47.6152 77.7593 49.2993C77.7593 50.9834 79.1247 52.3488 80.8088 52.3488C82.4929 52.3488 83.8583 50.9834 83.8583 49.2993C83.8583 47.6152 82.4929 46.2498 80.8088 46.2498ZM80.8088 50.3158C80.5392 50.3158 80.2806 50.2087 80.09 50.0181C79.8993 49.8274 79.7922 49.5689 79.7922 49.2993C79.7922 49.0297 79.8993 48.7711 80.09 48.5804C80.2806 48.3898 80.5392 48.2827 80.8088 48.2827C81.0784 48.2827 81.337 48.3898 81.5276 48.5804C81.7182 48.7711 81.8253 49.0296 81.8253 49.2992C81.8253 49.5688 81.7182 49.8273 81.5276 50.018C81.337 50.2086 81.0784 50.3158 80.8088 50.3158ZM57.3923 57.1947C57.225 57.1547 57.0503 57.1581 56.8848 57.2046C56.7192 57.2512 56.5683 57.3393 56.4464 57.4606L46.5251 67.2793L44.1128 68.7148C42.5116 69.6459 41.7889 71.5766 42.3851 73.3307C42.6138 74.0273 43.0361 74.6444 43.6025 75.1098C44.169 75.5753 44.8562 75.8699 45.5839 75.9593L47.7013 80.2437C47.7855 80.4143 47.9158 80.5578 48.0776 80.658C48.2393 80.7581 48.4259 80.8108 48.6161 80.8101H52.6151C52.784 80.8103 52.9502 80.7684 53.0989 80.6883C53.2475 80.6081 53.3738 80.4922 53.4664 80.351C53.559 80.2097 53.6149 80.0476 53.6292 79.8794C53.6435 79.7111 53.6157 79.5419 53.5482 79.3871L51.4438 74.5288L62.4943 74.712H62.5117C62.6736 74.712 62.8332 74.6733 62.9771 74.5992C63.121 74.525 63.2452 74.4175 63.3391 74.2856C63.4331 74.1537 63.4942 74.0012 63.5173 73.8409C63.5405 73.6805 63.525 73.517 63.4721 73.3639L58.1225 57.8522C58.0663 57.6898 57.9699 57.5443 57.8422 57.4293C57.7145 57.3143 57.5598 57.2335 57.3924 57.1945L57.3923 57.1947ZM44.3162 72.6789C44.1775 72.2692 44.1849 71.8243 44.337 71.4194C44.4891 71.0146 44.7765 70.6748 45.1506 70.4578L46.7384 69.5156L48.5163 73.0317L47.0109 73.7767C46.7613 73.9005 46.4881 73.9693 46.2096 73.9783C45.9312 73.9874 45.654 73.9366 45.3969 73.8293C45.1443 73.7271 44.9168 73.5713 44.7303 73.3727C44.5437 73.1741 44.4024 72.9374 44.3162 72.6789ZM49.2484 78.7779L47.7113 75.6733C47.7752 75.645 47.8442 75.6341 47.9083 75.6024L49.3746 74.8767L51.0635 78.7779H49.2484ZM50.5171 72.4847L48.3987 68.2907L56.7337 60.0425L61.0837 72.6555L50.5171 72.4847ZM62.6744 64.806L66.0362 63.6377L66.7027 65.557L63.3415 66.7253L62.6744 64.806ZM60.0329 58.0483L62.275 55.7116L63.7422 57.1192L61.4996 59.4559L60.0329 58.0483ZM65.5612 71.6625H68.6107V73.6955H65.5612V71.6625ZM90.9739 64.5469H88.9409V57.4314H86.9079V64.5469H84.8748V62.5139H82.8418V64.5469H71.6602C71.3906 64.5469 71.1321 64.654 70.9415 64.8447C70.7508 65.0353 70.6437 65.2939 70.6437 65.5634V77.7615C70.6437 78.0311 70.7508 78.2897 70.9415 78.4803C71.1321 78.671 71.3906 78.778 71.6602 78.778H90.9739C91.2435 78.778 91.502 78.671 91.6927 78.4803C91.8833 78.2897 91.9904 78.0311 91.9904 77.7615V65.5634C91.9904 65.2939 91.8833 65.0353 91.6927 64.8447C91.502 64.654 91.2435 64.5469 90.9739 64.5469ZM89.9574 76.745H72.6768V66.58H89.9574V76.745Z" fill="#23780E"/>
<path d="M74.7098 68.613H78.7759V70.646H74.7098V68.613ZM80.8089 68.613H87.9244V70.646H80.8089V68.613ZM74.7098 72.679H87.9244V74.712H74.7098V72.679ZM32.0165 62.514H47.2641C47.5337 62.514 47.7923 62.4069 47.9829 62.2162C48.1735 62.0256 48.2806 61.767 48.2806 61.4974V53.3654C48.2806 53.0958 48.1735 52.8372 47.9829 52.6466C47.7923 52.456 47.5337 52.3489 47.2641 52.3489H32.0165C31.7469 52.3489 31.4884 52.456 31.2977 52.6466C31.1071 52.8372 31 53.0958 31 53.3654V61.4974C31 61.767 31.1071 62.0256 31.2977 62.2162C31.4884 62.4069 31.7469 62.514 32.0165 62.514ZM33.033 54.3819H46.2476V60.4809H33.033V54.3819Z" fill="#23780E"/>
<path d="M35.0649 56.4148H37.0979V58.4478H35.0649V56.4148ZM39.1309 56.4148H44.2134V58.4478H39.1309V56.4148Z" fill="#23780E"/>
</svg>
