<svg width="12" height="12" viewBox="0 0 12 12" fill="none" xmlns="http://www.w3.org/2000/svg">
<path d="M11.8342 1.70436C11.7276 1.59793 11.5859 1.53937 11.4353 1.53937C11.4349 1.53937 11.4345 1.53937 11.4341 1.53937L9.43802 1.54348L9.01421 1.0004C8.51791 0.364406 7.77113 0 6.96457 0C6.96284 0 6.90662 0.0001034 6.90662 0.0001034C6.62718 0.000626147 6.35764 0.0439365 6.10379 0.123194C6.09124 0.122807 6.07872 0.122277 6.06611 0.122277C5.74782 0.122277 5.44858 0.246231 5.22351 0.471299L2.51718 3.17763C2.07892 3.61589 1.99138 4.29562 2.30431 4.83062C2.3523 4.91267 2.40848 4.98854 2.47125 5.05786C2.26786 5.29639 2.07166 5.54159 1.88435 5.79413C1.15797 6.77339 0.528952 7.8893 0.0148002 9.11087C-0.025549 9.20669 0.0194417 9.31705 0.115259 9.35738C0.13911 9.36743 0.163857 9.37217 0.188191 9.37217C0.261674 9.37217 0.331481 9.32888 0.361766 9.25691C0.864268 8.06309 1.47826 6.97349 2.18671 6.01842C2.36971 5.77171 2.56138 5.53218 2.76012 5.29922C2.85704 5.35958 2.96176 5.40829 3.07267 5.44314C3.26936 5.50496 3.47051 5.53482 3.6695 5.53482C4.2813 5.53482 4.87262 5.25256 5.25099 4.74935C5.73093 4.11107 6.08766 3.44509 6.31131 2.76991C6.344 2.67122 6.29051 2.56472 6.19182 2.53203C6.09311 2.49935 5.98663 2.55285 5.95395 2.65153C5.74318 3.28785 5.40543 3.91754 4.95007 4.5231C4.54433 5.06277 3.83528 5.2882 3.18554 5.084C2.95096 5.01027 2.75341 4.8528 2.62927 4.64055C2.40273 4.25322 2.4661 3.76112 2.7834 3.44383L5.48973 0.737497C5.64368 0.583534 5.84839 0.498746 6.06611 0.498746C6.28385 0.498746 6.48856 0.583534 6.64251 0.737497C6.71601 0.811026 6.83518 0.811026 6.90873 0.737497C6.98223 0.663991 6.98223 0.544805 6.90873 0.471299C6.87567 0.438238 6.84083 0.407639 6.80474 0.379014C6.83876 0.377464 6.87295 0.376637 6.90733 0.376573C6.90733 0.376573 6.96305 0.376469 6.96457 0.376469C7.65429 0.376469 8.29301 0.688141 8.71743 1.23201L9.1979 1.84772C9.23356 1.89343 9.28831 1.92014 9.34629 1.92014H9.34668L10.2439 1.91829V2.12171C10.2439 2.32866 10.3766 2.50916 10.5741 2.57088L11.6235 2.8988V3.12075C11.6235 3.4013 11.4223 3.636 11.145 3.67883L8.08892 4.15089C8.07226 4.15346 8.0564 4.15882 8.04121 4.1656C7.61501 4.15816 7.2413 3.98962 6.86792 3.63588C6.79246 3.56442 6.67334 3.56758 6.60181 3.64307C6.53031 3.71854 6.53355 3.83768 6.60901 3.90918C6.95988 4.24159 7.32797 4.44021 7.72591 4.51186C7.56783 4.7197 7.4164 4.9569 7.27011 5.22593L7.2786 5.03493C7.2841 4.91123 7.21576 4.79616 7.1045 4.74177C6.99326 4.68739 6.86048 4.70415 6.7662 4.78446L6.31147 5.17202C5.48084 5.87995 4.82043 6.78689 4.40169 7.79475C3.98294 8.80262 3.80621 9.91051 3.89063 10.9987L3.90155 11.1393C3.91814 11.3533 3.90543 11.5677 3.86377 11.7765C3.84344 11.8785 3.90961 11.9776 4.01154 11.9979C4.11359 12.0183 4.21265 11.9521 4.23298 11.8502C4.28137 11.6075 4.29615 11.3585 4.27687 11.1102L4.26595 10.9695C4.18613 9.94034 4.35327 8.89247 4.74934 7.9392C5.14541 6.98592 5.77002 6.12814 6.55567 5.45855L6.89582 5.16865L6.84997 6.19967C6.84926 6.2156 6.84974 6.23133 6.85086 6.24691C6.85071 6.24767 6.85046 6.24839 6.85032 6.24916C6.82512 6.38316 6.78533 6.49575 6.73046 6.58881L6.49613 6.82313C6.40938 6.87263 6.30721 6.90471 6.1884 6.92007C6.08529 6.93339 6.01252 7.02778 6.02585 7.13088C6.03812 7.2258 6.11907 7.29501 6.21229 7.29501C6.22034 7.29501 6.22847 7.29449 6.23665 7.29343C6.67394 7.23691 6.98071 7.0026 7.13715 6.61032C7.16829 6.62034 7.20086 6.62718 7.23478 6.62941C7.45112 6.64361 7.79905 6.66686 8.14593 6.69014C8.70199 6.72744 9.15787 7.15561 9.22995 7.70822L9.28574 8.13602C9.31164 8.33425 9.47533 8.48513 9.67499 8.49477L10.148 8.51766C10.2746 8.52377 10.3892 8.58652 10.4626 8.68981C10.536 8.79309 10.5575 8.92204 10.5216 9.04355L10.3087 9.76407C10.2272 10.04 9.98971 10.238 9.70366 10.2685L8.20638 10.4282C7.99315 10.4509 7.80691 10.5782 7.70815 10.7687C7.60971 10.9586 7.61295 11.1834 7.71691 11.3702C7.73058 11.3947 7.74402 11.4192 7.7573 11.4438C7.83467 11.5872 7.90716 11.7366 7.97279 11.8882C8.00355 11.9592 8.07283 12.0016 8.1456 12.0016C8.17058 12.0016 8.19597 11.9966 8.22033 11.9861C8.31573 11.9447 8.35955 11.8339 8.31824 11.7385C8.24834 11.5771 8.17106 11.4178 8.0886 11.265C8.07453 11.2389 8.06026 11.2129 8.04581 11.187C8.00289 11.1098 8.00165 11.0205 8.04239 10.9419C8.08343 10.8628 8.15776 10.812 8.24632 10.8025L9.7436 10.6428C10.1814 10.5961 10.545 10.2931 10.6698 9.87074L10.8826 9.15019C10.9515 8.91715 10.9102 8.66989 10.7695 8.47178C10.6288 8.2737 10.4089 8.15336 10.1662 8.14163L9.69316 8.11874C9.67565 8.1179 9.66131 8.10467 9.65904 8.08731L9.60325 7.65953C9.50805 6.92946 8.90576 6.36381 8.17113 6.31452C7.82405 6.29122 7.47594 6.26797 7.25946 6.25374C7.23986 6.25246 7.2252 6.23606 7.22608 6.2164L7.22941 6.14147C7.24896 6.12392 7.26525 6.10212 7.27637 6.07644C7.56888 5.40129 7.87536 4.88894 8.21196 4.51282L11.2025 4.05089C11.6646 3.97951 12 3.58832 12 3.12075V2.10407C12 1.95301 11.9411 1.81106 11.8342 1.70436ZM10.6864 2.21155C10.6469 2.1992 10.6203 2.1631 10.6203 2.12171V1.91752L11.4349 1.91584H11.4353C11.4855 1.91584 11.5327 1.93536 11.5683 1.97083C11.6039 2.0064 11.6235 2.05371 11.6235 2.10407V2.50439L10.6864 2.21155Z" fill="#123498"/>
</svg>
