<svg width="62" height="14" viewBox="0 0 62 14" fill="none" xmlns="http://www.w3.org/2000/svg">
<path d="M21.7897 4.55344L19.4945 10.6364H18.5781L16.2828 4.55344H17.1294L19.0406 9.79853L20.9519 4.55344H21.7897ZM27.0242 8.06181C27.0242 8.21308 27.0155 8.37308 26.998 8.54181H23.1755C23.2045 9.01308 23.3645 9.38253 23.6555 9.65017C23.9522 9.91199 24.31 10.0429 24.7289 10.0429C25.0722 10.0429 25.3573 9.96435 25.5842 9.80726C25.8169 9.64435 25.9798 9.42908 26.0729 9.16144H26.9282C26.8002 9.62108 26.5442 9.99635 26.1602 10.2873C25.7762 10.5724 25.2991 10.7149 24.7289 10.7149C24.2751 10.7149 23.8678 10.6131 23.5071 10.4094C23.1522 10.2058 22.8729 9.91781 22.6693 9.54544C22.4656 9.16726 22.3638 8.7309 22.3638 8.23635C22.3638 7.74181 22.4627 7.30835 22.6605 6.93599C22.8584 6.56363 23.1347 6.27853 23.4896 6.08072C23.8504 5.87708 24.2635 5.77526 24.7289 5.77526C25.1827 5.77526 25.5842 5.87417 25.9333 6.07199C26.2824 6.26981 26.55 6.54326 26.7362 6.89235C26.9282 7.23563 27.0242 7.62544 27.0242 8.06181ZM26.2038 7.89599C26.2038 7.59344 26.1369 7.33453 26.0031 7.11926C25.8693 6.89817 25.686 6.73235 25.4533 6.62181C25.2264 6.50544 24.9733 6.44726 24.694 6.44726C24.2925 6.44726 23.9493 6.57526 23.6642 6.83126C23.3849 7.08726 23.2249 7.44217 23.1842 7.89599H26.2038ZM29.0412 6.50835V9.32726C29.0412 9.55999 29.0907 9.72581 29.1896 9.82472C29.2885 9.91781 29.4601 9.96435 29.7045 9.96435H30.2892V10.6364H29.5736C29.1314 10.6364 28.7998 10.5345 28.5787 10.3309C28.3576 10.1273 28.247 9.79272 28.247 9.32726V6.50835H27.6274V5.85381H28.247V4.64944H29.0412V5.85381H30.2892V6.50835H29.0412ZM35.6151 8.06181C35.6151 8.21308 35.6064 8.37308 35.5889 8.54181H31.7664C31.7955 9.01308 31.9555 9.38253 32.2464 9.65017C32.5431 9.91199 32.9009 10.0429 33.3198 10.0429C33.6631 10.0429 33.9482 9.96435 34.1751 9.80726C34.4078 9.64435 34.5707 9.42908 34.6638 9.16144H35.5191C35.3911 9.62108 35.1351 9.99635 34.7511 10.2873C34.3671 10.5724 33.89 10.7149 33.3198 10.7149C32.866 10.7149 32.4587 10.6131 32.098 10.4094C31.7431 10.2058 31.4638 9.91781 31.2602 9.54544C31.0565 9.16726 30.9547 8.7309 30.9547 8.23635C30.9547 7.74181 31.0536 7.30835 31.2515 6.93599C31.4493 6.56363 31.7256 6.27853 32.0805 6.08072C32.4413 5.87708 32.8544 5.77526 33.3198 5.77526C33.7736 5.77526 34.1751 5.87417 34.5242 6.07199C34.8733 6.26981 35.1409 6.54326 35.3271 6.89235C35.5191 7.23563 35.6151 7.62544 35.6151 8.06181ZM34.7947 7.89599C34.7947 7.59344 34.7278 7.33453 34.594 7.11926C34.4602 6.89817 34.2769 6.73235 34.0442 6.62181C33.8173 6.50544 33.5642 6.44726 33.2849 6.44726C32.8835 6.44726 32.5402 6.57526 32.2551 6.83126C31.9758 7.08726 31.8158 7.44217 31.7751 7.89599H34.7947ZM37.4576 6.63053C37.5972 6.35708 37.795 6.14472 38.051 5.99344C38.3128 5.84217 38.6299 5.76653 39.0023 5.76653V6.5869H38.7928C37.9027 6.5869 37.4576 7.06981 37.4576 8.03563V10.6364H36.6634V5.85381H37.4576V6.63053ZM40.3293 5.07708C40.178 5.07708 40.05 5.02472 39.9453 4.91999C39.8405 4.81526 39.7882 4.68726 39.7882 4.53599C39.7882 4.38472 39.8405 4.25672 39.9453 4.15199C40.05 4.04726 40.178 3.9949 40.3293 3.9949C40.4747 3.9949 40.5969 4.04726 40.6958 4.15199C40.8005 4.25672 40.8529 4.38472 40.8529 4.53599C40.8529 4.68726 40.8005 4.81526 40.6958 4.91999C40.5969 5.02472 40.4747 5.07708 40.3293 5.07708ZM40.7133 5.85381V10.6364H39.9191V5.85381H40.7133ZM44.397 5.76653C44.9788 5.76653 45.4501 5.94399 45.8108 6.2989C46.1715 6.64799 46.3519 7.15417 46.3519 7.81744V10.6364H45.5664V7.9309C45.5664 7.45381 45.4472 7.09017 45.2086 6.83999C44.9701 6.58399 44.6443 6.45599 44.2312 6.45599C43.8123 6.45599 43.4777 6.5869 43.2275 6.84872C42.9832 7.11053 42.861 7.49163 42.861 7.99199V10.6364H42.0668V5.85381H42.861V6.53453C43.0181 6.29017 43.2304 6.10108 43.4981 5.96726C43.7715 5.83344 44.0712 5.76653 44.397 5.76653ZM47.3525 8.22763C47.3525 7.7389 47.4514 7.31126 47.6492 6.94472C47.847 6.57235 48.1175 6.28435 48.4608 6.08072C48.8099 5.87708 49.1968 5.77526 49.6215 5.77526C50.0405 5.77526 50.4041 5.86544 50.7125 6.04581C51.0208 6.22617 51.2506 6.45308 51.4019 6.72653V5.85381H52.2048V10.6364H51.4019V9.74617C51.2448 10.0254 51.0092 10.2582 50.695 10.4444C50.3866 10.6247 50.0259 10.7149 49.6128 10.7149C49.1881 10.7149 48.8041 10.6102 48.4608 10.4007C48.1175 10.1913 47.847 9.89744 47.6492 9.51926C47.4514 9.14108 47.3525 8.71053 47.3525 8.22763ZM51.4019 8.23635C51.4019 7.87563 51.3292 7.56144 51.1837 7.29381C51.0383 7.02617 50.8405 6.82253 50.5903 6.6829C50.3459 6.53744 50.0754 6.46472 49.7786 6.46472C49.4819 6.46472 49.2114 6.53453 48.967 6.67417C48.7226 6.81381 48.5277 7.01744 48.3823 7.28508C48.2368 7.55272 48.1641 7.8669 48.1641 8.22763C48.1641 8.59417 48.2368 8.91417 48.3823 9.18763C48.5277 9.45526 48.7226 9.66181 48.967 9.80726C49.2114 9.9469 49.4819 10.0167 49.7786 10.0167C50.0754 10.0167 50.3459 9.9469 50.5903 9.80726C50.8405 9.66181 51.0383 9.45526 51.1837 9.18763C51.3292 8.91417 51.4019 8.59708 51.4019 8.23635ZM54.3411 6.63053C54.4807 6.35708 54.6785 6.14472 54.9345 5.99344C55.1964 5.84217 55.5135 5.76653 55.8858 5.76653V6.5869H55.6764C54.7862 6.5869 54.3411 7.06981 54.3411 8.03563V10.6364H53.5469V5.85381H54.3411V6.63053ZM60.9219 5.85381L58.0419 12.888H57.2215L58.164 10.584L56.2353 5.85381H57.1168L58.6179 9.72872L60.1015 5.85381H60.9219Z" fill="white"/>
<path d="M7.81165 3.09571C7.96759 3.09571 8.094 2.9693 8.094 2.81336C8.094 2.65742 7.96759 2.53101 7.81165 2.53101C7.65571 2.53101 7.5293 2.65742 7.5293 2.81336C7.5293 2.9693 7.65571 3.09571 7.81165 3.09571Z" fill="white"/>
<path d="M11.8342 2.70436C11.7276 2.59793 11.5859 2.53937 11.4353 2.53937C11.4349 2.53937 11.4345 2.53937 11.4341 2.53937L9.43802 2.54348L9.01421 2.0004C8.51791 1.36441 7.77113 1 6.96457 1C6.96284 1 6.90662 1.0001 6.90662 1.0001C6.62718 1.00063 6.35764 1.04394 6.10379 1.12319C6.09124 1.12281 6.07872 1.12228 6.06611 1.12228C5.74782 1.12228 5.44858 1.24623 5.22351 1.4713L2.51718 4.17763C2.07892 4.61589 1.99138 5.29562 2.30431 5.83062C2.3523 5.91267 2.40848 5.98854 2.47125 6.05786C2.26786 6.29639 2.07166 6.54159 1.88435 6.79413C1.15797 7.77339 0.528952 8.8893 0.0148002 10.1109C-0.025549 10.2067 0.0194417 10.317 0.115259 10.3574C0.13911 10.3674 0.163857 10.3722 0.188191 10.3722C0.261674 10.3722 0.331481 10.3289 0.361766 10.2569C0.864268 9.06309 1.47826 7.97349 2.18671 7.01842C2.36971 6.77171 2.56138 6.53218 2.76012 6.29922C2.85704 6.35958 2.96176 6.40829 3.07267 6.44314C3.26936 6.50496 3.47051 6.53482 3.6695 6.53482C4.2813 6.53482 4.87262 6.25256 5.25099 5.74935C5.73093 5.11107 6.08766 4.44509 6.31131 3.76991C6.344 3.67122 6.29051 3.56472 6.19182 3.53203C6.09311 3.49935 5.98663 3.55285 5.95395 3.65153C5.74318 4.28785 5.40543 4.91754 4.95007 5.5231C4.54433 6.06277 3.83528 6.2882 3.18554 6.084C2.95096 6.01027 2.75341 5.8528 2.62927 5.64055C2.40273 5.25322 2.4661 4.76112 2.7834 4.44383L5.48973 1.7375C5.64368 1.58353 5.84839 1.49875 6.06611 1.49875C6.28385 1.49875 6.48856 1.58353 6.64251 1.7375C6.71601 1.81103 6.83518 1.81103 6.90873 1.7375C6.98223 1.66399 6.98223 1.5448 6.90873 1.4713C6.87567 1.43824 6.84083 1.40764 6.80474 1.37901C6.83876 1.37746 6.87295 1.37664 6.90733 1.37657C6.90733 1.37657 6.96305 1.37647 6.96457 1.37647C7.65429 1.37647 8.29301 1.68814 8.71743 2.23201L9.1979 2.84772C9.23356 2.89343 9.28831 2.92014 9.34629 2.92014H9.34668L10.2439 2.91829V3.12171C10.2439 3.32866 10.3766 3.50916 10.5741 3.57088L11.6235 3.8988V4.12075C11.6235 4.4013 11.4223 4.636 11.145 4.67883L8.08892 5.15089C8.07226 5.15346 8.0564 5.15882 8.04121 5.1656C7.61501 5.15816 7.2413 4.98962 6.86792 4.63588C6.79246 4.56442 6.67334 4.56758 6.60181 4.64307C6.53031 4.71854 6.53355 4.83768 6.60901 4.90918C6.95988 5.24159 7.32797 5.44021 7.72591 5.51186C7.56783 5.7197 7.4164 5.9569 7.27011 6.22593L7.2786 6.03493C7.2841 5.91123 7.21576 5.79616 7.1045 5.74177C6.99326 5.68739 6.86048 5.70415 6.7662 5.78446L6.31147 6.17202C5.48084 6.87995 4.82043 7.78689 4.40169 8.79475C3.98294 9.80262 3.80621 10.9105 3.89063 11.9987L3.90155 12.1393C3.91814 12.3533 3.90543 12.5677 3.86377 12.7765C3.84344 12.8785 3.90961 12.9776 4.01154 12.9979C4.11359 13.0183 4.21265 12.9521 4.23298 12.8502C4.28137 12.6075 4.29615 12.3585 4.27687 12.1102L4.26595 11.9695C4.18613 10.9403 4.35327 9.89247 4.74934 8.9392C5.14541 7.98592 5.77002 7.12814 6.55567 6.45855L6.89582 6.16865L6.84997 7.19967C6.84926 7.2156 6.84974 7.23133 6.85086 7.24691C6.85071 7.24767 6.85046 7.24839 6.85032 7.24916C6.82512 7.38316 6.78533 7.49575 6.73046 7.58881L6.49613 7.82313C6.40938 7.87263 6.30721 7.90471 6.1884 7.92007C6.08529 7.93339 6.01252 8.02778 6.02585 8.13088C6.03812 8.2258 6.11907 8.29501 6.21229 8.29501C6.22034 8.29501 6.22847 8.29449 6.23665 8.29343C6.67394 8.23691 6.98071 8.0026 7.13715 7.61032C7.16829 7.62034 7.20086 7.62718 7.23478 7.62941C7.45112 7.64361 7.79905 7.66686 8.14593 7.69014C8.70199 7.72744 9.15787 8.15561 9.22995 8.70822L9.28574 9.13602C9.31164 9.33425 9.47533 9.48513 9.67499 9.49477L10.148 9.51766C10.2746 9.52377 10.3892 9.58652 10.4626 9.68981C10.536 9.79309 10.5575 9.92204 10.5216 10.0436L10.3087 10.7641C10.2272 11.04 9.98971 11.238 9.70366 11.2685L8.20638 11.4282C7.99315 11.4509 7.80691 11.5782 7.70815 11.7687C7.60971 11.9586 7.61295 12.1834 7.71691 12.3702C7.73058 12.3947 7.74402 12.4192 7.7573 12.4438C7.83467 12.5872 7.90716 12.7366 7.97279 12.8882C8.00355 12.9592 8.07283 13.0016 8.1456 13.0016C8.17058 13.0016 8.19597 12.9966 8.22033 12.9861C8.31573 12.9447 8.35955 12.8339 8.31824 12.7385C8.24834 12.5771 8.17106 12.4178 8.0886 12.265C8.07453 12.2389 8.06026 12.2129 8.04581 12.187C8.00289 12.1098 8.00165 12.0205 8.04239 11.9419C8.08343 11.8628 8.15776 11.812 8.24632 11.8025L9.7436 11.6428C10.1814 11.5961 10.545 11.2931 10.6698 10.8707L10.8826 10.1502C10.9515 9.91715 10.9102 9.66989 10.7695 9.47178C10.6288 9.2737 10.4089 9.15336 10.1662 9.14163L9.69316 9.11874C9.67565 9.1179 9.66131 9.10467 9.65904 9.08731L9.60325 8.65953C9.50805 7.92946 8.90576 7.36381 8.17113 7.31452C7.82405 7.29122 7.47594 7.26797 7.25946 7.25374C7.23986 7.25246 7.2252 7.23606 7.22608 7.2164L7.22941 7.14147C7.24896 7.12392 7.26525 7.10212 7.27637 7.07644C7.56888 6.40129 7.87536 5.88894 8.21196 5.51282L11.2025 5.05089C11.6646 4.97951 12 4.58832 12 4.12075V3.10407C12 2.95301 11.9411 2.81106 11.8342 2.70436ZM10.6864 3.21155C10.6469 3.1992 10.6203 3.1631 10.6203 3.12171V2.91752L11.4349 2.91584H11.4353C11.4855 2.91584 11.5327 2.93536 11.5683 2.97083C11.6039 3.0064 11.6235 3.05371 11.6235 3.10407V3.50439L10.6864 3.21155Z" fill="white"/>
<path d="M8.04651 9.23682C8.20245 9.23682 8.32886 9.11041 8.32886 8.95447C8.32886 8.79853 8.20245 8.67212 8.04651 8.67212C7.89057 8.67212 7.76416 8.79853 7.76416 8.95447C7.76416 9.11041 7.89057 9.23682 8.04651 9.23682Z" fill="white"/>
</svg>
