<svg width="121" height="121" viewBox="0 0 121 121" fill="none" xmlns="http://www.w3.org/2000/svg">
<circle cx="60.5" cy="60.5" r="60.5" fill="white"/>
<path d="M63.1478 56.324L60.1146 53.7606L60.5069 49.8085C60.5288 49.5961 60.4904 49.3817 60.3961 49.1901C60.3018 48.9985 60.1554 48.8373 59.9737 48.725C59.7928 48.6113 59.5836 48.5509 59.37 48.5507C59.1564 48.5504 58.947 48.6103 58.7659 48.7236L55.3906 50.8161L51.7534 49.222C51.5581 49.1354 51.3423 49.1056 51.1309 49.1361C50.9195 49.1665 50.7209 49.2559 50.558 49.3941C50.3939 49.5309 50.2718 49.7113 50.2055 49.9144C50.1393 50.1175 50.1316 50.3352 50.1834 50.5424L51.1305 54.3992L48.4905 57.3655C48.3478 57.5245 48.2528 57.7205 48.2164 57.9311C48.18 58.1416 48.2037 58.3581 48.2846 58.5558C48.3641 58.7541 48.4978 58.926 48.6705 59.0518C48.8432 59.1776 49.0478 59.2522 49.2609 59.267L53.2216 59.558L55.2273 62.986C55.3274 63.1585 55.4711 63.3016 55.644 63.401C55.817 63.5003 56.013 63.5524 56.2124 63.5519C56.4402 63.5533 56.6632 63.4862 56.8524 63.3593C57.0416 63.2324 57.1883 63.0516 57.2735 62.8403L58.7742 59.1634L62.6545 58.3151C62.8633 58.2701 63.0552 58.1672 63.2082 58.0182C63.3612 57.8693 63.4692 57.6802 63.5198 57.4727C63.5719 57.2656 63.5646 57.0481 63.4989 56.8449C63.4331 56.6417 63.3114 56.4612 63.1478 56.324ZM57.9471 57.3529C57.766 57.3925 57.5971 57.4755 57.4552 57.5949C57.3133 57.7143 57.2025 57.8664 57.1324 58.0381L56.0862 60.6014L54.6875 58.2111C54.5938 58.0512 54.4626 57.9165 54.3053 57.8186C54.148 57.7206 53.9693 57.6623 53.7845 57.6487L51.0234 57.4459L52.8642 55.3773C52.9874 55.2387 53.075 55.0724 53.1196 54.8924C53.1642 54.7125 53.1644 54.5245 53.1202 54.3444L52.4599 51.6558L54.995 52.7668C55.1649 52.8414 55.3504 52.8735 55.5355 52.8604C55.7207 52.8473 55.8998 52.7894 56.0575 52.6916L58.4107 51.2327L58.1373 53.9877C58.119 54.1723 58.1458 54.3586 58.2154 54.5305C58.2851 54.7024 58.3955 54.8548 58.5372 54.9745L60.6518 56.7615L57.9471 57.3529Z" fill="#23780E"/>
<path d="M91.2413 80.4022L87.999 77.5383C87.172 76.808 85.9117 76.7928 85.0673 77.5027L84.9219 77.6251C84.7786 77.1086 84.5167 76.6197 84.1325 76.2059C83.6631 75.7003 83.067 75.3544 82.4103 75.1988C82.7891 74.0356 82.5443 72.7059 81.6548 71.7477C81.0221 71.0661 80.1619 70.6719 79.2327 70.6376C79.2046 70.6365 79.1769 70.6369 79.149 70.6365C79.1916 69.7344 78.887 68.8166 78.2256 68.1041C77.6008 67.4309 76.7538 67.0387 75.8376 66.996C75.9202 66.0495 75.6187 65.0731 74.923 64.3238C74.2904 63.6423 73.4302 63.248 72.5009 63.2138C71.5714 63.1787 70.6847 63.509 70.0034 64.1418L69.5417 64.5707C68.8709 64.0866 68.0685 63.8117 67.2162 63.7837C67.1094 63.7804 67.0026 63.7811 66.8958 63.7857L67.2419 62.631C67.8625 60.5599 68.2487 56.8053 68.2372 57.0067C68.2707 57.0229 68.3035 57.0397 68.3378 57.0549C68.8099 57.2649 69.3209 57.3732 69.8377 57.3728C70.4233 57.3728 71.0062 57.2341 71.5272 56.9583C72.6116 56.3842 73.3812 55.1842 73.4424 53.9721C73.5007 52.8187 72.9575 51.8002 71.9131 51.1041C71.6984 50.961 71.4357 50.9091 71.1827 50.9597C70.9298 51.0104 70.7073 51.1594 70.5642 51.374C70.4212 51.5887 70.3693 51.8514 70.4199 52.1044C70.4706 52.3573 70.6196 52.5798 70.8343 52.7229C71.2988 53.0324 71.5226 53.4196 71.4995 53.8739C71.4726 54.4083 71.1014 54.9824 70.6169 55.2388C70.1728 55.4741 69.6032 55.4891 69.1302 55.278C68.8282 55.1434 68.4367 54.8569 68.2868 54.2572C67.8406 52.4711 68.8639 50.6982 70.0486 48.6456C72.1946 44.9275 74.8653 40.3005 69.2748 33.6927L66.9596 30.9561C66.731 30.6844 66.4508 30.4608 66.1351 30.2983C65.8195 30.1359 65.4747 30.0377 65.1208 30.0096C64.767 29.9796 64.4108 30.0201 64.0729 30.1288C63.7349 30.2376 63.4219 30.4124 63.1521 30.6431C62.4171 31.2683 61.8445 32.0621 61.4832 32.9568C61.1219 33.8515 60.9827 34.8204 61.0775 35.7806L61.193 36.9496C61.2218 37.2445 61.1811 37.5421 61.0741 37.8185C60.9672 38.0948 60.797 38.3423 60.5772 38.5411L61.8307 40.0316C62.2922 39.6289 62.6508 39.1217 62.8767 38.5523C63.1025 37.9829 63.189 37.3678 63.1289 36.7582L63.0133 35.5892C62.9494 34.9418 63.0432 34.2885 63.2868 33.6852C63.5304 33.0819 63.9165 32.5467 64.4121 32.1252C64.4873 32.0607 64.5746 32.0119 64.6689 31.9815C64.7632 31.9512 64.8626 31.94 64.9613 31.9485C65.06 31.9563 65.1562 31.9837 65.2443 32.029C65.3323 32.0743 65.4105 32.1367 65.4742 32.2125L67.7895 34.9491C72.4964 40.5126 70.4889 43.9908 68.3636 47.673C68.0311 48.249 67.696 48.8304 67.3928 49.4198C66.589 46.6576 65.2438 44.0896 63.3837 41.8782L58.9317 36.5849L58.9567 36.5639C59.1328 36.4166 59.278 36.2359 59.3838 36.0322C59.4896 35.8284 59.5539 35.6057 59.573 35.377C59.5934 35.1483 59.5682 34.9179 59.4989 34.699C59.4296 34.4801 59.3176 34.2772 59.1694 34.1019L57.7468 32.4106C57.5996 32.2345 57.4189 32.0894 57.2151 31.9836C57.0114 31.8778 56.7887 31.8135 56.5599 31.7944C56.3312 31.774 56.1008 31.7992 55.8819 31.8685C55.6631 31.9377 55.4601 32.0497 55.2847 32.1979L32.8048 51.1047C32.0675 51.7248 31.9721 52.8291 32.5922 53.5667L34.0147 55.258C34.162 55.4341 34.3427 55.5793 34.5465 55.685C34.7503 55.7908 34.973 55.8551 35.2018 55.8742C35.4304 55.8947 35.6609 55.8696 35.8797 55.8003C36.0986 55.731 36.3015 55.619 36.4767 55.4706L36.5018 55.4494L38.1738 57.4375C37.9414 57.6171 37.6705 57.7404 37.3824 57.7977C37.0943 57.8549 36.7968 57.8445 36.5134 57.7672L35.3808 57.4564C34.4503 57.2011 33.4718 57.175 32.529 57.3803C31.5862 57.5856 30.7072 58.0162 29.9671 58.6354C29.6942 58.8625 29.4691 59.1415 29.305 59.4563C29.1408 59.7711 29.0409 60.1154 29.0109 60.4692C28.9789 60.8228 29.0175 61.1792 29.1244 61.5177C29.2314 61.8562 29.4045 62.1701 29.6338 62.4411L31.9411 65.1844C37.5122 71.8085 42.5233 69.956 46.5498 68.4673C48.367 67.7956 49.9815 67.1988 51.4312 67.4081C51.7007 67.4842 51.9716 67.5552 52.2438 67.6212C52.2887 67.6388 52.3335 67.6569 52.3782 67.6765C52.9441 67.9251 53.1605 68.3593 53.2424 68.6797C53.3707 69.1813 53.2598 69.7403 52.9531 70.1386C52.6187 70.5728 51.9904 70.8414 51.4589 70.7784C51.0072 70.7245 50.6632 70.4386 50.4364 69.9287C50.3292 69.6966 50.135 69.516 49.8957 69.426C49.6565 69.336 49.3914 69.3438 49.1578 69.4477C48.9242 69.5516 48.7409 69.7432 48.6475 69.9811C48.5541 70.2191 48.5582 70.4843 48.6587 70.7193C49.1688 71.8661 50.0813 72.5732 51.228 72.7101C51.3549 72.7252 51.4825 72.7327 51.6103 72.7327C52.7024 72.7325 53.8243 72.1955 54.4941 71.3255C55.1675 70.4513 55.4041 69.282 55.127 68.198C55.1206 68.1733 55.1129 68.1492 55.106 68.1247C55.9989 68.2256 56.8967 68.2764 57.7953 68.2767C58.767 68.2767 59.7499 68.2186 60.7378 68.1007L60.8239 68.0904C60.3802 68.619 60.0376 69.2247 59.8131 69.8772L55.9895 79.2824L35.5936 94.9653C35.4325 95.0891 35.3142 95.2603 35.2553 95.4547C35.1965 95.6492 35.2 95.8572 35.2654 96.0496C35.3308 96.242 35.4548 96.409 35.62 96.5273C35.7852 96.6456 35.9833 96.7092 36.1865 96.7091H59.2964C59.4263 96.7091 59.5548 96.6831 59.6745 96.6326C59.7942 96.5821 59.9025 96.5082 59.9932 96.4152L61.2803 95.0936C61.459 94.9086 61.557 94.6603 61.5531 94.4031C61.5491 94.1459 61.4434 93.9007 61.2592 93.7213C61.0749 93.5418 60.8271 93.4426 60.5699 93.4454C60.3127 93.4482 60.0671 93.5527 59.8867 93.7361L58.886 94.7637H39.0474L57.3848 80.6641C57.3983 80.6537 57.4104 80.6423 57.4232 80.6314C57.4319 80.624 57.4409 80.6168 57.4494 80.609C57.4804 80.5806 57.5092 80.5506 57.5358 80.5191C57.541 80.5128 57.5458 80.5062 57.5509 80.4997C57.5751 80.4694 57.5973 80.438 57.6175 80.4055C57.6213 80.3993 57.6254 80.3935 57.6291 80.3872C57.652 80.3484 57.6718 80.3084 57.689 80.2672C57.6902 80.2645 57.6919 80.262 57.6929 80.2593L61.6266 70.5834C61.6342 70.5648 61.6412 70.5459 61.6476 70.5268C61.8411 69.9545 62.1724 69.4386 62.6124 69.0246L65.4062 66.3951C65.886 65.9435 66.5046 65.7064 67.152 65.728C67.7632 65.7482 68.325 66.0011 68.7339 66.4403L68.8378 66.5519L68.838 66.5521L68.8381 66.5522L72.2553 70.2226L72.2556 70.223L72.256 70.2234L72.2561 70.2235L72.2568 70.2243L72.2576 70.2251L72.7417 70.7451C72.9458 70.9642 73.0518 71.2537 73.0407 71.5602C73.0289 71.8893 72.8861 72.1972 72.6389 72.4269L72.0757 72.9502C71.686 73.3122 71.1322 73.3806 70.7023 73.1614C70.6911 73.1553 70.6794 73.1502 70.6678 73.1445C70.5658 73.0879 70.4734 73.0157 70.394 72.9303L68.9755 71.4043C68.4686 70.8591 67.776 70.5449 67.0254 70.5199C66.2563 70.4948 65.5193 70.7736 64.9531 71.3065C64.8482 71.4052 64.7666 71.5259 64.7141 71.6599C64.6615 71.7939 64.6394 71.938 64.6493 72.0816C64.6539 72.1555 64.6572 72.2286 64.6591 72.3013C64.6602 72.3422 64.6601 72.3827 64.6603 72.4233C64.6606 72.4546 64.6611 72.486 64.6607 72.517C64.6602 72.5689 64.6584 72.6202 64.6564 72.6714C64.6558 72.69 64.6552 72.7087 64.6543 72.7273C64.6515 72.7852 64.6474 72.8426 64.6427 72.8996L64.6409 72.922C64.638 72.9463 64.6361 72.9707 64.635 72.9952C64.5442 73.8958 64.2188 74.7017 63.6501 75.4398C63.5721 75.541 63.5148 75.6566 63.4815 75.7799C63.4482 75.9032 63.4396 76.0318 63.456 76.1585C63.4724 76.2852 63.5136 76.4074 63.5773 76.5181C63.6409 76.6288 63.7257 76.726 63.8269 76.8039C63.9281 76.8819 64.0436 76.9391 64.167 76.9724C64.2903 77.0057 64.4189 77.0144 64.5456 76.998C64.6723 76.9816 64.7944 76.9403 64.9052 76.8767C65.0159 76.8131 65.113 76.7282 65.191 76.627C65.5207 76.2011 65.7994 75.7381 66.0213 75.2474L74.2947 86.563L74.0973 86.729C73.9701 86.7724 73.8533 86.8418 73.7545 86.9329C73.0669 87.5654 72.2254 87.9918 71.3182 88.1679L65.227 88.6057C64.9893 88.6227 64.7661 88.7265 64.5999 88.8971L63.0449 90.4937C62.8681 90.6791 62.7716 90.9268 62.7763 91.1829C62.7811 91.439 62.8866 91.683 63.0701 91.8617C63.2536 92.0405 63.5002 92.1396 63.7564 92.1377C64.0125 92.1357 64.2576 92.0328 64.4383 91.8512L65.7352 90.5195L71.5132 90.1044C71.5243 90.1036 71.5351 90.1014 71.546 90.1002C71.5706 90.4564 71.6808 90.8014 71.8672 91.106L74.133 94.791C74.3019 95.0661 74.5283 95.3015 74.7966 95.4811C75.0649 95.6607 75.3688 95.7802 75.6876 95.8316C76.0063 95.8832 76.3324 95.8655 76.6437 95.7795C76.9549 95.6936 77.2439 95.5414 77.4909 95.3335L91.1998 83.8038C91.447 83.5961 91.6464 83.3375 91.7845 83.0456C91.9225 82.7537 91.996 82.4355 91.9998 82.1127C92.0039 81.7898 91.9383 81.4698 91.8074 81.1746C91.6764 80.8794 91.4834 80.6159 91.2413 80.4022ZM45.8754 66.6427C41.8874 68.1171 38.1207 69.5095 33.4302 63.9324L31.1229 61.1892C30.9934 61.0351 30.9316 60.8397 30.9492 60.6391C30.9668 60.4385 31.0615 60.2567 31.2161 60.1276C31.7151 59.7102 32.3078 59.4198 32.9434 59.2814C33.5791 59.1429 34.2389 59.1605 34.8663 59.3325L35.9989 59.6434C36.5862 59.8043 37.2034 59.8234 37.7996 59.6992C38.3958 59.5749 38.9539 59.3107 39.428 58.9285L40.954 60.7429C42.8184 62.9598 45.1243 64.7287 47.7154 65.9946C47.0986 66.1908 46.4843 66.4176 45.8754 66.6427ZM65.3781 62.0726L64.6436 64.5234C64.4413 64.6594 64.2504 64.8115 64.0727 64.9783L63.1421 65.8542L60.5073 66.169C53.4249 67.0153 46.6713 64.5185 42.4427 59.4907L37.9908 54.1974L39.7287 52.7357C39.8265 52.6535 39.9071 52.5528 39.966 52.4394C40.0248 52.326 40.0608 52.2022 40.0718 52.0749C40.0827 51.9477 40.0686 51.8195 40.03 51.6977C39.9914 51.5759 39.9293 51.4629 39.847 51.3652C39.7648 51.2674 39.6642 51.1867 39.5508 51.1278C39.4374 51.069 39.3136 51.033 39.1863 51.022C39.059 51.011 38.9308 51.0252 38.809 51.0637C38.6873 51.1023 38.5743 51.1645 38.4765 51.2467L35.9945 53.3341L35.9941 53.3344L35.9937 53.3348L35.3761 53.8542L34.2084 52.466L56.3857 33.8141L57.5534 35.2025L56.9367 35.7212L56.9354 35.7221L56.9342 35.7231L41.9848 48.2962C41.7874 48.4622 41.664 48.6999 41.6418 48.9569C41.6196 49.214 41.7004 49.4693 41.8665 49.6668C42.0325 49.8642 42.2702 49.9876 42.5272 50.0098C42.7843 50.032 43.0396 49.9512 43.2371 49.7851L57.4431 37.837L61.895 43.1303C66.1237 48.1583 67.4257 55.2396 65.3781 62.0726ZM81.6644 77.0518C81.8611 77.0585 82.0545 77.1042 82.2334 77.1863C82.4123 77.2683 82.5732 77.385 82.7067 77.5296C82.9311 77.7718 83.0691 78.0814 83.0993 78.4102C83.1295 78.739 83.0502 79.0686 82.8738 79.3476L78.6355 82.9122C78.4101 82.932 78.1832 82.8997 77.9723 82.818C77.7613 82.7362 77.5719 82.6072 77.4186 82.4407C76.8569 81.8357 76.8921 80.8864 77.4968 80.3244L78.1109 79.7539C78.224 79.6717 78.3322 79.5829 78.4349 79.488L80.807 77.2844C81.0627 77.1219 81.3616 77.0408 81.6644 77.0518ZM78.1737 72.8945C78.4559 72.6781 78.8051 72.5673 79.1605 72.5815C79.3621 72.5884 79.5603 72.6353 79.7437 72.7193C79.9271 72.8034 80.092 72.923 80.2289 73.0712C80.8046 73.6912 80.7687 74.6643 80.1487 75.2402L79.5885 75.7607C79.4756 75.8426 79.3677 75.9311 79.2654 76.0257L76.8904 78.2321C76.6283 78.4007 76.3206 78.4844 76.0091 78.472C75.8075 78.465 75.6093 78.4182 75.4259 78.3341C75.2425 78.2501 75.0776 78.1305 74.9408 77.9823C74.4028 77.4028 74.3993 76.5152 74.9071 75.9315C74.9402 75.903 74.9733 75.8742 75.0055 75.8444L78.0435 73.022C78.0884 72.9803 78.1316 72.9379 78.1737 72.8945ZM73.0181 68.1872L70.926 65.9401L71.3274 65.5671C71.6279 65.288 72.019 65.1453 72.4289 65.1577C72.6305 65.1646 72.8287 65.2115 73.0121 65.2955C73.1955 65.3796 73.3604 65.4991 73.4973 65.6473C74.073 66.2674 74.0369 67.2405 73.417 67.8165L73.0181 68.1872ZM73.3997 74.3756L73.9631 73.8521C74.5912 73.2687 74.9541 72.4796 74.9848 71.6308C75.0115 70.8936 74.7822 70.1894 74.3361 69.6201L74.6299 69.3472C74.7772 69.2093 74.9504 69.1021 75.1395 69.0318C75.3286 68.9615 75.5298 68.9296 75.7314 68.9378C75.933 68.9448 76.1312 68.9916 76.3145 69.0756C76.4979 69.1597 76.6628 69.2793 76.7996 69.4274C77.3378 70.0072 77.3411 70.8952 76.8328 71.479C76.7997 71.5072 76.7671 71.5361 76.735 71.5655L73.697 74.3879C73.6521 74.4297 73.6085 74.4724 73.5663 74.5159C73.3391 74.6899 73.0673 74.7958 72.7824 74.8215C73.0051 74.6979 73.2124 74.5483 73.3997 74.3756ZM66.6005 72.7433C66.6033 72.67 66.606 72.5968 66.6066 72.5228C66.7196 72.4801 66.8399 72.4603 66.9606 72.4646C67.1897 72.4722 67.3992 72.5664 67.5508 72.7294L68.9693 74.2552C69.1117 74.4085 69.2695 74.5466 69.4402 74.6676C69.596 75.0342 69.8145 75.3709 70.0859 75.6625C70.7186 76.344 71.5787 76.7383 72.5081 76.7727C72.5361 76.7736 72.5639 76.7739 72.5918 76.7743C72.5493 77.6761 72.8539 78.5938 73.5151 79.3061C73.9891 79.8167 74.5908 80.166 75.2536 80.3236C74.8664 81.4806 75.106 82.8092 75.9927 83.7643C76.2375 84.0277 76.5223 84.2507 76.8366 84.4252L75.7869 85.308L66.6005 72.7433ZM89.9476 82.3147L76.2387 93.8444C76.2058 93.8724 76.1672 93.8928 76.1256 93.9043C76.084 93.9158 76.0404 93.9181 75.9978 93.911C75.9552 93.9043 75.9145 93.8884 75.8786 93.8644C75.8427 93.8404 75.8125 93.8088 75.7901 93.772L73.5244 90.0868C73.4863 90.0257 73.4717 89.9529 73.4832 89.8818C73.4946 89.8108 73.5314 89.7463 73.5868 89.7002L86.3186 78.9921L86.3192 78.9917C86.3733 78.9463 86.4416 78.9215 86.5122 78.9217C86.5835 78.9217 86.6547 78.9467 86.7108 78.9964L89.9531 81.8603C90.0427 81.9395 90.0551 82.0375 90.0545 82.0889C90.0542 82.1321 90.0445 82.1747 90.0261 82.2137C90.0076 82.2527 89.9808 82.2872 89.9476 82.3147Z" fill="#23780E"/>
</svg>
